<svg xmlns="http://www.w3.org/2000/svg" xmlns:xlink="http://www.w3.org/1999/xlink" viewBox="0 0 107.33938 60">
  <defs>
    <style>
      .cls-1 {
        fill: none;
      }

      .cls-2 {
        clip-path: url(#clip-path);
      }

      .cls-3 {
        fill: #fff;
      }
    </style>
    <clipPath id="clip-path">
      <rect class="cls-1" x="0.00052" y="11.36658" width="107.33938" height="36.03964"/>
    </clipPath>
  </defs>
  <title>logo_vd_white</title>
  <g id="Layer_2" data-name="Layer 2">
    <g id="Layer_1-2" data-name="Layer 1">
      <g>
        <rect class="cls-1" x="0.00002" width="107.33936" height="60"/>
        <g class="cls-2">
          <path class="cls-3" d="M34.29357,22.19468a2.76622,2.76622,0,0,1-2.81474-1.96316,6.40907,6.40907,0,0,1-.23379-1.92994,6.57481,6.57481,0,0,1,.23379-1.94615,2.76687,2.76687,0,0,1,2.81474-1.964,2.73768,2.73768,0,0,1,2.4385,1.2711.53407.53407,0,0,1,.07277.28879.44876.44876,0,0,1-.45286.45364.5363.5363,0,0,1-.45519-.26866,1.80888,1.80888,0,0,0-1.60322-.77645A1.77331,1.77331,0,0,0,32.455,16.66742a5.03849,5.03849,0,0,0-.19509,1.63416,4.972,4.972,0,0,0,.19431,1.61564,1.77206,1.77206,0,0,0,1.83934,1.309,1.81176,1.81176,0,0,0,1.60554-.77721A.52781.52781,0,0,1,36.352,20.182a.44873.44873,0,0,1,.45286.45363.52685.52685,0,0,1-.07354.28955,2.73589,2.73589,0,0,1-2.43773,1.26954"/>
          <path class="cls-3" d="M40.115,22.195c-1.573,0-2.58869-.884-2.58869-2.25038,0-1.46156,1.01721-2.26588,2.86428-2.26588h1.87417l.007-.52952c0-1.28116-.52718-1.8045-1.82-1.8045a3.38453,3.38453,0,0,0-1.63032.44977.6373.6373,0,0,1-.33442.103.4487.4487,0,0,1-.4699-.46838.53311.53311,0,0,1,.19895-.40176,3.91253,3.91253,0,0,1,2.28136-.63479c1.87185,0,2.742.8562,2.742,2.69552v2.96413a1.38017,1.38017,0,0,0,.14477.74549l.2903.55121a.63774.63774,0,0,1,.07276.26937.47782.47782,0,0,1-.51557.48308.52138.52138,0,0,1-.47222-.30112l-.30655-.50708A2.92945,2.92945,0,0,1,40.115,22.195m.39791-3.59429c-1.39344,0-1.988.40256-1.988,1.34391,0,1.07142.939,1.29666,1.72786,1.29666,1.2448,0,2.01893-.59066,2.01893-1.54207V18.60851Z"/>
          <path class="cls-3" d="M50.31133,22.10169a.47809.47809,0,0,1-.49932-.52948V17.4724c0-1.4213-.59917-2.1126-1.83546-2.1126a1.85141,1.85141,0,0,0-1.91132,1.95857v4.25384a.50017.50017,0,1,1-.99863,0V15.01455a.50026.50026,0,1,1,.99863,0V15.277a2.54452,2.54452,0,0,1,2.09556-.88483c1.659,0,2.64985,1.0768,2.64985,2.87979v4.30028a.47771.47771,0,0,1-.49931.52948"/>
          <path class="cls-3" d="M54.97926,22.08714h-.19895c-1.40892,0-1.95778-.57517-1.95778-2.04986V15.45983l-.6077-.00695a.45454.45454,0,1,1,0-.90728H52.814l.00852-1.88037a.50027.50027,0,1,1,.99863,0v1.87262l1.17358.00775a.45458.45458,0,1,1,0,.90728H53.82812l-.007,4.5534c0,.88408.23766,1.11244,1.1581,1.11244a.48512.48512,0,1,1,0,.96842"/>
          <path class="cls-3" d="M59.18673,22.19486A2.7845,2.7845,0,0,1,56.372,20.23242a6.21,6.21,0,0,1-.24926-1.94615,6.14556,6.14556,0,0,1,.24926-1.93069,3.01068,3.01068,0,0,1,5.64574,0,6.168,6.168,0,0,1,.24927,1.93069,6.21941,6.21941,0,0,1-.24927,1.94464,2.79613,2.79613,0,0,1-2.831,1.96395m0-6.83482a1.84678,1.84678,0,0,0-1.854,1.30828,4.90608,4.90608,0,0,0-.19508,1.61795,4.94837,4.94837,0,0,0,.19508,1.63109,1.97886,1.97886,0,0,0,3.72356,0,4.94217,4.94217,0,0,0,.19586-1.63109,4.89986,4.89986,0,0,0-.19586-1.61795A1.83438,1.83438,0,0,0,59.18673,15.36"/>
          <path class="cls-3" d="M68.908,22.10169a.47809.47809,0,0,1-.49932-.52948V17.4724c0-1.4213-.60073-2.1126-1.83625-2.1126a1.85184,1.85184,0,0,0-1.91132,1.95857v4.25384a.49981.49981,0,1,1-.99786,0V15.01455a.4999.4999,0,1,1,.99786,0V15.277a2.5466,2.5466,0,0,1,2.09557-.88483c1.65973,0,2.64985,1.0768,2.64985,2.87979v4.30028a.47752.47752,0,0,1-.49853.52948"/>
          <path class="cls-3" d="M76.299,22.19486a2.57617,2.57617,0,0,1-2.6003-1.87031,6.487,6.487,0,0,1-.26476-2.03828,6.51035,6.51035,0,0,1,.264-2.022A2.57624,2.57624,0,0,1,76.299,14.39162a2.437,2.437,0,0,1,2.12654.89565V11.89738a.4999.4999,0,1,1,.99785,0v9.67507a.49985.49985,0,1,1-.99785,0v-.27324a2.43788,2.43788,0,0,1-2.12654.89565M76.43676,15.36a1.76438,1.76438,0,0,0-1.79366,1.26339,5.17141,5.17141,0,0,0-.19508,1.66284,5.173,5.173,0,0,0,.19508,1.67754,1.76313,1.76313,0,0,0,1.79366,1.26183,1.74214,1.74214,0,0,0,1.80836-1.21614,6.33453,6.33453,0,0,0,.18037-1.72323,6.37226,6.37226,0,0,0-.18115-1.71084A1.74255,1.74255,0,0,0,76.43676,15.36"/>
          <path class="cls-3" d="M83.93042,22.19567a2.77129,2.77129,0,0,1-2.87668-1.9787,5.88393,5.88393,0,0,1-.23455-1.9307,6.00923,6.00923,0,0,1,.23455-1.93065,2.9653,2.9653,0,0,1,5.58226,0,5.568,5.568,0,0,1,.23533,1.77662.44908.44908,0,0,1-.46989.46833H81.841A3.45279,3.45279,0,0,0,81.9827,19.857a1.92491,1.92491,0,0,0,1.99261,1.36862,2.46,2.46,0,0,0,1.92139-.80352.53378.53378,0,0,1,.36772-.17884.43666.43666,0,0,1,.45364.43815.51931.51931,0,0,1-.11147.3298,3.31209,3.31209,0,0,1-2.67617,1.18444m-.0929-6.86658A1.82667,1.82667,0,0,0,81.968,16.65367a3.278,3.278,0,0,0-.13393,1.01794l4.01543.007a3.11679,3.11679,0,0,0-.12619-1.02493,1.83794,1.83794,0,0,0-1.88578-1.32458"/>
          <path class="cls-3" d="M38.50809,45.68706l-6.96486-18.1185a1.93513,1.93513,0,0,1-.13315-.66035A1.12236,1.12236,0,0,1,32.60069,25.761a1.19079,1.19079,0,0,1,1.14649.88176l6.34787,16.57492h.04335l6.21627-16.57492a1.18846,1.18846,0,0,1,1.14571-.88176A1.12237,1.12237,0,0,1,48.691,26.90821a1.9486,1.9486,0,0,1-.13161.66035l-6.96485,18.1185c-.39712,1.10161-.79425,1.45461-1.54439,1.45461-.74936,0-1.14649-.353-1.54206-1.45461"/>
          <path class="cls-3" d="M67.1434,45.99583a1.13631,1.13631,0,0,1-1.23474,1.1457,1.25274,1.25274,0,0,1-1.14571-.74937l-1.01334-1.67522h-.089c-1.54283,1.72015-3.39456,2.68933-6.70087,2.68933-4.05412,0-7.1847-2.20394-7.1847-6.21625,0-4.14313,2.90918-6.25961,7.97819-6.25961h5.37866a.23346.23346,0,0,0,.26475-.264v-1.4995c0-3.482-1.323-5.422-5.46614-5.422a9.9224,9.9224,0,0,0-4.805,1.323,1.56438,1.56438,0,0,1-.83761.264,1.04,1.04,0,0,1-1.10158-1.10237,1.30258,1.30258,0,0,1,.48383-.96922,10.83991,10.83991,0,0,1,6.39122-1.76348c5.20293,0,7.62751,2.33633,7.62751,7.49362v8.50844a4.2035,4.2035,0,0,0,.44048,2.24807l.83761,1.587a1.636,1.636,0,0,1,.1765.66191m-3.74679-5.51029V37.355a.23375.23375,0,0,0-.26475-.264H58.107c-4.188,0-5.95152,1.27809-5.95152,4.099,0,2.60187,1.80837,3.96742,5.20138,3.96742,3.61519,0,6.03977-1.76268,6.03977-4.6719"/>
          <path class="cls-3" d="M84.42184,45.86349V44.40816h-.04491c-1.18906,1.89583-3.17316,2.9982-6.12646,2.9982-4.63007,0-7.27373-2.91-7.27373-8.0231V27.04055a1.19335,1.19335,0,1,1,2.38045,0V38.80961c0,4.18883,1.7627,6.30375,5.422,6.30375a5.49785,5.49785,0,0,0,5.64264-5.86249V27.04055a1.19371,1.19371,0,1,1,2.38122,0V45.86349a1.1936,1.1936,0,1,1-2.38122,0"/>
          <path class="cls-3" d="M104.95882,45.86363V44.32h-.04335c-1.01334,1.80681-2.86584,3.08646-6.30374,3.08646a7.18483,7.18483,0,0,1-7.23038-5.20138,18.38059,18.38059,0,0,1-.74859-5.77578,18.2659,18.2659,0,0,1,.74859-5.7309,7.18311,7.18311,0,0,1,7.23038-5.20138c3.4379,0,5.2904,1.27809,6.30374,3.08646h.04335V18.09094a1.19325,1.19325,0,1,1,2.38045,0V45.86363a1.19325,1.19325,0,1,1-2.38045,0m-.52873-4.40868a18.53693,18.53693,0,0,0,.52873-5.02561,18.40557,18.40557,0,0,0-.52873-4.98153,5.23686,5.23686,0,0,0-5.42124-3.65855,5.31857,5.31857,0,0,0-5.37865,3.7909,15.21008,15.21008,0,0,0-.57286,4.84918,15.32861,15.32861,0,0,0,.57286,4.89326,5.31857,5.31857,0,0,0,5.37865,3.7909,5.236,5.236,0,0,0,5.42124-3.65855"/>
          <path class="cls-3" d="M28.42256,14.4813a.47031.47031,0,0,0-.4699-.45832H.4842a.47068.47068,0,0,0-.4699.45751c-.00078.01318-.03561,1.333.01006,3.2498a69.1042,69.1042,0,0,0,.49932,7.03606,27.77611,27.77611,0,0,0,.55737,3.04238H1.07176l.15328.5883a30.00527,30.00527,0,0,0,2.74661,6.88515,43.42566,43.42566,0,0,0,6.961,9.20361l.53493.56359c.5086.53647.94753,1.00093,1.32066,1.347a2.45805,2.45805,0,0,0,1.41511.82521l.031.00231.03174-.00231a2.393,2.393,0,0,0,1.39962-.826c.31353-.29417.67272-.66962,1.09-1.10388.23611-.247.49312-.51483.77723-.80589a44.03107,44.03107,0,0,0,6.94859-9.20286A30.11751,30.11751,0,0,0,27.242,28.39859l.00078-.00308.15327-.58678H27.386a28.19029,28.19029,0,0,0,.56356-3.04313c.25315-2.08166.41107-4.44894.46913-7.03687.03871-1.91595.00464-3.2343.00387-3.24743M12.15034,44.40221l-.5388-.56671a42.51929,42.51929,0,0,1-6.81466-9.00545A29.51569,29.51569,0,0,1,3.02179,30.9602L14.12127,46.23765a2.986,2.986,0,0,1-.69129-.52952c-.353-.32668-.78188-.78032-1.27964-1.30592M15.02,45.712c-.13083.12464-.24153.21985-.33752.298L2.40017,29.10458c-.03484-.1184-.072-.2361-.10528-.35531H3.86714l11.831,16.28461c-.25.25936-.47842.49-.67814.67813m1.09229-1.10856L4.59328,28.74927H6.318l10.77435,14.83c-.07974.08439-.15483.168-.23611.25316-.2694.27561-.51557.5326-.744.771m7.36508-15.85418L25.316,31.27989q-.29494.75714-.63323,1.50181l-2.93009-4.03243Zm-2.45089,0L24.39863,33.391q-.33791.7013-.7153,1.39031l-4.38158-6.032Zm-2.45168,0L23.36362,35.341q-.37158.64914-.7811,1.29822l-5.73244-7.89Zm-2.45089,0,6.1195,8.4241c-.26707.40564-.54808.81283-.83838,1.22l-7.00666-9.64412Zm-2.45167,0,7.36817,10.14265q-.425.57825-.88328,1.15812L11.94752,28.74927Zm-2.4509,0,8.55724,11.77841q-.44706.55041-.92276,1.10389l-9.36-12.8823Zm-2.45167,0,9.68747,13.33438q-.46448.526-.95605,1.05748L7.045,28.74927Zm16.794,1.87107L24.2051,28.74927h1.96629c-.17883.62785-.384,1.25177-.6077,1.87107M27.47812,17.7086c-.05729,2.55618-.21211,4.89176-.46215,6.94086a26.8864,26.8864,0,0,1-.59454,3.15927H2.04562A26.8688,26.8688,0,0,1,1.4565,24.648a68.44111,68.44111,0,0,1-.49234-6.9401c-.02865-1.22777-.02478-2.2055-.01781-2.74353H27.49051c.007.538.01238,1.515-.01239,2.74428"/>
          <path class="cls-3" d="M5.83847,17.09337a.1862.1862,0,0,1,.18966-.20667.18879.18879,0,0,1,.1943.20667V19.456a.02229.02229,0,0,0,.02555.02556H7.51987a.17955.17955,0,1,1,0,.35843H6.02426a.17351.17351,0,0,1-.18579-.18966Z"/>
          <path class="cls-3" d="M8.41647,17.09337a.19251.19251,0,1,1,.384,0V19.655a.19251.19251,0,1,1-.384,0Z"/>
          <path class="cls-3" d="M9.7832,17.08009a.16078.16078,0,0,1,.17263-.17189h.90961c.586,0,.88405.30117.88405.76719a.62442.62442,0,0,1-.39713.64254v.0085a.67269.67269,0,0,1,.44823.67737c0,.552-.353.83607-.94831.83607H9.95583A.15852.15852,0,0,1,9.7832,19.668Zm1.07372,1.09614a.46218.46218,0,1,0,0-.91886h-.6642a.02257.02257,0,0,0-.02555.02552v.867a.02313.02313,0,0,0,.02555.02632Zm-.6642,1.31447h.6851c.34914,0,.53957-.18966.53957-.483a.473.473,0,0,0-.53957-.48307h-.6851a.02314.02314,0,0,0-.02555.02631v.91428a.02257.02257,0,0,0,.02555.02551"/>
          <path class="cls-3" d="M12.64555,17.08038a.16053.16053,0,0,1,.17185-.17185H14.327a.17919.17919,0,1,1,0,.35768h-1.2719a.02312.02312,0,0,0-.02632.02551v.8624c0,.01781.00929.02556.02632.02556h1.06056a.17955.17955,0,1,1,0,.35843H13.05506a.02336.02336,0,0,0-.02632.02632v.89178a.02316.02316,0,0,0,.02632.02556H14.327a.17952.17952,0,1,1,0,.35838H12.8174a.16073.16073,0,0,1-.17185-.1726Z"/>
          <path class="cls-3" d="M15.33147,19.65447v-2.574a.16037.16037,0,0,1,.17186-.17265h.91889a.82975.82975,0,0,1,.92664.84534.77765.77765,0,0,1-.55583.78887l.52563,1.035a.2102.2102,0,0,1,.02555.10376.17792.17792,0,0,1-.185.18116.207.207,0,0,1-.185-.12158l-.57828-1.14182H15.741c-.01781,0-.02632.00851-.02632.02552v1.03041a.19221.19221,0,1,1-.3832,0m1.63806-1.90131c0-.30655-.20282-.4869-.54344-.4869H15.741c-.01781,0-.02632.0085-.02632.02556v.92273c0,.01705.00851.02556.02632.02556h.6851c.34062,0,.54344-.18035.54344-.487"/>
          <path class="cls-3" d="M19.91835,16.90815a.17915.17915,0,1,1,0,.35768H19.241a.0229.0229,0,0,0-.02555.02556V19.6548a.19251.19251,0,1,1-.384,0V17.29139a.02228.02228,0,0,0-.02554-.02556h-.67659a.17915.17915,0,1,1,0-.35768Z"/>
          <path class="cls-3" d="M20.80209,17.08024a.16015.16015,0,0,1,.17186-.17185h1.50956a.17913.17913,0,1,1,0,.35763h-1.2719c-.0178,0-.02632.0085-.02632.02556V18.154a.02308.02308,0,0,0,.02632.02632h1.06056a.17913.17913,0,1,1,0,.35763H21.21161a.02306.02306,0,0,0-.02632.02632v.89183c0,.01776.00852.02551.02632.02551h1.2719a.1795.1795,0,1,1,0,.35843H20.97395a.16037.16037,0,0,1-.17186-.17265Zm1.08611-1.07762a.14659.14659,0,0,1,.11612-.0557.14153.14153,0,0,1,.14708.14165.17417.17417,0,0,1-.04335.11226l-.29727.32744a.16551.16551,0,0,1-.12927.065.13856.13856,0,0,1-.1378-.13778.17221.17221,0,0,1,.04722-.11609Z"/>
          <path class="cls-3" d="M12.64555,20.79813a.10915.10915,0,0,1,.11689-.11765h1.05127a.13321.13321,0,0,1,0,.2663h-.867a.01564.01564,0,0,0-.01781.01781v.51015c0,.01162.00619.01706.01781.01706h.723a.1332.1332,0,0,1,0,.26629h-.723a.01594.01594,0,0,0-.01781.01777v.53108c0,.01162.00619.017.01781.017h.867a.13321.13321,0,0,1,0,.2663H12.76244a.10914.10914,0,0,1-.11689-.11766Z"/>
          <path class="cls-3" d="M15.76467,20.68076a.133.133,0,1,1,0,.26554h-.46138c-.01161,0-.017.00619-.017.01782v1.48863a.14241.14241,0,1,1-.2841,0V20.96412a.016.016,0,0,0-.01781-.01782H14.523a.133.133,0,1,1,0-.26554Z"/>
          <path class="cls-3" d="M7.35638,23.59141a.16037.16037,0,0,1,.17186-.17265H8.434a.87775.87775,0,1,1,0,1.7511H7.7659c-.01781,0-.02633.00851-.02633.02552v.97a.1922.1922,0,1,1-.38319,0Zm1.63806.70288a.50378.50378,0,0,0-.57363-.5171H7.7659c-.01781,0-.02633.00775-.02633.02556v.98312c0,.01705.00852.02556.02633.02556h.65491a.50379.50379,0,0,0,.57363-.51714"/>
          <path class="cls-3" d="M9.68419,26.10889l.90109-2.49579c.04722-.13783.12076-.216.25-.216a.268.268,0,0,1,.25856.216l.88793,2.49579a.28812.28812,0,0,1,.0178.0867.17386.17386,0,0,1-.18114.17728.18814.18814,0,0,1-.18579-.13858l-.19818-.5651h-1.203l-.19818.5651a.18815.18815,0,0,1-.18579.13858.17387.17387,0,0,1-.18115-.17728.26613.26613,0,0,1,.01781-.0867m1.6249-.79275-.46525-1.33223h-.01316l-.47455,1.33223Z"/>
          <path class="cls-3" d="M14.11593,23.419a.1795.1795,0,1,1,0,.35843h-.67659c-.0178,0-.02632.00775-.02632.02481v2.3634a.19251.19251,0,1,1-.384,0v-2.3634c0-.01706-.00851-.02481-.02554-.02481h-.67737a.17946.17946,0,1,1,0-.35843Z"/>
          <path class="cls-3" d="M14.9996,26.1654v-2.574a.16037.16037,0,0,1,.17186-.17265h.91889a.82973.82973,0,0,1,.92663.84533.77767.77767,0,0,1-.55582.78888l.52563,1.035a.21664.21664,0,0,1,.02555.10376.17791.17791,0,0,1-.185.18115.20951.20951,0,0,1-.18579-.12077l-.5775-1.14262h-.65492c-.017,0-.02631.00775-.02631.02551V26.1654a.19221.19221,0,1,1-.3832,0m1.63806-1.90131c0-.30655-.20282-.4869-.54344-.4869h-.68511c-.017,0-.02631.00775-.02631.02556v.92273a.02313.02313,0,0,0,.02631.02556h.68511c.34062,0,.54344-.18035.54344-.487"/>
          <path class="cls-3" d="M17.91784,23.60421a.19215.19215,0,1,1,.38319,0v2.56086a.1922.1922,0,1,1-.38319,0Z"/>
          <path class="cls-3" d="M19.28418,23.59122a.16132.16132,0,0,1,.17263-.1726h1.50878a.17955.17955,0,1,1,0,.35843H19.6937a.02256.02256,0,0,0-.02555.02551v.8624a.02312.02312,0,0,0,.02555.02631h1.06055a.17919.17919,0,1,1,0,.35768H19.6937a.02257.02257,0,0,0-.02555.02551v.89259a.02229.02229,0,0,0,.02555.02556h1.27189a.17953.17953,0,1,1,0,.35839H19.45681a.161.161,0,0,1-.17263-.17261Z"/>
        </g>
      </g>
    </g>
  </g>
</svg>
