<svg xmlns="http://www.w3.org/2000/svg" xmlns:xlink="http://www.w3.org/1999/xlink" viewBox="0 0 128.5692 43.1687">
  <defs>
    <style>
      .cls-1 {
        fill: none;
      }

      .cls-2 {
        clip-path: url(#clip-path);
      }
    </style>
    <clipPath id="clip-path" transform="translate(-0.00041)">
      <rect class="cls-1" y="0.00034" width="128.57036" height="43.16802"/>
    </clipPath>
  </defs>
  <title>logo_vd_black</title>
  <g id="Layer_2" data-name="Layer 2">
    <g id="Layer_1-2" data-name="Layer 1">
      <g class="cls-2">
        <path d="M41.076,12.97015A3.31336,3.31336,0,0,1,37.7045,10.6187a7.67684,7.67684,0,0,1-.28-2.31167,7.87538,7.87538,0,0,1,.28-2.33108A3.31414,3.31414,0,0,1,41.076,3.62353,3.27916,3.27916,0,0,1,43.9968,5.14605a.63967.63967,0,0,1,.08716.3459.53751.53751,0,0,1-.54243.54337.64235.64235,0,0,1-.54522-.3218,2.1667,2.1667,0,0,0-1.92033-.93,2.12407,2.12407,0,0,0-2.20222,1.56615A6.03545,6.03545,0,0,0,38.64009,8.307a5.9556,5.9556,0,0,0,.23274,1.9352,2.12256,2.12256,0,0,0,2.20315,1.568,2.17014,2.17014,0,0,0,1.92311-.93093.63219.63219,0,0,1,.54244-.31993.53748.53748,0,0,1,.54243.54337.631.631,0,0,1-.08809.34681A3.277,3.277,0,0,1,41.076,12.97015" transform="translate(-0.00041)"/>
        <path d="M48.04887,12.97061c-1.88417,0-3.10071-1.05889-3.10071-2.6955,0-1.75064,1.2184-2.714,3.43081-2.714h2.24487l.00835-.63426c0-1.53457-.63146-2.16141-2.18-2.16141a4.05408,4.05408,0,0,0-1.95279.53872.76333.76333,0,0,1-.40057.12338.53745.53745,0,0,1-.56284-.561.63857.63857,0,0,1,.23831-.48123,4.68644,4.68644,0,0,1,2.73259-.76035c2.24209,0,3.28432,1.02556,3.28432,3.22867V10.404a1.65317,1.65317,0,0,0,.1734.89295l.34771.66023a.76373.76373,0,0,1,.08716.32265.57233.57233,0,0,1-.61755.57863.6245.6245,0,0,1-.56562-.36068l-.36719-.60738a3.50887,3.50887,0,0,1-2.80029,1.08023m.47661-4.30522c-1.669,0-2.38117.48219-2.38117,1.60972,0,1.28334,1.12475,1.55313,2.06961,1.55313,1.491,0,2.41827-.70749,2.41827-1.84708V8.67467Z" transform="translate(-0.00041)"/>
        <path d="M60.26194,12.85877a.57265.57265,0,0,1-.59808-.6342V7.31385c0-1.70243-.71769-2.53046-2.1985-2.53046a2.2176,2.2176,0,0,0-2.28937,2.346v5.09522a.5991.5991,0,1,1-1.19615,0V4.36985a.59921.59921,0,1,1,1.19615,0v.31433a3.04777,3.04777,0,0,1,2.51-1.05985c1.9871,0,3.174,1.28979,3.174,3.44939v5.15085a.57219.57219,0,0,1-.59807.6342" transform="translate(-0.00041)"/>
        <path d="M65.85315,12.84134h-.2383c-1.68759,0-2.345-.68892-2.345-2.4553V4.9032L62.542,4.89488a.54444.54444,0,1,1,0-1.08673h.71769l.0102-2.2523a.59921.59921,0,1,1,1.19615,0v2.243l1.40571.00929a.54449.54449,0,1,1,0,1.08673H64.47433l-.00834,5.454c0,1.05895.28466,1.33247,1.38716,1.33247a.58107.58107,0,1,1,0,1.16" transform="translate(-0.00041)"/>
        <path d="M70.89284,12.97038a3.33526,3.33526,0,0,1-3.37148-2.35061,7.43825,7.43825,0,0,1-.29857-2.33108,7.36116,7.36116,0,0,1,.29857-2.31257,3.60616,3.60616,0,0,1,6.76242,0,7.38811,7.38811,0,0,1,.29857,2.31257,7.44948,7.44948,0,0,1-.29857,2.32927,3.34917,3.34917,0,0,1-3.39094,2.35242m0-8.18671a2.21209,2.21209,0,0,0-2.22077,1.56705,5.87673,5.87673,0,0,0-.23366,1.938,5.92735,5.92735,0,0,0,.23366,1.95371,2.37027,2.37027,0,0,0,4.46007,0,5.91973,5.91973,0,0,0,.23459-1.95371,5.86908,5.86908,0,0,0-.23459-1.938,2.19723,2.19723,0,0,0-2.2393-1.567" transform="translate(-0.00041)"/>
        <path d="M82.53685,12.85877a.57265.57265,0,0,1-.59808-.6342V7.31385c0-1.70243-.71955-2.53046-2.19944-2.53046A2.21812,2.21812,0,0,0,77.45,7.12935v5.09522a.59867.59867,0,1,1-1.19522,0V4.36985a.59877.59877,0,1,1,1.19522,0v.31433A3.05026,3.05026,0,0,1,79.96,3.62433c1.988,0,3.174,1.28979,3.174,3.44939v5.15085a.572.572,0,0,1-.59714.6342" transform="translate(-0.00041)"/>
        <path d="M91.38974,12.97038a3.0857,3.0857,0,0,1-3.11462-2.24025A7.76968,7.76968,0,0,1,87.958,8.28869a7.79826,7.79826,0,0,1,.31619-2.422,3.08582,3.08582,0,0,1,3.11556-2.243,2.919,2.919,0,0,1,2.54714,1.07281V.63612a.59878.59878,0,1,1,1.19522,0V12.22486a.59872.59872,0,1,1-1.19522,0v-.32729a2.92,2.92,0,0,1-2.54714,1.07281m.165-8.18671A2.11339,2.11339,0,0,0,89.40636,6.297a6.19418,6.19418,0,0,0-.23367,1.99173,6.19619,6.19619,0,0,0,.23367,2.00934,2.11187,2.11187,0,0,0,2.14843,1.51142,2.08671,2.08671,0,0,0,2.166-1.45669,7.58773,7.58773,0,0,0,.216-2.06407,7.63272,7.63272,0,0,0-.217-2.04923,2.08722,2.08722,0,0,0-2.16512-1.45579" transform="translate(-0.00041)"/>
        <path d="M100.53065,12.97134A3.31941,3.31941,0,0,1,97.085,10.60127a7.04759,7.04759,0,0,1-.281-2.31258,7.19755,7.19755,0,0,1,.281-2.31251,3.5518,3.5518,0,0,1,6.68638,0,6.66876,6.66876,0,0,1,.28189,2.128.53791.53791,0,0,1-.56284.561H98.028a4.13575,4.13575,0,0,0,.16969,1.505,2.30564,2.30564,0,0,0,2.38674,1.63932,2.94661,2.94661,0,0,0,2.30142-.96245.63935.63935,0,0,1,.44045-.21421.523.523,0,0,1,.54337.5248.622.622,0,0,1-.13353.395,3.96715,3.96715,0,0,1-3.20549,1.41871m-.11127-8.22474a2.188,2.188,0,0,0-2.23931,1.58658,3.926,3.926,0,0,0-.16042,1.21927l4.80965.00838a3.7334,3.7334,0,0,0-.15115-1.22765,2.20146,2.20146,0,0,0-2.25877-1.58658" transform="translate(-0.00041)"/>
        <path d="M46.1241,41.10917,37.78165,19.40695a2.31783,2.31783,0,0,1-.15949-.791,1.34435,1.34435,0,0,1,1.4261-1.37418A1.42632,1.42632,0,0,1,40.42152,18.298L48.02495,38.1513h.05193L55.52268,18.298A1.42354,1.42354,0,0,1,56.895,17.24181,1.34436,1.34436,0,0,1,58.32112,18.616a2.33413,2.33413,0,0,1-.15764.791L49.821,41.10917c-.47568,1.3195-.95136,1.74232-1.84987,1.74232-.89757,0-1.37325-.42282-1.84707-1.74232" transform="translate(-0.00041)"/>
        <path d="M80.42328,41.479a1.36107,1.36107,0,0,1-1.479,1.37231,1.50052,1.50052,0,0,1-1.37232-.89759l-1.21377-2.00657h-.10664c-1.848,2.06039-4.066,3.22126-8.02625,3.22126-4.856,0-8.60579-2.63986-8.60579-7.44577,0-4.96262,3.4846-7.49773,9.55622-7.49773h6.44252a.27963.27963,0,0,0,.31712-.31619V26.11264c0-4.17075-1.58467-6.49442-6.5473-6.49442a11.88493,11.88493,0,0,0-5.75543,1.58466,1.87393,1.87393,0,0,1-1.00329.31619,1.2457,1.2457,0,0,1-1.31947-1.32041,1.56022,1.56022,0,0,1,.57953-1.16093,12.984,12.984,0,0,1,7.65536-2.11228c6.232,0,9.13618,2.79844,9.13618,8.97581V36.09261a5.03491,5.03491,0,0,0,.5276,2.69272l1.00329,1.90085a1.95962,1.95962,0,0,1,.21141.79283M75.9354,34.87882V31.12908a.28.28,0,0,0-.31712-.31619H69.59951c-5.01641,0-7.12868,1.53088-7.12868,4.90976,0,3.1165,2.16605,4.75214,6.23018,4.75214,4.33025,0,7.23439-2.11132,7.23439-5.596" transform="translate(-0.00041)"/>
        <path d="M101.11928,41.32049V39.57732h-.0538c-1.42425,2.2708-3.80079,3.59121-7.33823,3.59121-5.54587,0-8.71243-3.48555-8.71243-9.61v-14.784a1.42939,1.42939,0,1,1,2.85129,0v14.0969c0,5.01735,2.11135,7.55058,6.49445,7.55058,3.80265,0,6.75872-2.69176,6.75872-7.022V18.77451a1.42981,1.42981,0,1,1,2.8522,0v22.546a1.42969,1.42969,0,1,1-2.8522,0" transform="translate(-0.00041)"/>
        <path d="M125.71833,41.32066V39.47177h-.05193c-1.21377,2.16418-3.43268,3.69693-7.55058,3.69693a8.606,8.606,0,0,1-8.6605-6.23017,22.01646,22.01646,0,0,1-.89665-6.9182,21.87905,21.87905,0,0,1,.89665-6.86443,8.60388,8.60388,0,0,1,8.6605-6.23017c4.1179,0,6.33681,1.53089,7.55058,3.69694h.05193V8.05473a1.42926,1.42926,0,1,1,2.85128,0V41.32066a1.42926,1.42926,0,1,1-2.85128,0M125.085,36.04a22.20348,22.20348,0,0,0,.63331-6.01965,22.04592,22.04592,0,0,0-.63331-5.96683c-1.00236-2.95612-3.326-4.38219-6.49352-4.38219A6.37054,6.37054,0,0,0,112.149,24.212a18.21842,18.21842,0,0,0-.68617,5.80831,18.36051,18.36051,0,0,0,.68617,5.86112,6.37054,6.37054,0,0,0,6.44252,4.54071c3.16748,0,5.49116-1.42517,6.49352-4.38218" transform="translate(-0.00041)"/>
        <path d="M34.04372,3.73112a.56333.56333,0,0,0-.56283-.549H.57935a.56379.56379,0,0,0-.56285.548C.01558,3.746-.02615,5.32687.02856,7.62274a82.77417,82.77417,0,0,0,.59807,8.42775,33.27418,33.27418,0,0,0,.66762,3.64414H1.28313l.18359.70466a35.94,35.94,0,0,0,3.28988,8.247,52.01451,52.01451,0,0,0,8.33781,11.024l.64073.67506c.6092.64258,1.13495,1.19891,1.58188,1.61341a2.94421,2.94421,0,0,0,1.695.98842l.03709.00278.038-.00278a2.86627,2.86627,0,0,0,1.67646-.98939c.37554-.35236.80578-.80206,1.30557-1.32222.28281-.29582.59065-.61666.931-.96528a52.74039,52.74039,0,0,0,8.323-11.02312,36.07424,36.07424,0,0,0,3.30657-8.246l.00093-.00367.18359-.70285h-.01205a33.76414,33.76414,0,0,0,.675-3.645c.30321-2.4934.49238-5.32891.56192-8.42871.04636-2.29492.00556-3.874.00463-3.88976M14.553,39.57018l-.64536-.67879A50.9293,50.9293,0,0,1,5.745,28.10472a35.355,35.355,0,0,1-2.12618-4.63528L16.91374,41.76866a3.57707,3.57707,0,0,1-.828-.63425c-.42282-.3913-.93652-.93467-1.53274-1.56423m3.43731,1.56887c-.1567.14929-.28931.26333-.40428.357L2.87428,21.24679c-.04172-.14182-.08623-.2828-.1261-.42559H4.63142L18.80255,40.3268c-.2995.31065-.573.58694-.81227.81225m1.30834-1.32783L5.50118,20.8212H7.56709L20.47252,38.58447c-.09551.10108-.18545.20126-.28281.30324-.32268.33012-.61754.63793-.89109.92351m8.82184-18.99,2.20221,3.03116q-.35328.9069-.75848,1.79886l-3.50964-4.83Zm-2.93566,0L29.22389,26.381q-.40475.84-.85678,1.6653L23.11889,20.8212Zm-2.9366,0,5.736,7.89553q-.44508.77753-.9356,1.555L20.18229,20.8212Zm-2.93566,0,7.32989,10.09033c-.3199.48587-.65649.9736-1.00421,1.46133L17.2457,20.8212Zm-2.9366,0L25.20149,32.97q-.50907.69264-1.058,1.3872L14.31,20.8212Zm-2.93566,0L23.69007,34.9293q-.53549.65928-1.10528,1.32223L11.37344,20.8212Zm-2.9366,0L22.10726,36.793q-.55635.63008-1.14515,1.26665L8.43777,20.8212Zm20.11571,2.24115L28.99207,20.8212h2.35522c-.2142.752-.45992,1.49936-.7279,2.24115M32.91248,7.59677c-.06862,3.06177-.25406,5.85931-.55356,8.31371a32.20488,32.20488,0,0,1-.71214,3.78415H2.4496a32.18414,32.18414,0,0,1-.70563-3.786,81.97669,81.97669,0,0,1-.58973-8.3128c-.03431-1.47061-.02967-2.64173-.02133-3.28617H32.92732c.00834.64444.01483,1.81465-.01484,3.28708" transform="translate(-0.00041)"/>
        <path d="M6.99265,6.85985a.223.223,0,0,1,.22718-.24755.22613.22613,0,0,1,.23274.24755v2.83a.0267.0267,0,0,0,.0306.03062H9.00663a.21506.21506,0,1,1,0,.42933H7.21519a.20784.20784,0,0,1-.22254-.22718Z" transform="translate(-0.00041)"/>
        <path d="M10.08058,6.85985a.23058.23058,0,1,1,.45991,0V9.92813a.23058.23058,0,1,1-.45991,0Z" transform="translate(-0.00041)"/>
        <path d="M11.71763,6.84394a.19258.19258,0,0,1,.20678-.20589h1.08952c.70192,0,1.05891.36074,1.05891.91893a.74792.74792,0,0,1-.47568.76963V8.3368a.80574.80574,0,0,1,.53688.81134c0,.66114-.42282,1.00145-1.13588,1.00145H11.92441a.18988.18988,0,0,1-.20678-.2059Zm1.28609,1.31294a.55358.55358,0,1,0,0-1.10059h-.79557a.027.027,0,0,0-.0306.03056V8.12536a.0277.0277,0,0,0,.0306.03152Zm-.79557,1.57447h.82061c.41819,0,.64629-.22717.64629-.57857a.56657.56657,0,0,0-.64629-.57862h-.82061a.02772.02772,0,0,0-.0306.03152V9.70079a.027.027,0,0,0,.0306.03056" transform="translate(-0.00041)"/>
        <path d="M15.14613,6.84428a.19228.19228,0,0,1,.20585-.20583h1.80813a.21463.21463,0,1,1,0,.42842H15.63665a.0277.0277,0,0,0-.03153.03056v1.033c0,.02133.01113.03062.03153.03062H16.907a.21506.21506,0,1,1,0,.42932H15.63665a.028.028,0,0,0-.03153.03153V9.69a.02774.02774,0,0,0,.03153.03061h1.52346a.215.215,0,1,1,0,.42927H15.352a.19253.19253,0,0,1-.20585-.20674Z" transform="translate(-0.00041)"/>
        <path d="M18.36331,9.92751V6.8444a.19208.19208,0,0,1,.20585-.2068h1.10065a.99386.99386,0,0,1,1.10991,1.01254.93146.93146,0,0,1-.66577.9449l.62961,1.23971a.25174.25174,0,0,1,.03059.12428.2131.2131,0,0,1-.22161.217.248.248,0,0,1-.22161-.14562l-.69265-1.36767h-.78446c-.02132,0-.03152.01019-.03152.03056V9.92751a.23022.23022,0,1,1-.459,0m1.96206-2.27737c0-.36719-.24294-.58321-.65093-.58321h-.82062c-.02132,0-.03152.01018-.03152.03061V8.20278c0,.02043.0102.03062.03152.03062h.82062c.408,0,.65093-.216.65093-.58326" transform="translate(-0.00041)"/>
        <path d="M23.85744,6.638a.21458.21458,0,1,1,0,.42842H23.0461a.02743.02743,0,0,0-.03061.03062V9.9279a.23058.23058,0,1,1-.45991,0V7.097a.02669.02669,0,0,0-.0306-.03062h-.81041a.21458.21458,0,1,1,0-.42842Z" transform="translate(-0.00041)"/>
        <path d="M24.916,6.84411a.19182.19182,0,0,1,.20585-.20583H26.93a.21455.21455,0,1,1,0,.42836H25.4065c-.02133,0-.03153.01019-.03153.03062v1.033a.02764.02764,0,0,0,.03153.03152h1.27033a.21456.21456,0,1,1,0,.42837H25.4065a.02762.02762,0,0,0-.03153.03152V9.68987c0,.02128.0102.03056.03153.03056H26.93a.215.215,0,1,1,0,.42933H25.12183A.19209.19209,0,0,1,24.916,9.943Zm1.30094-1.29075a.17557.17557,0,0,1,.13908-.06673.16954.16954,0,0,1,.17618.16967.20865.20865,0,0,1-.05193.13447l-.35606.3922a.19827.19827,0,0,1-.15485.07788.166.166,0,0,1-.16506-.165.20631.20631,0,0,1,.05657-.13906Z" transform="translate(-0.00041)"/>
        <path d="M15.14613,11.29738a.13075.13075,0,0,1,.14-.14092h1.25921a.15955.15955,0,0,1,0,.319H15.50683a.01874.01874,0,0,0-.02133.02134v.61105c0,.01392.00742.02043.02133.02043h.866a.15955.15955,0,0,1,0,.319h-.866a.01909.01909,0,0,0-.02133.02128v.63612c0,.01392.00742.02038.02133.02038h1.03852a.15955.15955,0,0,1,0,.319H15.28614a.13071.13071,0,0,1-.14-.14092Z" transform="translate(-0.00041)"/>
        <path d="M18.8822,11.1568a.15931.15931,0,1,1,0,.31806h-.55264c-.01391,0-.02041.00742-.02041.02134v1.78307a.17058.17058,0,1,1-.34029,0V11.4962a.01911.01911,0,0,0-.02133-.02134h-.55264a.15931.15931,0,1,1,0-.31806Z" transform="translate(-0.00041)"/>
        <path d="M8.8108,14.64315a.19209.19209,0,0,1,.20585-.2068h1.08488a1.05136,1.05136,0,1,1,0,2.09746H9.30132c-.02133,0-.03153.01019-.03153.03056v1.16189a.23022.23022,0,1,1-.459,0Zm1.96206.8419a.60342.60342,0,0,0-.68709-.61937H9.30132c-.02133,0-.03153.00928-.03153.03062v1.17756c0,.02044.0102.03062.03153.03062h.78445a.60344.60344,0,0,0,.68709-.61943" transform="translate(-0.00041)"/>
        <path d="M11.599,17.65857l1.07932-2.98944c.05656-.16509.14465-.2587.2995-.2587a.321.321,0,0,1,.3097.2587l1.06356,2.98944a.34525.34525,0,0,1,.02132.10386.20825.20825,0,0,1-.217.21234.22537.22537,0,0,1-.22254-.166l-.23738-.67688H12.2546l-.23738.67688a.22537.22537,0,0,1-.22254.166.20825.20825,0,0,1-.217-.21234.319.319,0,0,1,.02132-.10386m1.9463-.94954-.55728-1.59575h-.01576L12.40388,16.709Z" transform="translate(-0.00041)"/>
        <path d="M16.90735,14.43658a.215.215,0,1,1,0,.42933h-.81042c-.02133,0-.03153.00928-.03153.02971v2.83087a.23058.23058,0,1,1-.45991,0V14.89562c0-.02043-.0102-.02971-.0306-.02971h-.81134a.215.215,0,1,1,0-.42933Z" transform="translate(-0.00041)"/>
        <path d="M17.96579,17.72626V14.64315a.19209.19209,0,0,1,.20585-.2068h1.10065a.99387.99387,0,0,1,1.10992,1.01254.93147.93147,0,0,1-.66577.9449l.6296,1.23971a.25961.25961,0,0,1,.0306.12428.2131.2131,0,0,1-.22161.217.25094.25094,0,0,1-.22254-.14466l-.69173-1.36863h-.78445c-.0204,0-.03152.00928-.03152.03056v1.23422a.23023.23023,0,1,1-.459,0m1.96207-2.27737c0-.36719-.24294-.58321-.65094-.58321h-.82061c-.0204,0-.03152.00928-.03152.03062v1.10524a.0277.0277,0,0,0,.03152.03061h.82061c.408,0,.65094-.216.65094-.58326" transform="translate(-0.00041)"/>
        <path d="M21.46125,14.65849a.23015.23015,0,1,1,.459,0v3.06737a.23022.23022,0,1,1-.459,0Z" transform="translate(-0.00041)"/>
        <path d="M23.09784,14.64292a.19323.19323,0,0,1,.20678-.20674h1.8072a.21506.21506,0,1,1,0,.42933H23.58835a.027.027,0,0,0-.0306.03056v1.033a.0277.0277,0,0,0,.0306.03152h1.27033a.21463.21463,0,1,1,0,.42842H23.58835a.027.027,0,0,0-.0306.03057v1.06913a.02669.02669,0,0,0,.0306.03061h1.52347a.215.215,0,1,1,0,.42928h-1.8072a.19279.19279,0,0,1-.20678-.20675Z" transform="translate(-0.00041)"/>
      </g>
    </g>
  </g>
</svg>
