<svg xmlns="http://www.w3.org/2000/svg" viewBox="0 0 157.64432 34.20587">
  <defs>
    <style>
      .cls-1 {
        fill: #fff;
      }
    </style>
  </defs>
  <title>logo_swissnex_white</title>
  <g id="Layer_2" data-name="Layer 2">
    <g id="Layer_1-2" data-name="Layer 1">
      <g>
        <path class="cls-1" d="M5.67581,26.512a1.88169,1.88169,0,0,0-.55417-.72515,2.29,2.29,0,0,0-.85667-.41562,4.3383,4.3383,0,0,0-1.10044-.13064,3.32465,3.32465,0,0,0-1.38629.23674,2.08469,2.08469,0,0,0-.75059.53661,1.45683,1.45683,0,0,0-.30952.59449,2.21964,2.21964,0,0,0-.06576.40688,1.5619,1.5619,0,0,0,.25253.954,1.62487,1.62487,0,0,0,.67779.51206,7.30716,7.30716,0,0,0,.95488.30954q.51429.13019,1.19952.30951.48929.12889.97065.26833a3.24074,3.24074,0,0,1,.86459.38229,1.98988,1.98988,0,0,1,.62.619,1.80258,1.80258,0,0,1,.23673.97681,2.01982,2.01982,0,0,1-.2692,1.07415,2.19675,2.19675,0,0,1-.70057.71638,3.05033,3.05033,0,0,1-.97945.399,4.96011,4.96011,0,0,1-1.08553.12188,3.81473,3.81473,0,0,1-2.5376-.73218A2.8814,2.8814,0,0,1,0,30.61387H.32619a2.55011,2.55011,0,0,0,.79266,2.07636,3.46146,3.46146,0,0,0,2.27541.6594,4.29417,4.29417,0,0,0,.9391-.107,2.82791,2.82791,0,0,0,.87246-.342,2.01349,2.01349,0,0,0,.64451-.6103,1.59005,1.59005,0,0,0,.25253-.911,1.468,1.468,0,0,0-.25253-.89525,1.986,1.986,0,0,0-.65242-.56207,3.84074,3.84074,0,0,0-.92242-.34986q-.52216-.13024-1.061-.26044c-.4016-.09908-.75586-.19028-1.06011-.278a6.00946,6.00946,0,0,1-.81635-.29114A1.61484,1.61484,0,0,1,.5717,28.107,2.11253,2.11253,0,0,1,.32619,27.0153a1.94852,1.94852,0,0,1,.14731-.71552,1.82766,1.82766,0,0,1,.48927-.68392,2.61969,2.61969,0,0,1,.88034-.50506,3.912,3.912,0,0,1,1.32142-.19642,3.51887,3.51887,0,0,1,2.21755.6357,2.42168,2.42168,0,0,1,.81545,2.036h-.3262A2.6245,2.6245,0,0,0,5.67581,26.512Z"/>
        <path class="cls-1" d="M13.53668,28.5603a1.0214,1.0214,0,0,1-.50506.35071,4.22673,4.22673,0,0,1-.78035.18767,8.36956,8.36956,0,0,1-.95316.08156q-.51292.01578-1.00222.04823a7.47955,7.47955,0,0,0-.95225.12274,2.25947,2.25947,0,0,0-.82161.32445,1.66176,1.66176,0,0,0-.56994.65235,2.38887,2.38887,0,0,0-.21221,1.08291,2.14447,2.14447,0,0,0,.12279.70936,1.50736,1.50736,0,0,0,.41472.61907,2.2901,2.2901,0,0,0,.7567.43928,3.32857,3.32857,0,0,0,1.14868.171,3.58074,3.58074,0,0,0,1.44854-.2771,3.267,3.267,0,0,0,1.06715-.72516,2.98475,2.98475,0,0,0,.65146-1.03378,3.41114,3.41114,0,0,0,.21922-1.20654V28.5603ZM8.18447,26.60142a2.50769,2.50769,0,0,1,.61024-.88823,2.83147,2.83147,0,0,1,.97506-.5866,3.97677,3.97677,0,0,1,1.36-.21221,4.64794,4.64794,0,0,1,1.04873.11487,2.25462,2.25462,0,0,1,.87068.39894,2.08257,2.08257,0,0,1,.60239.74183,2.69206,2.69206,0,0,1,.24379,1.13813v5.32421a.54351.54351,0,0,0,.09818.35952.47615.47615,0,0,0,.26042.15428,1.18931,1.18931,0,0,0,.34986.03247c.1254-.00525.242-.01315.35072-.02366v.32441h-.48836a1.14113,1.14113,0,0,1-.62784-.17011.70234.70234,0,0,1-.26919-.6436V31.57486h-.03246a2.581,2.581,0,0,1-.41558.78216,2.99318,2.99318,0,0,1-.71638.66641,3.66,3.66,0,0,1-.98471.46474,4.07034,4.07034,0,0,1-1.2048.17011,3.35946,3.35946,0,0,1-2.036-.56118,1.95631,1.95631,0,0,1-.76549-1.68529,2.66665,2.66665,0,0,1,.25253-1.2539,1.98725,1.98725,0,0,1,.66027-.74094,2.59519,2.59519,0,0,1,.9277-.37442,7.85565,7.85565,0,0,1,1.04167-.13854c.57609-.03331,1.06974-.06138,1.48188-.08943a4.6426,4.6426,0,0,0,1.018-.16135,1.11393,1.11393,0,0,0,.58659-.37527,1.20439,1.20439,0,0,0,.18676-.72429,5.00163,5.00163,0,0,0-.06488-.78215,1.69689,1.69689,0,0,0-.31654-.74879,1.8345,1.8345,0,0,0-.74094-.56207,3.26032,3.26032,0,0,0-1.31787-.22008,3.004,3.004,0,0,0-2.04921.64359A2.53938,2.53938,0,0,0,8.266,27.69923h-.3262a3.34134,3.34134,0,0,1,.24468-1.09781Z"/>
        <path class="cls-1" d="M16.10936,25.109v2.06935h.03156a2.96841,2.96841,0,0,1,.36652-.89612,2.8256,2.8256,0,0,1,1.524-1.196,3.46924,3.46924,0,0,1,1.12411-.17185,3.538,3.538,0,0,1,1.19773.19466,2.64656,2.64656,0,0,1,.94525.57873,2.611,2.611,0,0,1,.61906.94521,3.51952,3.51952,0,0,1,.221,1.29511v5.55129h-.3262V27.97631a3.24178,3.24178,0,0,0-.21218-1.24511,2.32476,2.32476,0,0,0-.57873-.847,2.24805,2.24805,0,0,0-.847-.48754,3.26976,3.26976,0,0,0-1.01888-.156,2.90077,2.90077,0,0,0-1.31968.28584,2.80965,2.80965,0,0,0-.9531.76459,3.38928,3.38928,0,0,0-.57873,1.11536,4.5307,4.5307,0,0,0-.19466,1.33628v4.73673h-.32615V25.109Z"/>
        <path class="cls-1" d="M27.56092,25.10554h1.417V23.251a1.60224,1.60224,0,0,1,.15605-.78125,1.03267,1.03267,0,0,1,.399-.41389,1.3648,1.3648,0,0,1,.53752-.17185,4.9579,4.9579,0,0,1,.55328-.03245,2.668,2.668,0,0,1,.399.02544c.114.01576.21482.02807.3016.03857v.32621c-.15256-.02106-.28759-.03687-.40684-.04736-.12013-.01051-.24027-.01576-.35862-.01576a1.32461,1.32461,0,0,0-1.018.28408,1.40562,1.40562,0,0,0-.23678.90314v1.73966h1.80808v.3244H29.30407v8.04944h-.32615V25.42994h-1.417v-.3244Z"/>
        <path class="cls-1" d="M31.77416,33.47938V25.109h.32621v2.06935h.03241a3.231,3.231,0,0,1,.35863-.88738,2.46615,2.46615,0,0,1,.6515-.72427,3.2024,3.2024,0,0,1,.96891-.48926,4.045,4.045,0,0,1,1.31087-.1631v.3262a3.134,3.134,0,0,0-1.48973.23674,2.81809,2.81809,0,0,0-1.03468.78214,3.26419,3.26419,0,0,0-.6024,1.14691,4.61579,4.61579,0,0,0-.19551,1.33628v4.73673Z"/>
        <path class="cls-1" d="M41.57726,28.5603a1.015,1.015,0,0,1-.50417.35071,4.23062,4.23062,0,0,1-.78214.18767,8.33488,8.33488,0,0,1-.95226.08156q-.51294.01578-1.00136.04823a7.43891,7.43891,0,0,0-.95226.12274,2.2641,2.2641,0,0,0-.82247.32445,1.66166,1.66166,0,0,0-.56993.65235,2.38887,2.38887,0,0,0-.21222,1.08291,2.14472,2.14472,0,0,0,.12279.70936,1.51524,1.51524,0,0,0,.41473.61907,2.2901,2.2901,0,0,0,.7567.43928,3.33188,3.33188,0,0,0,1.14867.171,3.58791,3.58791,0,0,0,1.44941-.2771,3.27208,3.27208,0,0,0,1.06624-.72516,2.98473,2.98473,0,0,0,.65151-1.03378,3.43109,3.43109,0,0,0,.21921-1.20654V28.5603ZM36.225,26.60142a2.53,2.53,0,0,1,.61025-.88823,2.83458,2.83458,0,0,1,.976-.5866,3.96753,3.96753,0,0,1,1.35908-.21221,4.66674,4.66674,0,0,1,1.04959.11487,2.25662,2.25662,0,0,1,.86983.39894,2.08278,2.08278,0,0,1,.60239.74183,2.66668,2.66668,0,0,1,.24378,1.13813v5.32421a.54869.54869,0,0,0,.09818.35952.48253.48253,0,0,0,.26043.15428,1.19512,1.19512,0,0,0,.35072.03247q.18681-.00787.34986-.02366v.32441h-.4884a1.14515,1.14515,0,0,1-.62781-.17011.70234.70234,0,0,1-.26919-.6436V31.57486h-.03245a2.61613,2.61613,0,0,1-.41474.78216,3.02518,3.02518,0,0,1-.71638.66641,3.67757,3.67757,0,0,1-.98556.46474,4.06623,4.06623,0,0,1-1.20479.17011,3.35672,3.35672,0,0,1-2.03515-.56118,1.957,1.957,0,0,1-.76635-1.68529,2.66665,2.66665,0,0,1,.25253-1.2539,2.00067,2.00067,0,0,1,.65937-.74094,2.61314,2.61314,0,0,1,.9286-.37442,7.84867,7.84867,0,0,1,1.04254-.13854c.57523-.03331,1.06888-.06138,1.48186-.08943a4.6329,4.6329,0,0,0,1.01713-.16135A1.1105,1.1105,0,0,0,41.423,28.278a1.20439,1.20439,0,0,0,.18675-.72429,4.90314,4.90314,0,0,0-.06486-.78215,1.68848,1.68848,0,0,0-.31745-.74879,1.81908,1.81908,0,0,0-.74-.56207,3.26146,3.26146,0,0,0-1.317-.22008,3.00487,3.00487,0,0,0-2.05.64359,2.53939,2.53939,0,0,0-.81372,1.81506h-.32619a3.34158,3.34158,0,0,1,.24467-1.09781Z"/>
        <path class="cls-1" d="M44.14993,25.109v2.06935h.03156a2.99232,2.99232,0,0,1,.36742-.89612,2.82156,2.82156,0,0,1,1.523-1.196,3.4712,3.4712,0,0,1,1.12505-.17185,3.5423,3.5423,0,0,1,1.19779.19466,2.66034,2.66034,0,0,1,.945.57873,2.63189,2.63189,0,0,1,.61909.94521,3.53956,3.53956,0,0,1,.22,1.29511v5.55129H49.853V27.97631a3.27178,3.27178,0,0,0-.21146-1.24511,2.34314,2.34314,0,0,0-.57869-.847,2.269,2.269,0,0,0-.84715-.48754,3.27435,3.27435,0,0,0-1.01866-.156,2.903,2.903,0,0,0-1.32034.28584,2.801,2.801,0,0,0-.95266.76459,3.37656,3.37656,0,0,0-.57856,1.11536,4.50357,4.50357,0,0,0-.19551,1.33628v4.73673h-.3262V25.109Z"/>
        <path class="cls-1" d="M58.369,31.89232a3.0096,3.0096,0,0,1-.72551.95225,3.20335,3.20335,0,0,1-1.04154.60239,3.89508,3.89508,0,0,1-1.31182.21132,3.62143,3.62143,0,0,1-1.58791-.33321,3.43724,3.43724,0,0,1-1.16546-.904,3.95883,3.95883,0,0,1-.71607-1.32668,5.25816,5.25816,0,0,1-.24377-1.61951,6.28442,6.28442,0,0,1,.23569-1.73526A4.31374,4.31374,0,0,1,52.53,26.291a3.52257,3.52257,0,0,1,1.22157-1.00135,3.79725,3.79725,0,0,1,1.73517-.37528,3.58893,3.58893,0,0,1,1.12415.17885,3.06813,3.06813,0,0,1,.96074.52263,2.88293,2.88293,0,0,1,.70933.85492,3.236,3.236,0,0,1,.36679,1.17938h-.32638a3.06194,3.06194,0,0,0-.35871-1.06625,2.69283,2.69283,0,0,0-.6348-.74884,2.554,2.554,0,0,0-.84671-.44719,3.33085,3.33085,0,0,0-.99441-.1473,3.44024,3.44024,0,0,0-1.68624.38317,3.16387,3.16387,0,0,0-1.10754.99348,4.21641,4.21641,0,0,0-.60338,1.36783,6.20962,6.20962,0,0,0-.18676,1.48979,4.85622,4.85622,0,0,0,.21953,1.46522,3.84782,3.84782,0,0,0,.64334,1.23808,3.06864,3.06864,0,0,0,1.0586.85319,3.2407,3.2407,0,0,0,1.46581.31829A3.49265,3.49265,0,0,0,56.4457,33.162a2.90406,2.90406,0,0,0,.95355-.54536,2.83252,2.83252,0,0,0,.98543-1.9852h.32594a3.586,3.586,0,0,1-.34164,1.26092Z"/>
        <path class="cls-1" d="M60.10772,33.47938V25.10815h.32594v8.37123Zm0-9.9811V21.85245h.32594v1.64583Z"/>
        <path class="cls-1" d="M67.48971,26.512a1.87351,1.87351,0,0,0-.554-.72515,2.28977,2.28977,0,0,0-.85658-.41562,4.3418,4.3418,0,0,0-1.10082-.13064,3.32871,3.32871,0,0,0-1.38634.23674,2.07731,2.07731,0,0,0-.74927.53661,1.45807,1.45807,0,0,0-.31068.59449,2.255,2.255,0,0,0-.06465.40688,1.55581,1.55581,0,0,0,.25321.954,1.6192,1.6192,0,0,0,.6761.51206,7.33775,7.33775,0,0,0,.95491.30954q.5145.13019,1.19958.30951.48889.12889.97061.26833a3.264,3.264,0,0,1,.86557.38229,1.99669,1.99669,0,0,1,.61954.619,1.8006,1.8006,0,0,1,.237.97681,2.02571,2.02571,0,0,1-.26936,1.07415,2.21775,2.21775,0,0,1-.70124.71638,3.05122,3.05122,0,0,1-.97961.399,4.95315,4.95315,0,0,1-1.08465.12188,3.81226,3.81226,0,0,1-2.53742-.73218,2.8778,2.8778,0,0,1-.857-2.31223H62.141a2.55466,2.55466,0,0,0,.791,2.07636,3.46652,3.46652,0,0,0,2.277.6594,4.28655,4.28655,0,0,0,.93829-.107,2.826,2.826,0,0,0,.8723-.342,2.00519,2.00519,0,0,0,.64468-.6103,1.58351,1.58351,0,0,0,.25321-.911,1.46223,1.46223,0,0,0-.25321-.89525A1.98916,1.98916,0,0,0,67.012,29.922a3.84658,3.84658,0,0,0-.92258-.34986q-.52188-.13024-1.06-.26044c-.40271-.09908-.75692-.19028-1.06131-.278a5.96012,5.96012,0,0,1-.81527-.29114,1.61747,1.61747,0,0,1-.76726-.63569A2.11427,2.11427,0,0,1,62.141,27.0153a1.9444,1.9444,0,0,1,.14635-.71552,1.82813,1.82813,0,0,1,.48935-.68392,2.62876,2.62876,0,0,1,.88037-.50506,3.9115,3.9115,0,0,1,1.32124-.19642,3.52229,3.52229,0,0,1,2.21868.6357,2.4214,2.4214,0,0,1,.81529,2.036h-.32593a2.62385,2.62385,0,0,0-.19664-1.07414Z"/>
        <path class="cls-1" d="M76.16779,31.89232a3.00834,3.00834,0,0,1-.725.95225,3.21235,3.21235,0,0,1-1.04244.60239,3.88412,3.88412,0,0,1-1.31092.21132,3.62146,3.62146,0,0,1-1.58791-.33321,3.41983,3.41983,0,0,1-1.16546-.904,3.96735,3.96735,0,0,1-.71651-1.32668,5.24439,5.24439,0,0,1-.24378-1.61951,6.26755,6.26755,0,0,1,.23615-1.73526,4.31944,4.31944,0,0,1,.71606-1.44858,3.5177,3.5177,0,0,1,1.22248-1.00135,3.79983,3.79983,0,0,1,1.73517-.37528,3.59311,3.59311,0,0,1,1.12415.17885,3.06565,3.06565,0,0,1,.96119.52263,2.87386,2.87386,0,0,1,.70843.85492,3.20281,3.20281,0,0,1,.36724,1.17938h-.32594a3.07079,3.07079,0,0,0-.35871-1.06625,2.69563,2.69563,0,0,0-.6357-.74884,2.54311,2.54311,0,0,0-.84715-.44719,3.31634,3.31634,0,0,0-.99351-.1473,3.44028,3.44028,0,0,0-1.68625.38317,3.17321,3.17321,0,0,0-1.108.99348,4.19548,4.19548,0,0,0-.60249,1.36783,6.187,6.187,0,0,0-.18676,1.48979,4.8698,4.8698,0,0,0,.21909,1.46522,3.84834,3.84834,0,0,0,.64378,1.23808,3.07942,3.07942,0,0,0,1.05816.85319,3.24123,3.24123,0,0,0,1.46625.31829A3.4983,3.4983,0,0,0,74.245,33.162a2.84708,2.84708,0,0,0,1.93855-2.53056h.32637a3.61434,3.61434,0,0,1-.34209,1.26092Z"/>
        <path class="cls-1" d="M78.01116,30.82783A3.86962,3.86962,0,0,0,78.6711,32.122a3.267,3.267,0,0,0,1.08285.89614,3.19327,3.19327,0,0,0,1.49184.334,3.15594,3.15594,0,0,0,1.47389-.334,3.24482,3.24482,0,0,0,1.08285-.89614,3.83781,3.83781,0,0,0,.6604-1.29421,5.28394,5.28394,0,0,0,.22087-1.531,5.22045,5.22045,0,0,0-.22087-1.51518,3.84191,3.84191,0,0,0-.6604-1.29507,3.37448,3.37448,0,0,0-1.08285-.904,3.10609,3.10609,0,0,0-1.47389-.342,3.14252,3.14252,0,0,0-1.49184.342,3.39853,3.39853,0,0,0-1.08285.904,3.87376,3.87376,0,0,0-.65994,1.29507,5.2198,5.2198,0,0,0-.22044,1.51518,5.28337,5.28337,0,0,0,.22044,1.531Zm-.30169-3.18823a4.21637,4.21637,0,0,1,.725-1.3924,3.67666,3.67666,0,0,1,1.18117-.9698,3.48477,3.48477,0,0,1,1.63011-.36477,3.44664,3.44664,0,0,1,1.61261.36477,3.68943,3.68943,0,0,1,1.18072.9698,4.21054,4.21054,0,0,1,.72639,1.3924,5.72117,5.72117,0,0,1,0,3.30745,4.21113,4.21113,0,0,1-.72639,1.39246,3.57576,3.57576,0,0,1-1.18072.961,3.53542,3.53542,0,0,1-1.62922.35777,3.50016,3.50016,0,0,1-1.6135-.35777,3.56382,3.56382,0,0,1-1.18117-.961,4.217,4.217,0,0,1-.725-1.39246,5.71088,5.71088,0,0,1,0-3.30745Z"/>
        <path class="cls-1" d="M11.58836,5.37307c0-3.2952-2.15355-4.60258-5.25578-4.60258-4.557,0-4.87353,2.9085-4.87353,3.48019a2.728,2.728,0,0,0,1.80368,2.8752c1.13989.4463,2.43589.73564,4.17641,1.21614,2.5025.63575,5.22335,1.275,5.22335,4.40881,0,3.29165-3.06982,4.57006-5.88714,4.57006-4.27109,0-6.58244-1.88695-6.58244-6.00811H.8251c0,3.64156,2.186,5.36717,5.95025,5.36717,2.34292,0,5.25405-1.0531,5.25405-3.86425,0-2.91112-2.81556-3.35481-5.60125-4.0598A21.8894,21.8894,0,0,1,2.78836,7.63705,3.24352,3.24352,0,0,1,.8251,4.25068C.8251,2.43036,2.28155.12953,6.33258.12953c3.60906,0,5.88887,1.59847,5.88887,5.24354Z"/>
        <polygon class="cls-1" points="35.516 0.513 36.147 0.513 30.956 16.933 30.134 16.933 25.069 1.155 25.006 1.155 19.91 16.933 19.026 16.933 13.96 0.513 14.594 0.513 19.435 16.296 19.499 16.296 24.531 0.513 25.513 0.513 30.514 16.296 30.577 16.296 35.516 0.513 35.516 0.513"/>
        <polygon class="cls-1" points="38.9 16.933 38.266 16.933 38.266 0.513 38.9 0.513 38.9 16.933 38.9 16.933"/>
        <path class="cls-1" d="M53.14012,5.37307c0-3.2952-2.15179-4.60258-5.2522-4.60258-4.55785,0-4.8735,2.9085-4.8735,3.48019a2.727,2.727,0,0,0,1.80368,2.8752c1.14071.4463,2.43681.73564,4.17648,1.21614,2.4997.63575,5.22345,1.275,5.22345,4.40881,0,3.29165-3.06987,4.57006-5.88925,4.57006-4.27092,0-6.58142-1.88695-6.58142-6.00811h.6331c0,3.64156,2.18421,5.36717,5.94832,5.36717,2.34394,0,5.25579-1.0531,5.25579-3.86425,0-2.91112-2.81622-3.35481-5.60371-4.0598a21.899,21.899,0,0,1-3.63717-1.11885,3.24355,3.24355,0,0,1-1.96323-3.38637c0-1.82032,1.45467-4.12115,5.50746-4.12115,3.60636,0,5.8852,1.59847,5.8852,5.24354Z"/>
        <path class="cls-1" d="M67.63606,5.37307c0-3.2952-2.15358-4.60258-5.254-4.60258-4.55678,0-4.87327,2.9085-4.87327,3.48019a2.72579,2.72579,0,0,0,1.8043,2.8752c1.13986.4463,2.43686.73564,4.17741,1.21614,2.50062.63575,5.22256,1.275,5.22256,4.40881,0,3.29165-3.06987,4.57006-5.88744,4.57006-4.27349,0-6.58151-1.88695-6.58151-6.00811h.63211c0,3.64156,2.18277,5.36717,5.9494,5.36717,2.343,0,5.25445-1.0531,5.25445-3.86425,0-2.91112-2.81758-3.35481-5.60237-4.0598a21.7511,21.7511,0,0,1-3.6378-1.11885,3.24155,3.24155,0,0,1-1.96368-3.38637c0-1.82032,1.45593-4.12115,5.50584-4.12115,3.60906,0,5.88566,1.59847,5.88566,5.24354Z"/>
        <path class="cls-1" d="M71.68913.5127h.633V4.569H72.385A5.68712,5.68712,0,0,1,78.23876.12953c3.38819,0,5.79542,2.10969,5.79542,5.91254v10.8913h-.6357V6.13677c0-3.79848-2.40544-5.36628-5.15972-5.36628-3.89278,0-5.91662,3.22592-5.91662,6.86656v9.29632h-.633V.5127Z"/>
        <path class="cls-1" d="M100.17416,8.21227C100.2038,4.18932,97.95728.77049,93.74574.77049c-3.51164,0-6.32787,2.84186-6.55054,7.44178Zm-12.979.64011c.061,4.40787,1.80251,7.82757,6.42528,7.82757a6.00846,6.00846,0,0,0,6.36512-5.43206h.62853a6.60991,6.60991,0,0,1-6.93125,6.073c-5.03042.064-7.11846-3.70814-7.11846-8.59479,0-5.46273,3.44879-8.59657,7.11846-8.59657,5.06633,0,7.31015,4.21762,7.12071,8.72285Z"/>
        <polygon class="cls-1" points="113.938 0.513 114.701 0.513 108.749 8.437 115.266 16.933 114.477 16.933 108.336 8.917 102.229 16.933 101.438 16.933 107.959 8.437 102.04 0.513 102.863 0.513 108.336 7.958 113.938 0.513 113.938 0.513"/>
        <path class="cls-1" d="M150.61117,14.09131a6.99332,6.99332,0,0,0-4.2326,1.42554l-2.528-1.61036,1.0384-1.22955a6.14831,6.14831,0,1,0-3.34552-2.95868L140.0502,11.486l-5.25037-3.34387a6.54855,6.54855,0,1,0-2.51,3.6955l4.853,3.09045-3.35492,3.97144a7.96772,7.96772,0,1,0,3.495,2.78173l3.65979-4.33264,2.90826,1.85211a7.03045,7.03045,0,1,0,6.76019-5.10937ZM131.61008,7.5827h-2.101v2.1H127.4147v-2.1h-2.101V5.486h2.101V3.38568h2.09436V5.486h2.101Z"/>
      </g>
    </g>
  </g>
</svg>
