<svg xmlns="http://www.w3.org/2000/svg" viewBox="0 0 81.58909 59.4665">
  <defs>
    <style>
      .cls-1 {
        fill: #fff;
      }
    </style>
  </defs>
  <title>logo_wikimedia_black</title>
  <g id="Layer_2" data-name="Layer 2">
    <g id="Layer_1-2" data-name="Layer 1">
      <g id="_9NlVPv.tif" data-name="9NlVPv.tif">
        <g>
          <path d="M16.59842,59.4665a5.27631,5.27631,0,0,1-.939-.37059A2.08381,2.08381,0,0,1,16.78677,55.281a2.08411,2.08411,0,0,1,2.13566,2.74771,1.982,1.982,0,0,1-1.54577,1.38806c-.05867.01364-.116.033-.17394.04976Zm1.73424-2.08864a1.437,1.437,0,1,0-2.87263-.018,1.43718,1.43718,0,1,0,2.87263.018Z"/>
          <path d="M62.98983,59.4665a2.64189,2.64189,0,0,1-1.12021-.51728,2.14292,2.14292,0,0,1-.58425-2.31238,2.13517,2.13517,0,1,1,2.41737,2.79249.75169.75169,0,0,0-.10862.03717Zm-1.12044-2.10839A1.43924,1.43924,0,1,0,63.316,55.88745,1.45953,1.45953,0,0,0,61.86939,57.35811Z"/>
          <path d="M23.89647,59.4665c-.08-.0242-.16019-.04808-.24011-.07265a1.46744,1.46744,0,0,1-1.14129-1.3451c-.05751-.88508-.014-1.77671-.014-2.68479h.651c0,.07994,0,.16125,0,.24256,0,.65818-.00335,1.3164.0026,1.97452a2.0802,2.0802,0,0,0,.05483.48233,1.00977,1.00977,0,0,0,1.984-.21331c.02974-.71121.01424-1.42428.0204-2.13652.00365-.422-.0538-.3628.37176-.3685.09182-.00123.18367-.00018.263-.00018.022.0286.03879.04029.03871.05187-.00594.88172.03744,1.76764-.03545,2.64388A1.47813,1.47813,0,0,1,24.53754,59.43a.45545.45545,0,0,0-.08326.03648Z"/>
          <path d="M49.477,7.61917l2.99015-2.9883A17.30576,17.30576,0,0,1,57.9057,21.06716a17.48788,17.48788,0,1,1-28.891-16.42652l3.00419,3.00322a13.06345,13.06345,0,0,0-4.37912,11.32546,12.6662,12.6662,0,0,0,4.68166,8.75973A13.21758,13.21758,0,0,0,49.477,7.61917Z"/>
          <path d="M42.27205,28.21065v-.2542q0-6.45973-.00343-12.91947a.54715.54715,0,0,1,.175-.4264q2.54421-2.53284,5.08-5.07418c.054-.054.11087-.10512.16513-.15638a10.71851,10.71851,0,0,1-5.41663,18.83063Z"/>
          <path d="M33.85717,9.345a1.66212,1.66212,0,0,0,.13451.1779q2.54569,2.54834,5.09593,5.09214a.49359.49359,0,0,1,.16233.38361q-.00641,6.48369-.0034,12.96738v.25241A10.7416,10.7416,0,0,1,33.85717,9.345Z"/>
          <path d="M46.22821,5.44817A5.45029,5.45029,0,1,1,40.77806,0,5.44321,5.44321,0,0,1,46.22821,5.44817Z"/>
          <path d="M45.4585,40.35977v9.74486H43.29087V44.07656l-.04521-.00878c-.03529.06421-.0731.12718-.10549.19282q-1.19091,2.41347-2.37739,4.82912a.33418.33418,0,0,1-.36622.2325,6.39092,6.39092,0,0,0-.81266-.00078.31857.31857,0,0,1-.353-.214c-.77969-1.60728-1.56967-3.20955-2.35675-4.81323a.59863.59863,0,0,0-.14331-.20481v6.01526H34.55522V40.3771a1.60965,1.60965,0,0,1,.16778-.01653c.85969-.00113,1.71941.00284,2.579-.00429a.25735.25735,0,0,1,.27507.179q1.15,2.47143,2.31228,4.93711c.03267.06963.06814.13795.11605.2346.04692-.09288.08484-.16382.11915-.23646.76949-1.6292,1.54238-3.25682,2.30239-4.89043a.33506.33506,0,0,1,.36573-.22425C43.67443,40.36455,44.55629,40.35977,45.4585,40.35977Z"/>
          <path d="M6.01987,40.36c.72335,0,1.43523.0039,2.147-.00289.1668-.00159.15863.12331.18723.21628q.59362,1.92915,1.18071,3.86033c.14859.4863.29839.97222.467,1.52145.05934-.16167.09859-.26309.134-.36585q.86515-2.51154,1.72558-5.02468a.25723.25723,0,0,1,.29507-.209c.63512.0102,1.27049.0038,1.90577.00457.067.00008.13394.00657.22546.01138-.21377.617-.41972,1.21494-.62808,1.81208q-1.34128,3.84414-2.67969,7.68928c-.06217.17942-.13427.26-.33749.24982-.37867-.019-.75944-.01668-1.13838-.00064-.18455.00782-.24873-.06353-.30042-.2295Q8.231,46.7695,7.24439,43.6507c-.02755-.08751-.06119-.17311-.10953-.30886L5.01649,50.111H3.40161L0,40.35977H1.29265c.28665,0,.57389.011.85972-.00427.16263-.00871.22357.05152.27414.19973q.87267,2.558,1.75892,5.11137c.02684.0778.05509.15512.10528.29615Z"/>
          <path d="M56.994,50.10929V40.3748c.06643-.00537.12605-.01438.18566-.01439,1.16927-.00027,2.33866-.00942,3.50778.00426a6.32719,6.32719,0,0,1,2.618.53669,4.145,4.145,0,0,1,2.46906,3.41,5.89,5.89,0,0,1-.205,2.68642,4.19442,4.19442,0,0,1-3.40577,2.932,9.69509,9.69509,0,0,1-1.63518.177c-1.12217.02729-2.24542.00973-3.36823.01022C57.11463,50.117,57.06892,50.11287,56.994,50.10929Zm2.18319-7.84719v5.93771a10.21229,10.21229,0,0,0,2.59621-.16678,2.40215,2.40215,0,0,0,1.77709-1.92069,4.12479,4.12479,0,0,0,.03079-1.59288,2.44887,2.44887,0,0,0-1.96508-2.12277A11.3563,11.3563,0,0,0,59.17718,42.2621Z"/>
          <path d="M28.60822,50.11723c-.84756,0-1.62974.00583-2.41157-.00794a.41883.41883,0,0,1-.26356-.17525q-1.2858-1.72127-2.55921-3.45179c-.04938-.06673-.10225-.13089-.16759-.21421-.314.35025-.62207.68594-.91793,1.03208a.3956.3956,0,0,0-.05456.23742c-.00387.76683-.00232,1.53366-.00232,2.3005v.26484H20.06687V40.37816H22.228v3.92118l.06306.04569c.05367-.06976.10253-.14391.16173-.20861q1.66275-1.817,3.33082-3.6291a.42587.42587,0,0,1,.26516-.14115c.80542-.01084,1.611-.00633,2.41661-.00576.02783,0,.05565.00616.12418.01427L24.7242,44.67509Z"/>
          <path d="M54.38611,46.16119H50.05763v2.008h4.9705v1.91316H47.88176v-9.7163h7.00578V42.2894h-4.828v2.00821h4.32657Z"/>
          <path d="M71.05762,50.11712c.094-.21938.17174-.40244.25063-.585q1.93671-4.483,3.86991-8.96759a.292.292,0,0,1,.32466-.20935c.573.01224,1.14636.0077,1.71952.0021a.20543.20543,0,0,1,.22491.14358q2.04328,4.74033,4.09289,9.47794c.01469.034.02487.06991.049.13857-.35921,0-.69555,0-1.03189,0-.37182,0-.7438-.00656-1.11535.00337a.233.233,0,0,1-.25758-.17018c-.24632-.59271-.50631-1.17974-.7518-1.77278a.236.236,0,0,0-.25444-.1755q-1.859.00761-3.71811-.00044a.25173.25173,0,0,0-.271.18666q-.36377.87877-.74951,1.74829c-.0332.07462-.12914.17138-.19753.17259C72.52977,50.122,71.81735,50.11712,71.05762,50.11712Zm5.2485-6.8511-1.21351,2.81844h2.4267Z"/>
          <path d="M15.486,50.10178V40.37356h2.15424v9.72822Z"/>
          <path d="M67.74824,40.37185h2.15v9.72829h-2.15Z"/>
          <path d="M32.11907,50.10608H29.97576V40.37342h2.14331Z"/>
          <path d="M33.3203,55.38585v4.04457c-.22587,0-.4419.014-.65433-.0076-.07384-.0075-.15272-.092-.20564-.1598q-.986-1.2631-1.96453-2.53207c-.04723-.061-.09555-.12108-.18718-.23706v2.92166h-.68485v-4.047a5.241,5.241,0,0,1,.59621.00764c.07391.00853.15134.093.20427.16078q1.02214,1.30856,2.03737,2.62253c.045.058.09454.1125.178.21128V55.38585Z"/>
          <path d="M71.96515,58.38231V55.38545h.67522v4.04494c-.22231,0-.438.01169-.6511-.00683a.34524.34524,0,0,1-.19-.14346Q70.806,58.008,69.81968,56.73049c-.04725-.06093-.09549-.12109-.18772-.23792v2.92361h-.68424V55.36879c.20395,0,.4036-.01264.6.007.06754.00673.1399.08391.18832.1459q1.04352,1.33607,2.08064,2.67713C71.84978,58.24135,71.88446,58.28266,71.96515,58.38231Z"/>
          <path d="M37.0658,59.37656v-.37645c0-1.13809.00451-2.27622-.0043-3.41424-.00152-.19557.05708-.25436.24872-.24414.60182.03212,1.21217-.00239,1.805.08525a1.99722,1.99722,0,0,1-.11315,3.93915C38.37371,59.42307,37.736,59.37656,37.0658,59.37656Zm.71174-.61344c.36832,0,.71759.025,1.062-.00535a1.184,1.184,0,0,0,1.173-.99755,2.50916,2.50916,0,0,0,.01526-.62291,1.11811,1.11811,0,0,0-.81969-1.04061,4.28949,4.28949,0,0,0-1.43058-.10329Z"/>
          <path d="M43.68986,59.43155c.15835-.36284.30225-.69433.44758-1.02518.41037-.93428.82588-1.86635,1.22793-2.80419a.35664.35664,0,0,1,.35187-.24524.58379.58379,0,0,1,.69053.44809c.45756,1.11538.96021,2.21226,1.44507,3.31644.03985.09073.07691.18269.1301.30945-.22323,0-.42122.0098-.61714-.0061a.2466.2466,0,0,1-.15866-.1287c-.1027-.20767-.19517-.421-.27988-.63673a.21752.21752,0,0,0-.23757-.16385c-.57288.00771-1.146-.00121-1.71881.00925a.28029.28029,0,0,0-.20081.13074,6.32486,6.32486,0,0,0-.28215.63535.21189.21189,0,0,1-.23863.16352C44.07428,59.42282,43.89792,59.43155,43.68986,59.43155Zm2.88545-1.57748-.73682-1.65994-.73619,1.65994Z"/>
          <path d="M9.584,55.9944v1.131h1.7769v.62792H9.57747v1.659H8.89975V55.37853h2.66749v.61587Z"/>
          <path d="M52.39853,59.41019H51.716V55.99548h-1.2167v-.60891h3.124v.59759H52.39853Z"/>
          <path d="M57.66475,59.41938h-.65416V55.38145h.65416Z"/>
          <path class="cls-1" d="M75.09261,46.08446,76.30612,43.266"/>
        </g>
      </g>
    </g>
  </g>
</svg>
