<svg xmlns="http://www.w3.org/2000/svg" viewBox="0 0 73.98487 71.92502">
  <title>logo_archive_black</title>
  <g id="Layer_2" data-name="Layer 2">
    <g id="Layer_1-2" data-name="Layer 1">
      <g id="qLp9KJ.tif">
        <g>
          <path d="M43.5496,0V3.33561h2.91874V.145H47.653V7.38207H46.49736V3.89619h-2.946V7.38291H42.34683V7.03086q0-2.63622-.00011-5.27243c0-.08221.00046-.16448-.00208-.24664C42.31973.7043,42.26493.64552,41.46678.50063c-.08353-.01516-.1554-.09452-.23268-.1441L41.27343.2552c.55826-.06391,1.11669-.12639,1.67462-.193.09877-.0118.19547-.041.29313-.06215Z"/>
          <path d="M0,32.93978c.06382-.27777.11279-.56.19409-.83253a1.76051,1.76051,0,0,1,2.22478-1.3292,1.45658,1.45658,0,0,1,1.11045.92446c.08452.206.14088.42353.21977.66566l3.534-1.971c0,.40581.01491.76221-.01032,1.11575-.00643.09015-.12447.19822-.21775.25228-.88838.51488-1.783,1.019-2.67471,1.52808-.50876.29045-.50786.292-.42981.92933H7.268v1.18926H6.94855q-2.72937,0-5.45875.00023c-.1439,0-.288-.00076-.43167.00532-.53948.02282-.64892.1238-.75857.65438-.035.16957.01485.42461-.29956.384ZM3.421,34.212a8.77747,8.77747,0,0,0-.07178-1.17031,1.465,1.465,0,0,0-2.36125-.83231.88188.88188,0,0,0-.31873.43713,6.66282,6.66282,0,0,0-.12939,1.14631.38507.38507,0,0,0,.40815.4148C1.75549,34.21928,2.56329,34.212,3.421,34.212Z"/>
          <path d="M0,58.97085c.12205.009.24409.02565.36615.02574q3.25209.00239,6.5042.00116h.41053c0,.33659.01537.65093-.01066.96181-.00662.079-.13437.16495-.2242.21726q-2.7408,1.596-5.48614,3.18411a1.14829,1.14829,0,0,0-.32878.256H7.25935V64.322H6.89884q-2.68182,0-5.36365.00018c-.113,0-.22607.00087-.339.004-.66722.0184-.76581.10335-.89751.75876-.03271.16278-.02458.37419-.29865.30113V63.10374l5.8315-3.36082a.64792.64792,0,0,0-.13845-.05347q-2.8175-.00075-5.635.00222A.19637.19637,0,0,0,0,59.71107Z"/>
          <path d="M0,20.41773H7.28178c0,.32909.01822.64445-.01176.95517-.00835.08654-.14818.17834-.24642.23563q-2.77871,1.62024-5.56222,3.23226c-.08372.04862-.16385.1034-.32432.20524h6.1275v.68431H6.91871q-2.61924,0-5.23848.00017c-.14379,0-.28763.00008-.43135.00395-.717.01931-.81032.09607-.95454.80863C.25989,26.71328.22961,26.86935,0,26.833v-2.344a1.413,1.413,0,0,0,.22292-.08373q2.71557-1.56912,5.42843-3.14293c.05705-.03308.10924-.07456.24186-.166H0Z"/>
          <path d="M0,40.527H1.57792l.03121.21046a.45981.45981,0,0,1-.097.0437c-.74321.10945-.97372.35558-1.00221,1.10671-.0144.37972-.00516.76054.00076,1.14076.00379.24389.10743.4372.37269.44135.76786.012,1.536.00425,2.32076.00425,0-.53079.01939-1.04246-.00676-1.5518-.01765-.34371-.27566-.50454-.5859-.59115-.214-.05974-.21261-.06465-.1824-.35046.69235,0,1.38881-.00309,2.08511.00619a.20339.20339,0,0,1,.145.13815.2126.2126,0,0,1-.12533.15736c-.72148.2325-.7926.32487-.79491,1.08523-.0011.35877-.00019.71756-.00019,1.11793.21445,0,.40621.00008.598,0,.60651-.0003,1.21305.00324,1.81951-.00219.52-.00466.61827-.10275.62345-.60976.00431-.42143.00551-.843.00033-1.2644-.00748-.60952-.22007-.866-.82057-.95144-.20266-.02884-.27994-.09283-.21087-.3064h1.5132v4.31612c-.13,0-.25037-.00006-.37079,0q-2.80637.00167-5.61275.00348c-.06167,0-.12341-.00006-.185.00269-.57278.02566-.67852.12076-.79494.69024-.03379.16527-.00407.39906-.29829.34452Z"/>
          <path d="M0,10.97993H1.58765l.01306.22646a.47832.47832,0,0,1-.09113.03725c-.75753.12187-.9788.36676-1.00168,1.13857-.011.36953-.00425.73981.00322,1.10956.00489.24208.10439.43557.3733.43912.76774.01014,1.53571.00357,2.31954.00357,0-.53257.01934-1.04394-.00674-1.553a.64007.64007,0,0,0-.58872-.58408c-.20926-.04322-.24854-.13844-.17114-.34875.69031,0,1.38654-.003,2.0826.00631a.1988.1988,0,0,1,.13883.13976.221.221,0,0,1-.13335.15544c-.70071.21226-.78319.3179-.78642,1.05708-.00161.3673-.00028.7346-.00028,1.12373.91217,0,1.7929.00487,2.67351-.00351a.33574.33574,0,0,0,.35227-.35534c.00829-.58506.032-1.17275-.01166-1.75481-.03545-.473-.2838-.62516-1.00684-.74l-.02377-.26443H7.262v4.32045H6.89148q-2.71287,0-5.42573,0c-.08221,0-.16444-.0012-.24662.00043-.71335.01416-.792.07513-.93427.78093-.03441.17076-.07546.29577-.28486.24675Z"/>
          <path d="M0,1.2337H1.5889l.012.22632a.45062.45062,0,0,1-.09053.03743C.732,1.61607.53427,1.83416.50782,2.62049c-.00852.25361-.00133.50775-.00133.79473H7.26362V4.61265H.48179C.50938,5.06193.507,5.472.56692,5.87282a.74256.74256,0,0,0,.74644.61548c.19459.02338.32121.08348.2271.29705H0Z"/>
          <path d="M0,49.03956H1.583V49.323c-.11132.01068-.21236.01575-.3119.03073a.75288.75288,0,0,0-.713.69142c-.04748.38367-.04943.773-.07317,1.19092H7.25846v1.18885H.479c.0316.46605.03373.89539.09784,1.31527a.69023.69023,0,0,0,.62589.55594c.10943.02131.21834.0453.34406.07153v.30129L0,54.59121Z"/>
          <path d="M18.94479,26.66167V21.5465H66.85128v5.11517Z"/>
          <path d="M17.79567,18.39378c1.27093-.29856,2.48906-.58588,3.70775-.87082q10.508-2.45685,21.01772-4.906a1.70936,1.70936,0,0,1,.74866-.006Q55.474,15.4534,67.67372,18.315c.0894.02092.17823.04427.32137.08-.38979.43268-.77258.82541-1.11568,1.25019a.89854.89854,0,0,1-.78784.34814q-23.23714-.01269-46.47429-.00076a.75719.75719,0,0,1-.65379-.29575C18.60337,19.26344,18.21275,18.85546,17.79567,18.39378Z"/>
          <path d="M25.91613,44.53432c-.10838,3.84232-.198,7.6853-.3332,11.52667-.06576,1.8685-.21935,3.73387-.32531,5.60109a.31617.31617,0,0,1-.29249.34285,8.70836,8.70836,0,0,1-4.21041-.0115.265.265,0,0,1-.235-.29186c-.06662-1.10771-.14923-2.21448-.21307-3.32235-.28861-5.00932-.45395-10.02374-.36633-15.04019.06981-3.99675.25956-7.99145.4027-11.98683.03532-.9859.10338-1.97062.14114-2.95646a.41184.41184,0,0,1,.39085-.45094,10.49285,10.49285,0,0,1,4.01236-.00176.41455.41455,0,0,1,.39918.44355C25.57759,33.765,25.82666,39.14474,25.91613,44.53432Z"/>
          <path d="M54.10922,44.57012c-.10957,3.85258-.20318,7.7057-.33581,11.55748-.06117,1.77633-.19663,3.55015-.30284,5.32485-.03.50118-.03879.49344-.52845.60169a8.63941,8.63941,0,0,1-3.96969-.05641c-.18094-.04421-.24954-.11274-.26045-.30077-.0869-1.49774-.19669-2.9942-.27616-4.49229-.24293-4.57911-.38729-9.16264-.30441-13.747.07263-4.01734.25912-8.03267.402-12.04865.03508-.98592.1068-1.97056.13941-2.95652.01087-.32882.13774-.45871.46072-.51932a10.531,10.531,0,0,1,3.95194.01075.41019.41019,0,0,1,.39358.44775c.17473,4.50839.36271,9.01626.533,13.52481.03334.88271.0048,1.76775.0048,2.65172Z"/>
          <path d="M66.85641,45.49165c-.12969,3.75255-.27461,8.15915-.43912,12.565-.04485,1.20106-.15476,2.39959-.21978,3.6001a.31162.31162,0,0,1-.28584.34564,8.74388,8.74388,0,0,1-4.2106-.00565c-.23916-.05767-.24547-.20136-.25625-.37955-.08013-1.32327-.19556-2.64543-.23618-3.96988-.13108-4.27344-.3281-8.54783-.32259-12.82163.00546-4.23259.21953-8.4651.35585-12.69721.04-1.24268.13472-2.48353.18626-3.726a.40647.40647,0,0,1,.37855-.45676,10.50917,10.50917,0,0,1,4.0125-.0041c.26265.0506.38508.15623.39871.43939.10086,2.09414.24351,4.18661.31889,6.28155C66.65879,38.05223,66.73935,41.44333,66.85641,45.49165Z"/>
          <path d="M38.96208,45.7154c-.11827,3.45387-.26143,7.86059-.425,12.26656-.04611,1.24218-.156,2.48192-.226,3.72338a.26606.26606,0,0,1-.24121.2875,8.74791,8.74791,0,0,1-4.2706-.00007c-.22386-.05461-.22723-.19441-.23739-.36205-.07961-1.313-.19428-2.62491-.23518-3.9391-.132-4.24262-.33246-8.48623-.32593-12.72918.00661-4.29431.22207-8.5885.35963-12.88231.03949-1.23241.13329-2.463.18525-3.69515a.3915.3915,0,0,1,.36378-.43647,10.50566,10.50566,0,0,1,4.01248-.00926c.2763.053.39847.16358.41212.45908.12515,2.71039.28963,5.4192.39049,8.1304C38.82656,39.27113,38.86937,42.01572,38.96208,45.7154Z"/>
          <path d="M19.25152,67.45182V63.78587H67.405v3.66595Z"/>
          <path d="M17.19014,71.56278V68.91924H69.3725v2.64354Z"/>
          <path d="M22.616.06391c1.32528.06021,2.682.06066,4.02362.20345a1.68736,1.68736,0,0,1,1.60924,1.49453,1.677,1.677,0,0,1-1.38361,2.02985c-.069.01836-.13779.03721-.24369.06583l1.97835,3.54589c-.4154,0-.77929.01272-1.141-.00992-.07966-.005-.17326-.12289-.22354-.21007-.528-.91558-1.0487-1.83538-1.571-2.75425-.25116-.44188-.32146-.471-.89017-.34472V7.38423H23.57422v-.3548q0-2.60412-.00009-5.20823c0-.17464.00063-.34929-.00192-.5239-.01-.686-.07066-.75615-.743-.89753C22.69751.37209,22.48382.405,22.616.06391ZM24.78818,3.503a9.00537,9.00537,0,0,0,1.0402-.00675A1.2562,1.2562,0,0,0,27.062,2.3748,1.34423,1.34423,0,0,0,26.38333.80845,4.22755,4.22755,0,0,0,25.18362.66309a.37758.37758,0,0,0-.39411.42209C24.78588,1.88348,24.78818,2.68181,24.78818,3.503Z"/>
          <path d="M70.87648,3.86617c0,.903-.00324,1.78471.00226,2.6664a.33056.33056,0,0,0,.35445.35c.58507.0084,1.17263.03017,1.755-.012.58385-.04231.67065-.51979.734-1.0086l.26276-.021V7.39081H69.66569c0-.13385,0-.25444,0-.375q-.00027-2.71394-.00073-5.42786c0-.11307-.00067-.22621-.00465-.33919-.02215-.62823-.08926-.70681-.70806-.8344-.28018-.05777-.28018-.05777-.28447-.27917h5.1476V1.70487c-.16567.05432-.25528.021-.28117-.19678C73.468.95111,73.2548.7142,72.69684.65955a13.26593,13.26593,0,0,0-1.4466-.02206.33211.33211,0,0,0-.36981.33479c-.00809.77823-.00312,1.55659-.00312,2.35094.52946,0,1.04189.02774,1.54979-.0084.44-.03132.5447-.40892.63416-.77915h.28031v2.2141c-.16348.06388-.27229.07637-.305-.16169-.0692-.50357-.2607-.69073-.76088-.71683C71.81687,3.84732,71.35579,3.86617,70.87648,3.86617Z"/>
          <path d="M19.1969,7.3804a.84657.84657,0,0,1-.10967.02116c-.32833-.00369-.72961.10481-.96357-.046-.21539-.13886-.25395-.55562-.36483-.85205-.14021-.37478-.28383-.74873-.40758-1.129a.27341.27341,0,0,0-.3081-.223q-1.15631.01166-2.31276-.00024a.27547.27547,0,0,0-.30518.22621c-.18954.55321-.41649,1.09442-.58622,1.65326-.09071.29868-.22655.43395-.53748.3756a1.70364,1.70364,0,0,0-.26324-.00189c.048-.14613.084-.267.12715-.38531q.98043-2.68956,1.96226-5.37862.06328-.17349.12079-.34906c.21176-.64551.142-.76187-.51835-.91508-.08188-.019-.14826-.10475-.22183-.15957l.04932-.09488c.62542,0,1.25109-.00823,1.87594.01068.07591.00229.1811.13831.21594.2332q.907,2.47062,1.79812,4.94706C18.695,5.99562,18.94249,6.6784,19.1969,7.3804Zm-2.11975-2.752-1.227-3.14354L14.70121,4.62841Z"/>
          <path d="M65.4213.1331c-.03485.11116-.06107.20739-.09489.30087q-1.20906,3.34236-2.4151,6.68579a.36428.36428,0,0,1-.41538.29118c-.63988-.0172-.64077-.00443-.86041-.61574C60.9869,4.98992,60.3289,3.18791,59.69642,1.377a1.24671,1.24671,0,0,0-1.07788-.9907c-.08171-.00892-.15357-.10818-.23-.16561l.04685-.0986c.65513,0,1.31059-.00949,1.965.01236.07916.00264.18523.16274.22394.26973q.9684,2.67674,1.92134,5.35908c.02749.07691.05622.15337.10385.283.05622-.13056.0998-.2168.13134-.30723q.90212-2.586,1.80153-5.17287c.15695-.4512.156-.45181.62971-.4446C65.27286.12249,65.33355.12812,65.4213.1331Z"/>
          <path d="M37.556,6.43108c.01764.8083.15708.65693-.62225.89616a4.81968,4.81968,0,0,1-2.22816.12456,2.52489,2.52489,0,0,1-2.16574-1.93056,6.60642,6.60642,0,0,1-.032-3.5018A2.4366,2.4366,0,0,1,34.83791.11371a7.39285,7.39285,0,0,1,2.35272.20343c.21828.0528.3274.14165.317.39167-.02033.4904-.006.98224-.006,1.4952-.18158.07116-.25729-.01045-.31626-.228a1.83336,1.83336,0,0,0-2.256-1.30122,1.60515,1.60515,0,0,0-1.06569,1.06964,5.22652,5.22652,0,0,0-.271,2.18557,6.05944,6.05944,0,0,0,.19609,1.27426A2.02523,2.02523,0,0,0,36.543,6.81106,9.25357,9.25357,0,0,0,37.556,6.43108Z"/>
          <path d="M51.89013.20514H54.869l.05824.08264c-.07508.06338-.14313.16965-.22636.18327-.5938.09713-.72226.22085-.72432.815q-.00868,2.51319.00006,5.02641c.00207.593.12773.71622.72162.82359.08213.01485.14921.1129.22326.17243l-.05846.08281H51.91111l-.0701-.064c.06741-.06544.12613-.17384.20362-.18955.62675-.12709.72235-.20018.72833-.84655q.023-2.48209.0012-4.96451c-.00547-.66009-.09137-.72428-.74366-.85726C51.955.454,51.89934.34146,51.83448.27394Z"/>
          <path d="M.08657,71.9045V68.93445c.205-.07578.26341-.0014.278.19045.0394.51675.19562.68771.70753.6915q2.60317.01924,5.20656.00092c.51233-.00339.6643-.16431.72685-.68142.01995-.165.03782-.28912.26291-.20236v2.96559c-.13323.03431-.24548.0703-.25762-.14656-.03723-.66469-.30772-.72438-.86923-.73152-1.27325-.0162-2.54685-.008-3.82029-.00508-.45142.001-.90427-.00416-1.3538.02932-.43633.03248-.56109.18436-.60429.62429C.33959,71.91033.33959,71.91033.08657,71.9045Z"/>
        </g>
      </g>
    </g>
  </g>
</svg>
