<?xml version="1.0" encoding="utf-8"?>
<!-- Generator: Adobe Illustrator 22.0.0, SVG Export Plug-In . SVG Version: 6.00 Build 0)  -->
<svg version="1.1" id="Calque_1" xmlns="http://www.w3.org/2000/svg" xmlns:xlink="http://www.w3.org/1999/xlink" x="0px" y="0px" width="468px" height="40px" xml:space="preserve">
    <path d="M10.4,10l5.3-5.3c0.4-0.4,0.4-1,0-1.4c-0.4-0.4-1-0.4-1.4,0L9,8.6L3.7,3.3c-0.4-0.4-1-0.4-1.4,0c-0.4,0.4-0.4,1,0,1.4
	L7.6,10l-5.3,5.3c-0.4,0.4-0.4,1,0,1.4s1,0.4,1.4,0l0,0L9,11.4l5.3,5.3c0.4,0.4,1,0.4,1.4,0c0.4-0.4,0.4-1,0-1.4L10.4,10z" />
    <path d="M28.4,10l5.3-5.3c0.4-0.4,0.4-1,0-1.4c-0.4-0.4-1-0.4-1.4,0L27,8.6l-5.3-5.3c-0.4-0.4-1-0.4-1.4,0c-0.4,0.4-0.4,1,0,1.4
	l5.3,5.3l-5.3,5.3c-0.4,0.4-0.4,1,0,1.4s1,0.4,1.4,0l0,0l5.3-5.3l5.3,5.3c0.4,0.4,1,0.4,1.4,0c0.4-0.4,0.4-1,0-1.4L28.4,10z" />
    <path d="M46.4,10l5.3-5.3c0.4-0.4,0.4-1,0-1.4c-0.4-0.4-1-0.4-1.4,0L45,8.6l-5.3-5.3c-0.4-0.4-1-0.4-1.4,0c-0.4,0.4-0.4,1,0,1.4
	l5.3,5.3l-5.3,5.3c-0.4,0.4-0.4,1,0,1.4s1,0.4,1.4,0l0,0l5.3-5.3l5.3,5.3c0.4,0.4,1,0.4,1.4,0c0.4-0.4,0.4-1,0-1.4L46.4,10z" />
    <path d="M64.4,10l5.3-5.3c0.4-0.4,0.4-1,0-1.4c-0.4-0.4-1-0.4-1.4,0L63,8.6l-5.3-5.3c-0.4-0.4-1-0.4-1.4,0c-0.4,0.4-0.4,1,0,1.4
	l5.3,5.3l-5.3,5.3c-0.4,0.4-0.4,1,0,1.4s1,0.4,1.4,0l0,0l5.3-5.3l5.3,5.3c0.4,0.4,1,0.4,1.4,0c0.4-0.4,0.4-1,0-1.4L64.4,10z" />
    <path d="M81,8.6l-5.3-5.3C75.5,3.1,75.3,3,75,3h0c-0.3,0-0.5,0.1-0.7,0.3c-0.4,0.4-0.4,1,0,1.4l5.3,5.3l-5.3,5.3
	c-0.4,0.4-0.4,1,0,1.4c0.2,0.2,0.4,0.3,0.7,0.3h0c0.2,0,0.5-0.1,0.7-0.3l0,0l5.3-5.3l5.3,5.3c0.2,0.2,0.4,0.3,0.7,0.3
	c0.3,0,0.5-0.1,0.7-0.3c0.4-0.4,0.4-1,0-1.4L82.4,10l5-5c-0.5-0.5-0.9-0.9-1.5-1.4L81,8.6z" />
    <path d="M99,8.6l-5.3-5.3C93.5,3.1,93.3,3,93,3h0c-0.3,0-0.5,0.1-0.7,0.3c-0.4,0.4-0.4,1,0,1.4l5.3,5.3l-5.3,5.3
	c-0.4,0.4-0.4,1,0,1.4c0.2,0.2,0.4,0.3,0.7,0.3h0c0.2,0,0.5-0.1,0.7-0.3l0,0l5.3-5.3l5.3,5.3c0.2,0.2,0.4,0.3,0.7,0.3
	c0.3,0,0.5-0.1,0.7-0.3c0.4-0.4,0.4-1,0-1.4l-5.3-5.3l4.4-4.4c-0.5-0.5-0.9-0.9-1.5-1.4L99,8.6z" />
    <path d="M117,8.6l-5.3-5.3C111.5,3.1,111.3,3,111,3h0c-0.3,0-0.5,0.1-0.7,0.3c-0.4,0.4-0.4,1,0,1.4l5.3,5.3l-5.3,5.3
	c-0.4,0.4-0.4,1,0,1.4c0.2,0.2,0.4,0.3,0.7,0.3h0c0.2,0,0.5-0.1,0.7-0.3l0,0l5.3-5.3l5.3,5.3c0.2,0.2,0.4,0.3,0.7,0.3
	c0.3,0,0.5-0.1,0.7-0.3c0.4-0.4,0.4-1,0-1.4l-5.3-5.3l3.6-3.6c-0.5-0.5-0.9-0.9-1.5-1.4L117,8.6z" />
    <path d="M135,8.6l-5.3-5.3C129.5,3.1,129.3,3,129,3h0c-0.3,0-0.5,0.1-0.7,0.3c-0.4,0.4-0.4,1,0,1.4l5.3,5.3l-5.3,5.3
	c-0.4,0.4-0.4,1,0,1.4c0.2,0.2,0.4,0.3,0.7,0.3h0c0.2,0,0.5-0.1,0.7-0.3l0,0l5.3-5.3l5.3,5.3c0.2,0.2,0.4,0.3,0.7,0.3
	c0.3,0,0.5-0.1,0.7-0.3c0.4-0.4,0.4-1,0-1.4l-5.3-5.3l2.5-2.5c-0.5-0.5-0.9-0.9-1.5-1.4L135,8.6z" />
    <path d="M183.7,3.3C183.5,3.1,183.3,3,183,3h0c-0.3,0-0.5,0.1-0.7,0.3C182.1,3.5,182,3.8,182,4v0c0,0.2,0.1,0.5,0.3,0.7L194,16.4
	c0.5-0.4,1-0.9,1.4-1.4L183.7,3.3z" />
    <path d="M184,13.5l-1.7,1.7c-0.2,0.2-0.3,0.5-0.3,0.7v0c0,0.2,0.1,0.5,0.3,0.7c0.2,0.2,0.5,0.3,0.7,0.3c0.3,0,0.5-0.1,0.7-0.3l0,0
	l1.8-1.8C185.1,14.4,184.6,13.9,184,13.5" />
    <path d="M201.7,3.3C201.5,3.1,201.3,3,201,3h0c-0.3,0-0.5,0.1-0.7,0.3c-0.4,0.4-0.4,1,0,1.4l11,11c0.5-0.4,1-0.9,1.4-1.4L201.7,3.3z
	" />
    <path d="M219.7,3.3C219.5,3.1,219.3,3,219,3h0c-0.3,0-0.5,0.1-0.7,0.3c-0.4,0.4-0.4,1,0,1.4l10.2,10.2c0.5-0.4,1-0.9,1.4-1.4
	L219.7,3.3z" />
    <path d="M237.7,3.3C237.5,3.1,237.3,3,237,3h0c-0.3,0-0.5,0.1-0.7,0.3C236.1,3.5,236,3.8,236,4s0.1,0.5,0.3,0.7l9,9
	c0.5-0.4,1-0.9,1.4-1.4L237.7,3.3z" />
    <path d="M255.7,3.3C255.5,3.1,255.3,3,255,3h0c-0.3,0-0.5,0.1-0.7,0.3C254.1,3.5,254,3.8,254,4s0.1,0.5,0.3,0.7l7.3,7.3
	c0.5-0.4,1-0.9,1.4-1.4L255.7,3.3z" />
    <path opacity="0" d="M273,3C273,3,273,3,273,3L273,3C273,3,273,3,273,3" />
    <path d="M272.3,4.7l4.7,4.7c0.5-0.4,1-0.9,1.4-1.4l-4.7-4.7C273.5,3.1,273.3,3,273,3h0c-0.3,0-0.5,0.1-0.7,0.3
	C271.9,3.7,271.9,4.3,272.3,4.7z" />
    <path d="M290.3,4.7l1.2,1.2c0.5-0.4,1-0.9,1.3-1.5l-1.1-1.1C291.5,3.1,291.3,3,291,3h0c-0.3,0-0.5,0.1-0.7,0.3
	C289.9,3.7,289.9,4.3,290.3,4.7z" />
    <path opacity="6.600000e-02" d="M312.1,16.4c3.5,1.6,7.7,0,9.2-3.5c1.6-3.5,0-7.7-3.5-9.2c-2.2-1-4.9-0.8-6.9,0.7
	c-1.5,1.1-2.6,2.7-2.9,4.5c-0.1,0.5,0.3,1.1,0.8,1.2c0.5,0.1,1.1-0.3,1.2-0.8l0,0c0.5-2.7,3-4.6,5.8-4.1c2.7,0.5,4.6,3,4.1,5.8
	s-3,4.6-5.8,4.1c-0.6-0.1-1.2-0.3-1.8-0.7" />
    <path opacity="0.231" d="M328.9,13.6l0.6,0.1c0.1,0,0.2-0.1,0.3-0.2c0-0.1-0.1-0.2-0.2-0.3l-1.1-0.2c-0.1,0-0.2,0.1-0.3,0.2
	l-0.2,1.1c0,0.1,0.1,0.2,0.2,0.2c0.1,0,0.2-0.1,0.2-0.2l0.1-0.6" />
    <path opacity="0.186" d="M327.4,14.2c2.3,3.1,6.7,3.7,9.8,1.4c3.1-2.3,3.7-6.7,1.4-9.8c-1.5-2-3.9-3-6.3-2.7
	c-1.8,0.2-3.5,1.1-4.7,2.6c-0.4,0.4-0.3,1.1,0.1,1.4c0.4,0.4,1.1,0.3,1.4-0.1l0,0c1.7-2.2,4.9-2.5,7.1-0.8c2.2,1.7,2.5,4.9,0.8,7.1
	c-1.7,2.2-4.9,2.5-7.1,0.8c-0.5-0.4-0.9-0.9-1.2-1.4" />
    <path opacity="0.351" d="M345.8,11l0.7,0.5c0.2,0.1,0.4,0.1,0.5-0.1c0.1-0.2,0.1-0.4-0.1-0.5l-1.4-1c-0.2-0.1-0.4-0.1-0.5,0.1l0,0
	l-1,1.4c-0.1,0.2-0.1,0.4,0.1,0.5c0.2,0.1,0.4,0.1,0.5-0.1l0.5-0.7" />
    <path opacity="0.322" d="M344.1,11c0.5,3.8,4.1,6.5,7.9,5.9c3.8-0.5,6.5-4.1,5.9-7.9c-0.3-2.4-1.9-4.5-4.2-5.5
	c-1.7-0.7-3.6-0.7-5.4,0c-0.5,0.2-0.8,0.8-0.6,1.3c0.2,0.5,0.8,0.8,1.3,0.6l0,0c2.6-1.1,5.5,0.1,6.6,2.7c1.1,2.6-0.1,5.5-2.7,6.6
	c-2.6,1.1-5.5-0.1-6.6-2.7c-0.2-0.6-0.4-1.2-0.4-1.9" />
    <path opacity="0.47" d="M364.1,8.3l0.6,1.1c0.1,0.2,0.4,0.3,0.6,0.2c0.2-0.1,0.3-0.4,0.2-0.6l-1.1-2.1c-0.1-0.2-0.4-0.3-0.6-0.2
	l-2.1,1.1c-0.2,0.1-0.3,0.4-0.2,0.6c0.1,0.2,0.4,0.3,0.6,0.2l1-0.5" />
    <path opacity="0.464" d="M362.5,7.5c-1.4,3.6,0.4,7.7,4,9c3.6,1.4,7.7-0.4,9-4c0.9-2.3,0.5-4.9-1-6.8c-1.1-1.5-2.8-2.4-4.7-2.6
	c-0.5-0.1-1,0.3-1.1,0.9c-0.1,0.5,0.3,1,0.9,1.1l0,0c2.8,0.3,4.7,2.8,4.4,5.5c-0.3,2.8-2.8,4.7-5.5,4.4c-2.8-0.3-4.7-2.8-4.4-5.5
	c0.1-0.6,0.3-1.3,0.6-1.8" />
    <path opacity="0.59" d="M383.7,6.1l0,1.5c0,0.3,0.3,0.6,0.6,0.6c0.3,0,0.6-0.3,0.6-0.6l-0.1-2.9c0-0.3-0.3-0.6-0.6-0.6l-2.9,0.1
	c-0.3,0-0.6,0.3-0.6,0.6c0,0.3,0.3,0.6,0.6,0.6l1.4,0" />
    <path opacity="0.607" d="M382.5,4.7c-3,2.5-3.3,6.9-0.8,9.9c2.5,3,6.9,3.3,9.9,0.8c1.9-1.6,2.8-4,2.4-6.5c-0.3-1.8-1.3-3.5-2.8-4.6
	c-0.4-0.3-1.1-0.2-1.4,0.2c-0.3,0.4-0.2,1.1,0.2,1.4l0,0c2.3,1.6,2.8,4.7,1.2,7c-1.6,2.3-4.7,2.8-7,1.2c-2.3-1.6-2.8-4.7-1.2-7
	c0.4-0.5,0.8-1,1.4-1.3" />
    <path opacity="0.709" d="M404.2,5l-0.8,1.6c-0.1,0.4,0,0.8,0.4,0.9c0.3,0.1,0.7,0,0.9-0.3l1.5-3.2c0.2-0.4,0-0.8-0.3-0.9l-3.2-1.5
	c-0.4-0.1-0.8,0-0.9,0.4c-0.1,0.3,0,0.7,0.3,0.9l1.6,0.7" />
    <path opacity="0.747" d="M403.6,3.1c-3.8,0.7-6.3,4.4-5.5,8.2c0.8,3.8,4.4,6.3,8.2,5.5c2.4-0.5,4.4-2.2,5.2-4.5
	c0.6-1.7,0.5-3.7-0.3-5.4c-0.2-0.5-0.8-0.7-1.3-0.5c-0.5,0.2-0.7,0.8-0.5,1.3l0,0c1.2,2.5,0.2,5.5-2.3,6.7c-2.5,1.2-5.5,0.2-6.7-2.3
	c-1.2-2.5-0.2-5.5,2.3-6.7c0.6-0.3,1.2-0.4,1.8-0.5" />
    <path opacity="0.829" d="M424.9,5.4l-1.7,1.3c-0.3,0.3-0.4,0.8-0.1,1.2c0.3,0.3,0.7,0.4,1.1,0.1l3.3-2.6c0.4-0.3,0.4-0.8,0.1-1.2
	L425.1,1c-0.3-0.3-0.8-0.4-1.2-0.1c-0.3,0.3-0.4,0.8-0.1,1.1l1.2,1.6" />
    <path opacity="0.877" d="M425.1,3.3c-3.7-1.2-7.6,0.8-8.8,4.5c-1.2,3.7,0.8,7.6,4.5,8.8c2.3,0.8,4.9,0.2,6.8-1.4
	c1.4-1.2,2.2-3,2.4-4.8c0-0.6-0.4-1-0.9-1.1s-1,0.4-1.1,0.9v0c-0.1,2.8-2.5,4.9-5.3,4.7s-4.9-2.5-4.7-5.3c0.1-2.8,2.5-4.9,5.3-4.7
	c0.6,0,1.3,0.2,1.8,0.5" />
    <path opacity="0.949" d="M445,7l-2.4,0.5c-0.5,0.1-0.8,0.6-0.7,1.1c0.1,0.5,0.6,0.8,1.1,0.7l4.6-0.9c0.5-0.1,0.8-0.6,0.7-1.1
	l-0.9-4.6c-0.1-0.5-0.6-0.8-1.1-0.7c-0.5,0.1-0.8,0.6-0.7,1.1l0.5,2.2" />
    <path opacity="0.981" d="M446.1,5.2c-2.6-2.8-7.1-2.9-9.9-0.3c-2.8,2.6-2.9,7.1-0.3,9.9c1.7,1.8,4.2,2.6,6.6,2
	c1.8-0.4,3.4-1.5,4.4-3.1c0.3-0.5,0.2-1.1-0.3-1.4c-0.5-0.3-1.1-0.2-1.4,0.3l0,0c-1.5,2.4-4.6,3.1-6.9,1.6c-2.4-1.5-3.1-4.6-1.6-6.9
	c1.5-2.4,4.6-3.1,6.9-1.6c0.5,0.3,1,0.8,1.4,1.3" />
    <path d="M463.5,8L461,8c-0.6,0-1,0.4-1,1c0,0.6,0.4,1,1,1l5,0c0.6,0,1-0.4,1-1l0-5c0-0.6-0.4-1-1-1c-0.6,0-1,0.4-1,1l0,2.4" />
    <path d="M465,6.4c-2-3.3-6.3-4.4-9.6-2.4c-3.3,2-4.4,6.3-2.4,9.6c1.3,2.1,3.5,3.4,6,3.4c1.9,0,3.6-0.7,5-2.1c0.4-0.4,0.4-1,0-1.4
	c-0.4-0.4-1-0.4-1.4,0l0,0c-1.9,2-5.1,2-7.1,0.1c-2-1.9-2-5.1-0.1-7.1c1.9-2,5.1-2,7.1-0.1c0.5,0.4,0.8,1,1.1,1.6" />
    <path d="M159.7,15.3l-5.3-5.3l1-1c-0.5-0.5-0.9-1-1.5-1.4L153,8.6l-5.3-5.3C147.5,3.1,147.3,3,147,3h0c-0.3,0-0.5,0.1-0.7,0.3
	C146.1,3.5,146,3.8,146,4s0.1,0.5,0.3,0.7l5.3,5.3l-5.3,5.3c-0.2,0.2-0.3,0.4-0.3,0.7v0c0,0.2,0.1,0.5,0.3,0.7
	c0.2,0.2,0.5,0.3,0.7,0.3c0.3,0,0.5-0.1,0.7-0.3l0,0l5.3-5.3l0,0l0,0l0,0l0,0l5.3,5.3c0.2,0.2,0.4,0.3,0.7,0.3h0c0,0,0,0,0.1,0
	c0.3-0.3,0.6-0.6,0.9-0.9C160,15.8,159.9,15.5,159.7,15.3z" />
    <path d="M165.7,3.3C165.5,3.1,165.3,3,165,3h0c-0.3,0-0.5,0.1-0.7,0.3C164.1,3.5,164,3.8,164,4s0.1,0.5,0.3,0.7l5.3,5.3l0,0
	l-5.3,5.3c-0.2,0.2-0.3,0.4-0.3,0.7v0c0,0.2,0.1,0.5,0.3,0.7c0.2,0.2,0.5,0.3,0.7,0.3c0.3,0,0.5-0.1,0.7-0.3l0,0l5.3-5.3
	c0,0,5.4,5.4,5.5,5.4c0.5-0.4,1-0.9,1.4-1.4C177.8,15.4,165.7,3.3,165.7,3.3z" />
    

    <path d="M13.5,28H11c-0.6,0-1,0.4-1,1c0,0.6,0.4,1,1,1h5c0.6,0,1-0.4,1-1v-5c0-0.6-0.4-1-1-1c-0.6,0-1,0.4-1,1v2.4"/>
    <path d="M15,26.4C13,23.1,8.7,22,5.4,24C2.1,26,1,30.3,3,33.6C4.3,35.7,6.5,37,9,37c1.9,0,3.6-0.7,4.9-2c0.4-0.4,0.4-1,0-1.4
    s-1-0.4-1.4,0c0,0,0,0,0,0c-1.9,2-5.1,2-7.1,0.1s-2-5.1-0.1-7.1s5.1-2,7.1-0.1c0.5,0.4,0.8,1,1.1,1.6"/>
<!-- 
    <path d="M10.4,30l5.3-5.3c0.4-0.4,0.4-1,0-1.4c-0.4-0.4-1-0.4-1.4,0L9,28.6l-5.3-5.3c-0.4-0.4-1-0.4-1.4,0s-0.4,1,0,1.4L7.6,30
	l-5.3,5.3c-0.4,0.4-0.4,1,0,1.4s1,0.4,1.4,0l0,0L9,31.4l5.3,5.3c0.4,0.4,1,0.4,1.4,0c0.4-0.4,0.4-1,0-1.4L10.4,30z" /> -->
    <svg x="18" y="20">
        <path d="M13.735 8.606l-1.72-.78a.74.74 0 0 0-.61 1.35l3.37 1.53a.74.74 0 0 0 .98-.37l1.532-3.372a.74.74 0 0 0-1.35-.612l-.74 1.63" />
        <path d="M15.91 8.954c-.58-3.82-4.146-6.446-7.965-5.867-3.82.58-6.447 4.144-5.868 7.964a6.997 6.997 0 0 0 4.275 5.43 6.954 6.954 0 0 0 5.357-.025 1 1 0 1 0-.775-1.844 5.02 5.02 0 1 1 3.032-4.74" />
    </svg>
    <svg x="36" y="20">
        <path d="M14.088 9.318l-.89-.845a.482.482 0 0 0-.663.7l1.747 1.656a.482.482 0 0 0 .68-.02l1.657-1.746a.482.482 0 0 0-.7-.662l-.8.844" />
        <path d="M15.79 11.646c.91-3.755-1.397-7.536-5.15-8.444-3.756-.91-7.537 1.396-8.446 5.15a6.997 6.997 0 0 0 1.903 6.644A6.954 6.954 0 0 0 9.067 17a1 1 0 1 0-.02-2 5.02 5.02 0 1 1 4.6-3.242" />
    </svg>
    <svg x="54" y="20">
        <path d="M14.43 10.23l-.315-.47a.222.222 0 0 0-.37.247l.618.923a.222.222 0 0 0 .308.062l.925-.618a.222.222 0 0 0-.247-.37l-.447.3" />
        <path d="M14.664 14.093c2.262-3.132 1.556-7.504-1.575-9.766C9.956 2.065 5.584 2.77 3.322 5.9a6.997 6.997 0 0 0-.752 6.87 6.954 6.954 0 0 0 3.843 3.735 1 1 0 1 0 .74-1.858 5.02 5.02 0 1 1 5.485-1.26" />
    </svg>
    <svg x="72" y="20">
        <defs>
            <filter id="a">
                <feColorMatrix color-interpolation-filters="sRGB" type="matrix" values="1 0 0 0 0 0 1 0 0 0 0 0 1 0 0 0 0 0 -1 1" />
            </filter>
            <mask id="b" mask-type="alpha" fill="#fff">
                <g filter="url(#a)">
                    <path d="M0 0h18v20H0z" opacity="0" />
                    <path d="M8.85 10.044l-1.465 8.154s4.614.676 4.642.584c.03-.092 3.69-3.364 3.69-3.364L8.85 10.044z" />
                </g>
            </mask>
        </defs>
        <path d="M12.694 15.932c3.28-2.043 4.28-6.358 2.237-9.636-2.042-3.28-6.355-4.28-9.634-2.238A6.997 6.997 0 0 0 2 10.132a6.954 6.954 0 0 0 2.144 4.91 1 1 0 1 0 1.387-1.44 5.02 5.02 0 1 1 5.555.91" mask="url(#b)" opacity=".943" />
    </svg>
    <svg x="90" y="20">
        <defs>
            <filter id="c">
                <feColorMatrix color-interpolation-filters="sRGB" type="matrix" values="1 0 0 0 0 0 1 0 0 0 0 0 1 0 0 0 0 0 -1 1" />
            </filter>
            <mask id="d" mask-type="alpha" fill="#fff">
                <g filter="url(#c)">
                    <path d="M0 0h18v20H0z" opacity="0" />
                    <path d="M8.85 10.044L5.634 17.05s5.448 2.043 5.504 1.86c.057-.185 4.615-3.567 4.615-3.567l-6.903-5.3z" />
                </g>
            </mask>
        </defs>
        <path d="M10.175 16.888c3.81-.65 6.368-4.265 5.717-8.073-.65-3.808-4.264-6.368-8.073-5.717A6.997 6.997 0 0 0 2.47 7.474a6.954 6.954 0 0 0 .125 5.356 1 1 0 1 0 1.83-.808 5.02 5.02 0 1 1 4.796 2.943" mask="url(#d)" opacity=".749" />
    </svg>
    <svg x="108" y="20">
        <defs>
            <filter id="e">
                <feColorMatrix color-interpolation-filters="sRGB" type="matrix" values="1 0 0 0 0 0 1 0 0 0 0 0 1 0 0 0 0 0 -1 1" />
            </filter>
            <mask id="f" mask-type="alpha" fill="#fff">
                <g filter="url(#e)">
                    <path d="M0 0h18v20H0z" opacity="0" />
                    <path d="M8.85 10.044L3.883 15.9s6.28 3.412 6.366 3.136c.084-.276 5.537-3.767 5.537-3.767L8.85 10.043z" />
                </g>
            </mask>
        </defs>
        <path d="M7.482 16.82c3.77.84 7.508-1.54 8.346-5.31.84-3.77-1.538-7.507-5.31-8.346a6.997 6.997 0 0 0-6.605 2.028 6.954 6.954 0 0 0-1.91 5.005 1 1 0 1 0 2-.056 5.02 5.02 0 1 1 3.327 4.54" mask="url(#f)" opacity=".485" />
    </svg>
    <svg x="126" y="20">
        <defs>
            <filter id="g">
                <feColorMatrix color-interpolation-filters="sRGB" type="matrix" values="1 0 0 0 0 0 1 0 0 0 0 0 1 0 0 0 0 0 -1 1" />
            </filter>
            <mask id="h" mask-type="alpha" fill="#fff">
                <g filter="url(#g)">
                    <path d="M0 0h18v20H0z" opacity="0" />
                    <path d="M8.85 10.044L2.13 14.75s7.116 4.78 7.23 4.413c.113-.368 6.462-3.968 6.462-3.968l-6.972-5.15z" />
                </g>
            </mask>
        </defs>
        <path d="M5.014 15.74c3.174 2.203 7.532 1.415 9.735-1.758 2.202-3.174 1.416-7.532-1.758-9.735a6.997 6.997 0 0 0-6.882-.623 6.954 6.954 0 0 0-3.662 3.91 1 1 0 1 0 1.872.705 5.02 5.02 0 1 1 1.363 5.46" mask="url(#h)" opacity=".256" />
    </svg>
    <svg x="144" y="20">
        <defs>
            <mask id="k" mask-type="alpha" fill="#fff">
                <path d="M.31-4.362a6.07 6.07 0 0 1 6.067 6.067A6.07 6.07 0 0 1 .31 7.772a6.07 6.07 0 0 1-6.067-6.067A6.07 6.07 0 0 1 .31-4.362z" />
            </mask>
            <filter id="i">
                <feColorMatrix color-interpolation-filters="sRGB" type="matrix" values="1 0 0 0 0 0 1 0 0 0 0 0 1 0 0 0 0 0 -1 1" />
            </filter>
            <mask id="j" mask-type="alpha" fill="#fff">
                <g filter="url(#i)">
                    <path d="M0 0h18v20H0z" opacity="0" />
                    <path d="M8.85 10.044L.38 13.6s7.95 6.15 8.09 5.69c.142-.46 7.386-4.17 7.386-4.17L8.85 10.044z" />
                </g>
            </mask>
        </defs>
        <path d="M3.14 13.805c2.103 3.24 6.436 4.16 9.675 2.056 3.24-2.103 4.16-6.435 2.057-9.675a6.997 6.997 0 0 0-6.135-3.18 6.954 6.954 0 0 0-4.87 2.235A1 1 0 1 0 5.333 6.6a5.02 5.02 0 1 1-.804 5.57" mask="url(#j)" opacity=".104" />
        <g mask="url(#k)">
            <path d="M8.12 10.527l6.173 6.18a1 1 0 0 0 1.414-.025 1 1 0 0 0 0-1.39l-6.173-6.18" />
            <path d="M9.706 9.268l-6-5.975a1 1 0 0 0-1.413.024 1 1 0 0 0 0 1.39l6 5.975" />
        </g>
    </svg>
    <svg x="162" y="20">
        <defs>
            <mask id="n" mask-type="alpha" fill="#fff">
                <path d="M.556-8.94A10.648 10.648 0 0 1 11.2 1.705 10.648 10.648 0 0 1 .557 12.35 10.648 10.648 0 0 1-10.09 1.705 10.648 10.648 0 0 1 .557-8.94z" />
            </mask>
            <filter id="l">
                <feColorMatrix color-interpolation-filters="sRGB" type="matrix" values="1 0 0 0 0 0 1 0 0 0 0 0 1 0 0 0 0 0 -1 1" />
            </filter>
            <mask id="m" mask-type="alpha" fill="#fff">
                <g filter="url(#l)">
                    <path d="M0 0h18v20H0z" opacity="0" />
                    <path d="M8.85 10.044l-9.2 1.394s7.603 8.78 7.773 8.227c.17-.553 8.467-4.62 8.467-4.62l-7.04-5z" />
                </g>
            </mask>
        </defs>
        <path d="M2.135 11.305c.722 3.795 4.384 6.286 8.18 5.563 3.795-.72 6.286-4.383 5.564-8.178a6.997 6.997 0 0 0-4.477-5.265 6.954 6.954 0 0 0-5.353.227 1 1 0 1 0 .843 1.813 5.02 5.02 0 1 1-2.852 4.852" mask="url(#m)" opacity=".023" />
        <path d="M9.706 9.268l-6-5.975a1 1 0 0 0-1.413.024 1 1 0 0 0 0 1.39l6 5.975" mask="url(#n)" />
    </svg>
    <svg x="180" y="20">
        <defs>
            <mask id="o" mask-type="alpha" fill="#fff">
                <path d="M.728-12.144a13.854 13.854 0 0 1 13.85 13.85A13.854 13.854 0 0 1 .727 15.553a13.854 13.854 0 0 1-13.85-13.85A13.854 13.854 0 0 1 .73-12.143z" />
            </mask>
        </defs>
        <g mask="url(#o)">
            <path d="M8.12 10.527l6.173 6.18a1 1 0 0 0 1.414-.025 1 1 0 0 0 0-1.39l-6.173-6.18" />
            <path d="M9.706 9.268l-6-5.975a1 1 0 0 0-1.413.024 1 1 0 0 0 0 1.39l6 5.975" />
        </g>
    </svg>
    <svg x="198" y="20">
        <defs>
            <mask id="p" mask-type="alpha" fill="#fff">
                <path d="M.842-14.252A15.963 15.963 0 0 1 16.8 1.705 15.963 15.963 0 0 1 .84 17.662 15.963 15.963 0 0 1-15.115 1.705 15.963 15.963 0 0 1 .842-14.252z" />
            </mask>
        </defs>
        <g mask="url(#p)">
            <path d="M8.12 10.527l6.173 6.18a1 1 0 0 0 1.414-.025 1 1 0 0 0 0-1.39l-6.173-6.18" />
            <path d="M9.706 9.268l-6-5.975a1 1 0 0 0-1.413.024 1 1 0 0 0 0 1.39l6 5.975" />
        </g>
    </svg>
    <svg x="216" y="20">
        <defs>
            <mask id="q" mask-type="alpha" fill="#fff">
                <path d="M.922-15.747A17.458 17.458 0 0 1 18.374 1.705 17.458 17.458 0 0 1 .922 19.157 17.458 17.458 0 0 1-16.53 1.705 17.458 17.458 0 0 1 .922-15.747z" />
            </mask>
        </defs>
        <g mask="url(#q)">
            <path d="M8.12 10.527l6.173 6.18a1 1 0 0 0 1.414-.025 1 1 0 0 0 0-1.39l-6.173-6.18" />
            <path d="M9.706 9.268l-6-5.975a1 1 0 0 0-1.413.024 1 1 0 0 0 0 1.39l6 5.975" />
        </g>
    </svg>
    <svg x="234" y="20">
        <defs>
            <mask id="r" mask-type="alpha" fill="#fff">
                <path d="M.982-16.86A18.57 18.57 0 0 1 19.546 1.706 18.57 18.57 0 0 1 .982 20.27 18.57 18.57 0 0 1-17.582 1.704 18.57 18.57 0 0 1 .982-16.86z" />
            </mask>
        </defs>
        <g mask="url(#r)">
            <path d="M8.12 10.527l6.173 6.18a1 1 0 0 0 1.414-.025 1 1 0 0 0 0-1.39l-6.173-6.18" />
            <path d="M9.706 9.268l-6-5.975a1 1 0 0 0-1.413.024 1 1 0 0 0 0 1.39l6 5.975" />
        </g>
    </svg>
    <svg x="252" y="20">
        <defs>
            <mask id="s" mask-type="alpha" fill="#fff">
                <path d="M1.027-17.71A19.42 19.42 0 0 1 20.44 1.706 19.42 19.42 0 0 1 1.028 21.12 19.42 19.42 0 0 1-18.387 1.704 19.42 19.42 0 0 1 1.027-17.71z" />
            </mask>
        </defs>
        <g mask="url(#s)">
            <path d="M8.12 10.527l6.173 6.18a1 1 0 0 0 1.414-.025 1 1 0 0 0 0-1.39l-6.173-6.18" />
            <path d="M9.706 9.268l-6-5.975a1 1 0 0 0-1.413.024 1 1 0 0 0 0 1.39l6 5.975" />
        </g>
    </svg>
    <svg x="270" y="20">
        <defs>
            <mask id="u" mask-type="alpha" fill="#fff">
                <path d="M.46 12.297a6.327 6.327 0 0 1 6.325 6.325A6.327 6.327 0 0 1 .46 24.947a6.327 6.327 0 0 1-6.325-6.325A6.327 6.327 0 0 1 .46 12.297z" />
            </mask>
            <mask id="t" mask-type="alpha" fill="#fff">
                <path d="M1.062-18.366a20.077 20.077 0 0 1 20.07 20.07 20.077 20.077 0 0 1-20.07 20.072 20.077 20.077 0 0 1-20.07-20.07A20.077 20.077 0 0 1 1.06-18.367z" />
            </mask>
        </defs>
        <g mask="url(#t)">
            <path d="M8.12 10.527l6.173 6.18a1 1 0 0 0 1.414-.025 1 1 0 0 0 0-1.39l-6.173-6.18" />
            <path d="M9.706 9.268l-6-5.975a1 1 0 0 0-1.413.024 1 1 0 0 0 0 1.39l6 5.975" />
        </g>
        <path d="M7.71 9.883l-5.417 5.41a1 1 0 0 0-.025 1.414 1 1 0 0 0 1.44 0l5.417-5.41m1.2-1.152l5.38-5.438a1 1 0 0 0-.023-1.414 1 1 0 0 0-1.39 0L8.912 8.73" mask="url(#u)" />
    </svg>
    <svg x="288" y="20">
        <defs>
            <mask id="w" mask-type="alpha" fill="#fff">
                <path d="M.704 7.752a10.874 10.874 0 0 1 10.87 10.87 10.874 10.874 0 0 1-10.87 10.87 10.874 10.874 0 0 1-10.87-10.87A10.874 10.874 0 0 1 .704 7.752z" />
            </mask>
            <mask id="v" mask-type="alpha" fill="#fff">
                <path d="M1.09-18.874a20.586 20.586 0 0 1 20.58 20.58A20.586 20.586 0 0 1 1.09 22.283a20.586 20.586 0 0 1-20.58-20.58A20.586 20.586 0 0 1 1.09-18.873z" />
            </mask>
        </defs>
        <g mask="url(#v)">
            <path d="M8.12 10.527l6.173 6.18a1 1 0 0 0 1.414-.025 1 1 0 0 0 0-1.39l-6.173-6.18" />
            <path d="M9.706 9.268l-6-5.975a1 1 0 0 0-1.413.024 1 1 0 0 0 0 1.39l6 5.975" />
        </g>
        <path d="M7.71 9.883l-5.417 5.41a1 1 0 0 0-.025 1.414 1 1 0 0 0 1.44 0l5.417-5.41m1.2-1.152l5.38-5.438a1 1 0 0 0-.023-1.414 1 1 0 0 0-1.39 0L8.912 8.73" mask="url(#w)" />
    </svg>
    <svg x="306" y="20">
        <defs>
            <mask id="y" mask-type="alpha" fill="#fff">
                <path d="M.87 4.63A13.998 13.998 0 0 1 14.865 18.62 13.998 13.998 0 0 1 .87 32.615 13.998 13.998 0 0 1-13.12 18.622 13.998 13.998 0 0 1 .87 4.63z" />
            </mask>
            <mask id="x" mask-type="alpha" fill="#fff">
                <path d="M1.11-19.264a20.976 20.976 0 0 1 20.97 20.97A20.976 20.976 0 0 1 1.11 22.673a20.976 20.976 0 0 1-20.97-20.97A20.976 20.976 0 0 1 1.11-19.263z" />
            </mask>
        </defs>
        <g mask="url(#x)">
            <path d="M8.12 10.527l6.173 6.18a1 1 0 0 0 1.414-.025 1 1 0 0 0 0-1.39l-6.173-6.18" />
            <path d="M9.706 9.268l-6-5.975a1 1 0 0 0-1.413.024 1 1 0 0 0 0 1.39l6 5.975" />
        </g>
        <path d="M7.71 9.883l-5.417 5.41a1 1 0 0 0-.025 1.414 1 1 0 0 0 1.44 0l5.417-5.41m1.2-1.152l5.38-5.438a1 1 0 0 0-.023-1.414 1 1 0 0 0-1.39 0L8.912 8.73" mask="url(#y)" />
    </svg>
    <svg x="324" y="20">
        <defs>
            <mask id="z" mask-type="alpha" fill="#fff">
                <path d="M.982 2.565A16.062 16.062 0 0 1 17.04 18.622 16.062 16.062 0 0 1 .98 34.68 16.062 16.062 0 0 1-15.075 18.62 16.062 16.062 0 0 1 .982 2.565z" />
            </mask>
        </defs>
        <path d="M10.414 10l5.293-5.293a1 1 0 0 0-1.414-1.414L9 8.586 3.707 3.293a1 1 0 0 0-1.414 1.414L7.586 10l-5.293 5.293a1 1 0 1 0 1.414 1.414L9 11.414l5.293 5.293a1 1 0 0 0 1.414-1.414z" mask="url(#z)" />
    </svg>
    <svg x="342" y="20">
        <defs>
            <mask id="A" mask-type="alpha" fill="#fff">
                <path d="M1.06 1.097a17.53 17.53 0 0 1 17.525 17.525A17.53 17.53 0 0 1 1.06 36.147a17.53 17.53 0 0 1-17.525-17.525A17.53 17.53 0 0 1 1.06 1.097z" />
            </mask>
        </defs>
        <path d="M10.414 10l5.293-5.293a1 1 0 0 0-1.414-1.414L9 8.586 3.707 3.293a1 1 0 0 0-1.414 1.414L7.586 10l-5.293 5.293a1 1 0 1 0 1.414 1.414L9 11.414l5.293 5.293a1 1 0 0 0 1.414-1.414z" mask="url(#A)" />
    </svg>
    <svg x="360" y="20">
        <defs>
            <mask id="B" mask-type="alpha" fill="#fff">
                <path d="M1.12.003a18.626 18.626 0 0 1 18.62 18.62A18.626 18.626 0 0 1 1.12 37.24 18.626 18.626 0 0 1-17.5 18.623 18.626 18.626 0 0 1 1.12.002z" />
            </mask>
        </defs>
        <path d="M10.414 10l5.293-5.293a1 1 0 0 0-1.414-1.414L9 8.586 3.707 3.293a1 1 0 0 0-1.414 1.414L7.586 10l-5.293 5.293a1 1 0 1 0 1.414 1.414L9 11.414l5.293 5.293a1 1 0 0 0 1.414-1.414z" mask="url(#B)" />
    </svg>
    <svg x="378" y="20">
        <defs>
            <mask id="C" mask-type="alpha" fill="#fff">
                <path d="M1.164-.834A19.463 19.463 0 0 1 20.62 18.622 19.463 19.463 0 0 1 1.164 38.078a19.463 19.463 0 0 1-19.456-19.456A19.463 19.463 0 0 1 1.164-.834z" />
            </mask>
        </defs>
        <path d="M10.414 10l5.293-5.293a1 1 0 0 0-1.414-1.414L9 8.586 3.707 3.293a1 1 0 0 0-1.414 1.414L7.586 10l-5.293 5.293a1 1 0 1 0 1.414 1.414L9 11.414l5.293 5.293a1 1 0 0 0 1.414-1.414z" mask="url(#C)" />
    </svg>
    <svg x="396" y="20">
        <defs>
            <mask id="D" mask-type="alpha" fill="#fff">
                <path d="M1.2-1.482a20.11 20.11 0 0 1 20.104 20.104A20.11 20.11 0 0 1 1.2 38.726a20.11 20.11 0 0 1-20.104-20.104A20.11 20.11 0 0 1 1.2-1.482z" />
            </mask>
        </defs>
        <path d="M10.414 10l5.293-5.293a1 1 0 0 0-1.414-1.414L9 8.586 3.707 3.293a1 1 0 0 0-1.414 1.414L7.586 10l-5.293 5.293a1 1 0 1 0 1.414 1.414L9 11.414l5.293 5.293a1 1 0 0 0 1.414-1.414z" mask="url(#D)" />
    </svg>
    <svg x="414" y="20">
        <defs>
            <mask id="E" mask-type="alpha" fill="#fff">
                <path d="M1.226-1.982A20.61 20.61 0 0 1 21.83 18.622 20.61 20.61 0 0 1 1.226 39.226a20.61 20.61 0 0 1-20.604-20.604A20.61 20.61 0 0 1 1.226-1.982z" />
            </mask>
        </defs>
        <path d="M10.414 10l5.293-5.293a1 1 0 0 0-1.414-1.414L9 8.586 3.707 3.293a1 1 0 0 0-1.414 1.414L7.586 10l-5.293 5.293a1 1 0 1 0 1.414 1.414L9 11.414l5.293 5.293a1 1 0 0 0 1.414-1.414z" mask="url(#E)" />
    </svg>
    <svg x="432" y="20">
        <mask id="F" mask-type="alpha" fill="#fff">
            <path d="M1.15-20.02A21.733 21.733 0 0 1 22.878 1.704 21.733 21.733 0 0 1 1.15 23.43 21.733 21.733 0 0 1-20.574 1.706 21.733 21.733 0 0 1 1.15-20.02z" />
        </mask>
        <path d="M10.414 10l5.293-5.293a1 1 0 0 0-1.414-1.414L9 8.586 3.707 3.293a1 1 0 0 0-1.414 1.414L7.586 10l-5.293 5.293a1 1 0 1 0 1.414 1.414L9 11.414l5.293 5.293a1 1 0 0 0 1.414-1.414z" mask="url(#F)" />
    </svg>
    <svg x="450" y="20">
        <path d="M10.414 10l5.293-5.293a1 1 0 0 0-1.414-1.414L9 8.586 3.707 3.293a1 1 0 0 0-1.414 1.414L7.586 10l-5.293 5.293a1 1 0 1 0 1.414 1.414L9 11.414l5.293 5.293a1 1 0 0 0 1.414-1.414z" mask="url(#F)" />
    </svg>
</svg>