<?xml version="1.0" encoding="utf-8"?>
<!-- Generator: Adobe Illustrator 22.0.0, SVG Export Plug-In . SVG Version: 6.00 Build 0)  -->
<svg version="1.1" id="Calque_1" xmlns="http://www.w3.org/2000/svg" xmlns:xlink="http://www.w3.org/1999/xlink" x="0px" y="0px"
	 width="18px" height="140px" viewBox="0 0 18 140" enable-background="new 0 0 18 140" xml:space="preserve">
<path d="M16,9H4.4l4.3-4.3c0.4-0.4,0.4-1,0-1.4c-0.4-0.4-1-0.4-1.4,0l-6,6c-0.4,0.4-0.4,1,0,1.4l6,6c0.4,0.4,1,0.4,1.4,0
	c0.4-0.4,0.4-1,0-1.4L4.4,11H16c0.6,0,1-0.4,1-1S16.6,9,16,9z"/>
<path d="M16.7,49.3l-7-7c-0.4-0.4-1-0.4-1.4,0l-7,7c-0.4,0.4-0.4,1,0,1.4c0.4,0.4,1,0.4,1.4,0L3,50.4V56c0,1.1,0.9,2,2,2h8
	c1.1,0,2-0.9,2-2v-5.6l0.3,0.3c0.4,0.4,1,0.4,1.4,0C17.1,50.3,17.1,49.7,16.7,49.3z M9,53.5C9,53.2,9.2,53,9.5,53s0.5,0.2,0.5,0.5
	S9.8,54,9.5,54S9,53.8,9,53.5z M13,55c0,0.6-0.4,1-1,1h-1v-5c0-0.6-0.4-1-1-1H8c-0.6,0-1,0.4-1,1v5H6c-0.6,0-1-0.4-1-1v-6.6l4-4l4,4
	V55z"/>
<path d="M16.7,29.3l-6-6c-0.4-0.4-1-0.4-1.4,0c-0.4,0.4-0.4,1,0,1.4l4.3,4.3H2c-0.6,0-1,0.4-1,1s0.4,1,1,1h11.6l-4.3,4.3
	c-0.4,0.4-0.4,1,0,1.4c0.4,0.4,1,0.4,1.4,0c0,0,0,0,0,0l6-6C17.1,30.3,17.1,29.7,16.7,29.3z"/>
<path d="M4,63h10c1.7,0,3,1.3,3,3v8c0,1.7-1.3,3-3,3H4c-1.7,0-3-1.3-3-3v-8C1,64.3,2.3,63,4,63z M15,74v-8c0-0.6-0.4-1-1-1H9v10h5
	C14.6,75,15,74.6,15,74z M3,74c0,0.6,0.4,1,1,1h4V65H4c-0.6,0-1,0.4-1,1V74z"/>
<path d="M4.5,67h2C6.8,67,7,66.8,7,66.5S6.8,66,6.5,66h-2C4.2,66,4,66.2,4,66.5S4.2,67,4.5,67z M4.5,69h2C6.8,69,7,68.8,7,68.5
	S6.8,68,6.5,68h-2C4.2,68,4,68.2,4,68.5S4.2,69,4.5,69z M5.5,71h1C6.8,71,7,70.8,7,70.5S6.8,70,6.5,70h-1C5.2,70,5,70.2,5,70.5
	S5.2,71,5.5,71z"/>
<path d="M4,86h10c0.6,0,1-0.4,1-1s-0.4-1-1-1H4c-0.6,0-1,0.4-1,1S3.4,86,4,86z M14,89H4c-0.6,0-1,0.4-1,1s0.4,1,1,1h10
	c0.6,0,1-0.4,1-1S14.6,89,14,89z M14,94H4c-0.6,0-1,0.4-1,1s0.4,1,1,1h10c0.6,0,1-0.4,1-1S14.6,94,14,94z"/>
<path d="M5.5,105c-0.6,0-1,0.4-1,1v10c0,0.6,0.4,1,1,1s1-0.4,1-1v-10C6.5,105.4,6,105,5.5,105z M8.5,104c-0.6,0-1,0.4-1,1v11
	c0,0.6,0.4,1,1,1s1-0.4,1-1v-11C9.5,104.4,9,104,8.5,104z M16.4,115.6l-4-11c-0.2-0.5-0.7-0.8-1.3-0.6c-0.5,0.2-0.8,0.7-0.6,1.3
	c0,0,0,0,0,0l4,11c0.2,0.5,0.7,0.8,1.3,0.6C16.3,116.8,16.6,116.2,16.4,115.6C16.4,115.7,16.4,115.7,16.4,115.6z M2.5,103
	c-0.6,0-1,0.4-1,1v12c0,0.6,0.4,1,1,1s1-0.4,1-1v-12C3.5,103.4,3,103,2.5,103z"/>
<path d="M9.7,134.7l5-5c0.4-0.4,0.4-1,0-1.4c-0.4-0.4-1-0.4-1.4,0l-3.3,3.3V123c0-0.6-0.4-1-1-1s-1,0.4-1,1v8.6l-3.3-3.3
	c-0.4-0.4-1-0.4-1.4,0c-0.4,0.4-0.4,1,0,1.4c0,0,0,0,0,0l5,5C8.7,135.1,9.3,135.1,9.7,134.7z"/>
<path d="M14,136H4c-0.6,0-1,0.4-1,1c0,0.6,0.4,1,1,1h10c0.6,0,1-0.4,1-1C15,136.4,14.6,136,14,136z"/>
</svg>
