<?xml version="1.0" encoding="utf-8"?>
<!-- Generator: Adobe Illustrator 22.0.0, SVG Export Plug-In . SVG Version: 6.00 Build 0)  -->
<svg version="1.1" id="Calque_1" xmlns="http://www.w3.org/2000/svg" xmlns:xlink="http://www.w3.org/1999/xlink" x="0px" y="0px"
	 width="16px" height="272px" viewBox="0 0 16 272" style="enable-background:new 0 0 16 272;" xml:space="preserve">
<g>
	<path d="M12.5,65.4c0.72,0.5,1.34,1.08,1.85,1.76s0.92,1.43,1.21,2.26C15.85,70.25,16,71.11,16,72c0,0.73-0.1,1.44-0.29,2.12
		c-0.19,0.68-0.46,1.32-0.8,1.91c-0.35,0.59-0.76,1.13-1.25,1.62c-0.49,0.49-1.03,0.9-1.62,1.25c-0.59,0.35-1.23,0.61-1.91,0.8
		S8.73,80,8,80s-1.44-0.09-2.12-0.29s-1.32-0.46-1.91-0.8c-0.59-0.35-1.13-0.76-1.62-1.25c-0.49-0.49-0.9-1.03-1.25-1.62
		c-0.35-0.59-0.61-1.23-0.8-1.91C0.09,73.45,0,72.74,0,72c0-0.73,0.1-1.44,0.29-2.12c0.19-0.69,0.47-1.33,0.82-1.94
		c0.36-0.61,0.79-1.16,1.3-1.66c0.51-0.5,1.09-0.92,1.73-1.28H2v-1h4v4H5v-2.32c-0.61,0.29-1.16,0.66-1.65,1.1
		c-0.49,0.44-0.91,0.93-1.26,1.48c-0.35,0.55-0.62,1.14-0.8,1.78C1.09,70.68,1,71.33,1,72c0,0.64,0.08,1.26,0.25,1.86
		c0.17,0.6,0.4,1.15,0.71,1.67c0.3,0.52,0.67,0.99,1.1,1.42c0.43,0.43,0.9,0.79,1.42,1.1c0.52,0.3,1.07,0.54,1.67,0.71
		C6.73,78.92,7.35,79,8,79c0.64,0,1.26-0.08,1.85-0.25c0.6-0.17,1.15-0.4,1.67-0.71c0.52-0.3,0.99-0.67,1.42-1.1
		c0.43-0.43,0.79-0.9,1.1-1.42c0.3-0.52,0.54-1.07,0.71-1.67C14.91,73.27,15,72.65,15,72c0-0.78-0.13-1.53-0.38-2.26
		c-0.25-0.72-0.61-1.38-1.06-1.98s-0.99-1.11-1.62-1.54c-0.63-0.43-1.32-0.76-2.07-0.96l0.27-0.96C10.99,64.54,11.79,64.9,12.5,65.4
		z"/>
</g>
<g>
	<path d="M8,1.29l7.35,7.36l-0.7,0.7L14,8.71V15H9v-5H7v5H2V8.71L1.35,9.35l-0.7-0.7L8,1.29z M13,14V7.71l-5-5l-5,5V14h3V9h4v5H13z"
		/>
</g>
<g>
	<path d="M11.06,57.8L13,64l-5-3.84L3,64l1.94-6.2L0,54h6.12L8,48l1.87,6H16L11.06,57.8z M11.1,61.28c-0.2-0.65-0.4-1.29-0.59-1.93
		c-0.2-0.64-0.4-1.28-0.61-1.92c0.54-0.4,1.06-0.8,1.59-1.21c0.52-0.41,1.05-0.81,1.58-1.22H9.14L8,51.35L6.86,55H2.94
		c0.53,0.41,1.06,0.81,1.58,1.22c0.52,0.41,1.05,0.81,1.59,1.21c-0.21,0.65-0.41,1.29-0.61,1.92s-0.4,1.28-0.59,1.93L8,58.89
		L11.1,61.28z"/>
</g>
<g>
	<polygon points="11.06,265.8 13,272 8,268.16 3,272 4.94,265.8 0,262 6.12,262 8,256 9.87,262 16,262 	"/>
</g>
<g>
	<path d="M16,40.5H1.95l6.15,6.15l-0.7,0.7L0.05,40l7.35-7.35l0.7,0.7L1.95,39.5H16V40.5z"/>
</g>
<g>
	<path d="M15.95,24L8.6,31.35l-0.7-0.7l6.15-6.15H0v-1h14.04L7.9,17.36l0.7-0.7L15.95,24z"/>
</g>
<g>
	<path d="M11,108l1-1v3H0v-10h1v9h10V108z M10,104c-0.67,0-1.32,0.07-1.96,0.2s-1.25,0.33-1.85,0.59s-1.16,0.57-1.7,0.95
		C3.96,106.1,3.46,106.53,3,107v-1c0-0.65,0.08-1.27,0.25-1.86c0.17-0.6,0.4-1.15,0.71-1.67c0.3-0.52,0.67-0.99,1.09-1.41
		c0.42-0.42,0.9-0.79,1.41-1.09s1.08-0.54,1.67-0.71C8.73,99.09,9.35,99,10,99v-3l5.5,5.5L10,107V104z M11,100
		c-0.32,0-0.61,0-0.89,0s-0.55,0.02-0.81,0.04c-0.26,0.03-0.53,0.07-0.79,0.14s-0.55,0.16-0.84,0.29c-0.45,0.19-0.87,0.43-1.26,0.72
		c-0.39,0.29-0.73,0.62-1.04,1c-0.3,0.37-0.56,0.78-0.77,1.21s-0.37,0.89-0.46,1.37c0.88-0.58,1.81-1.02,2.8-1.32
		C7.92,103.15,8.95,103,10,103h1v1.59l3.08-3.08L11,98.42V100z"/>
</g>
<g>
	<path d="M12,133h2.32c-0.29-0.61-0.66-1.16-1.1-1.65s-0.93-0.91-1.48-1.26c-0.55-0.35-1.14-0.62-1.78-0.8S8.67,129,8,129
		c-0.64,0-1.26,0.08-1.85,0.25c-0.6,0.17-1.15,0.4-1.67,0.71c-0.52,0.3-0.99,0.67-1.42,1.1c-0.43,0.43-0.79,0.9-1.1,1.42
		s-0.54,1.08-0.71,1.67C1.08,134.74,1,135.36,1,136s0.08,1.26,0.25,1.86c0.17,0.6,0.4,1.15,0.71,1.67c0.3,0.52,0.67,0.99,1.1,1.42
		c0.43,0.43,0.9,0.79,1.42,1.1c0.52,0.3,1.07,0.54,1.67,0.71C6.73,142.92,7.35,143,8,143c0.78,0,1.53-0.13,2.26-0.38
		c0.72-0.25,1.38-0.61,1.98-1.06c0.59-0.45,1.11-0.99,1.54-1.62c0.43-0.63,0.76-1.32,0.96-2.07l0.96,0.26
		c-0.23,0.87-0.6,1.66-1.1,2.38c-0.5,0.72-1.09,1.34-1.77,1.85c-0.68,0.52-1.43,0.92-2.26,1.21C9.75,143.86,8.89,144,8,144
		c-0.73,0-1.44-0.09-2.12-0.29s-1.32-0.46-1.91-0.8c-0.59-0.35-1.13-0.76-1.62-1.25c-0.49-0.49-0.9-1.03-1.25-1.62
		c-0.35-0.59-0.61-1.23-0.8-1.91C0.09,137.45,0,136.74,0,136c0-0.73,0.09-1.44,0.29-2.12c0.19-0.68,0.46-1.32,0.8-1.91
		c0.35-0.59,0.76-1.13,1.25-1.62c0.49-0.49,1.03-0.9,1.62-1.25c0.59-0.35,1.23-0.61,1.91-0.8S7.26,128,8,128
		c0.73,0,1.44,0.1,2.12,0.29s1.33,0.47,1.94,0.82s1.16,0.79,1.66,1.3c0.5,0.51,0.92,1.09,1.28,1.73V130h1v4h-4V133z M8,132v4.29
		l2.85,2.86l-0.7,0.7L7,136.71V132H8z"/>
</g>
<g>
	<path d="M13,147v1H0v-1H13z M0,151h16v1H0V151z M0,156v-1h10v1H0z"/>
</g>
<g>
	<path d="M1,190v-12h3v12H1z M2,179v10h1v-10H2z M5,190v-12h3v12H5z M6,179v10h1v-10H6z M11.65,177.82l3.78,11.33l-2.7,0.91
		l-3.78-11.33L11.65,177.82z M10.05,179.28l3.22,9.67l1.05-0.34l-3.23-9.67L10.05,179.28z"/>
</g>
<g>
	<path d="M12.35,88.35L7.5,93.24l-4.85-4.89l0.7-0.7L7,91.32V80h1v11.32l3.65-3.67L12.35,88.35z M3,96v-1h9v1H3z"/>
</g>
<g>
	<path d="M2.5,230c-0.34,0-0.67-0.07-0.97-0.2c-0.3-0.13-0.57-0.31-0.79-0.54s-0.41-0.49-0.54-0.79S0,227.85,0,227.5
		s0.07-0.67,0.2-0.97c0.13-0.3,0.31-0.57,0.54-0.79s0.49-0.41,0.79-0.54c0.3-0.13,0.62-0.2,0.97-0.2s0.67,0.07,0.97,0.2
		c0.3,0.13,0.57,0.31,0.79,0.54s0.41,0.49,0.54,0.79c0.13,0.3,0.2,0.62,0.2,0.97H4c0-0.21-0.04-0.4-0.12-0.59
		c-0.08-0.18-0.19-0.34-0.32-0.48c-0.14-0.13-0.29-0.24-0.48-0.32C2.9,226.04,2.71,226,2.5,226c-0.21,0-0.4,0.04-0.59,0.12
		s-0.34,0.19-0.48,0.32c-0.14,0.14-0.24,0.29-0.32,0.48C1.04,227.1,1,227.29,1,227.5s0.04,0.4,0.12,0.59s0.19,0.34,0.32,0.48
		s0.29,0.24,0.48,0.32S2.29,229,2.5,229H14v1H2.5z M14,236H0v-1h14V236z M2,232h14v1H2V232z M2,238h14v1H2V238z M16,226v1H7v-1H16z"
		/>
</g>
<g>
	<path d="M2,119c0.14,0,0.27,0.03,0.39,0.08c0.12,0.05,0.23,0.12,0.32,0.21c0.09,0.09,0.16,0.2,0.21,0.32
		C2.97,119.73,3,119.86,3,120s-0.03,0.27-0.08,0.39c-0.05,0.12-0.12,0.23-0.21,0.32c-0.09,0.09-0.2,0.16-0.32,0.21
		C2.27,120.98,2.14,121,2,121s-0.27-0.03-0.39-0.08s-0.23-0.12-0.32-0.21c-0.09-0.09-0.16-0.2-0.21-0.32C1.03,120.27,1,120.14,1,120
		s0.03-0.27,0.08-0.39c0.05-0.12,0.12-0.22,0.21-0.32c0.09-0.09,0.2-0.16,0.32-0.21C1.73,119.03,1.86,119,2,119z M8,119
		c0.14,0,0.27,0.03,0.39,0.08c0.12,0.05,0.23,0.12,0.32,0.21c0.09,0.09,0.16,0.2,0.21,0.32C8.97,119.73,9,119.86,9,120
		s-0.03,0.27-0.08,0.39c-0.05,0.12-0.12,0.23-0.21,0.32c-0.09,0.09-0.2,0.16-0.32,0.21C8.27,120.98,8.14,121,8,121
		s-0.27-0.03-0.39-0.08s-0.23-0.12-0.32-0.21c-0.09-0.09-0.16-0.2-0.21-0.32C7.03,120.27,7,120.14,7,120s0.03-0.27,0.08-0.39
		c0.05-0.12,0.12-0.22,0.21-0.32c0.09-0.09,0.2-0.16,0.32-0.21C7.73,119.03,7.86,119,8,119z M14,119c0.14,0,0.27,0.03,0.39,0.08
		c0.12,0.05,0.23,0.12,0.32,0.21c0.09,0.09,0.16,0.2,0.21,0.32c0.05,0.12,0.08,0.25,0.08,0.39s-0.03,0.27-0.08,0.39
		c-0.05,0.12-0.12,0.23-0.21,0.32c-0.09,0.09-0.2,0.16-0.32,0.21C14.27,120.98,14.14,121,14,121s-0.27-0.03-0.39-0.08
		s-0.23-0.12-0.32-0.21c-0.09-0.09-0.16-0.2-0.21-0.32C13.02,120.27,13,120.14,13,120s0.03-0.27,0.08-0.39
		c0.05-0.12,0.12-0.22,0.21-0.32c0.09-0.09,0.2-0.16,0.32-0.21C13.73,119.03,13.86,119,14,119z"/>
</g>
<g>
	<path d="M8.71,216l5.39,5.4l-0.7,0.7L8,216.71l-5.4,5.39l-0.7-0.7l5.39-5.4l-5.39-5.4l0.7-0.7l5.4,5.39l5.4-5.39l0.7,0.7L8.71,216z
		"/>
</g>
<g>
	<path d="M0.7,206.04c0.05,0.03,0.11,0.07,0.17,0.12c0.28,0.27,0.56,0.47,0.85,0.62S2.36,207,2.75,207c0.38,0,0.72-0.07,1.03-0.22
		c0.31-0.15,0.6-0.36,0.85-0.62c0.35-0.37,0.75-0.65,1.19-0.85c0.44-0.2,0.91-0.3,1.43-0.3c0.43,0,0.81,0.06,1.13,0.18
		c0.32,0.12,0.62,0.27,0.89,0.47c0.27,0.2,0.53,0.43,0.78,0.69c0.25,0.26,0.52,0.53,0.8,0.81c0.1,0.1,0.15,0.22,0.15,0.35
		c0,0.14-0.05,0.25-0.15,0.35c-0.1,0.1-0.22,0.15-0.35,0.15c-0.14,0-0.25-0.05-0.35-0.15c-0.01-0.01-0.04-0.04-0.1-0.1
		s-0.12-0.12-0.2-0.2c-0.08-0.07-0.16-0.15-0.24-0.23c-0.08-0.08-0.16-0.16-0.23-0.23s-0.15-0.15-0.25-0.25
		c-0.25-0.27-0.53-0.47-0.85-0.62S7.61,206,7.25,206c-0.37,0-0.72,0.07-1.03,0.22s-0.6,0.36-0.85,0.62
		c-0.35,0.37-0.75,0.66-1.19,0.86c-0.44,0.2-0.91,0.3-1.43,0.3c-0.23,0-0.47-0.03-0.72-0.08c-0.25-0.05-0.48-0.13-0.71-0.23
		s-0.44-0.22-0.65-0.36c-0.2-0.14-0.38-0.31-0.54-0.49C0.05,206.74,0,206.62,0,206.5c0-0.14,0.05-0.26,0.15-0.36
		c0.1-0.1,0.22-0.14,0.35-0.14C0.58,206,0.65,206.01,0.7,206.04z M6.12,193.81c-0.08-0.15-0.12-0.32-0.12-0.5
		c0-0.19,0.05-0.36,0.14-0.5s0.23-0.25,0.39-0.33l0.73-0.37c0.15-0.08,0.31-0.12,0.48-0.12s0.3,0.03,0.41,0.09s0.2,0.14,0.28,0.24
		c0.08,0.1,0.14,0.21,0.2,0.33c0.06,0.12,0.12,0.25,0.18,0.37C8.88,193.01,8.93,193,9,193c0.09,0,0.18,0.02,0.26,0.07
		s0.14,0.11,0.18,0.2l0.55,1.11c0.16-0.08,0.32-0.16,0.48-0.25c0.16-0.09,0.34-0.13,0.52-0.13c0.19,0,0.35,0.05,0.49,0.14
		c0.14,0.1,0.25,0.23,0.34,0.39l1.87,3.73c0.04,0.08,0.05,0.16,0.05,0.23c0,0.14-0.05,0.25-0.15,0.35c-0.1,0.1-0.22,0.15-0.35,0.15
		c-0.09,0-0.18-0.02-0.26-0.07c-0.08-0.05-0.14-0.12-0.18-0.2l-1.85-3.7l-0.51,0.25l4.5,9c0.04,0.07,0.05,0.14,0.05,0.23v1.29
		c0,0.24-0.07,0.47-0.2,0.68c0.03,0.06,0.06,0.13,0.12,0.22c0.05,0.09,0.1,0.18,0.15,0.29c0.05,0.1,0.09,0.2,0.13,0.29
		c0.04,0.09,0.05,0.17,0.05,0.23c0,0.14-0.05,0.25-0.15,0.35c-0.1,0.1-0.22,0.15-0.35,0.15c-0.09,0-0.18-0.02-0.26-0.07
		s-0.14-0.12-0.18-0.2l-0.37-0.73C13.91,207,13.88,207,13.86,207s-0.05,0-0.07,0c-0.19,0-0.37-0.04-0.54-0.12l-1.35-0.68
		c-0.1-0.05-0.17-0.12-0.22-0.22l-5.52-11.05c-0.02-0.04-0.03-0.07-0.04-0.11c-0.01-0.04-0.02-0.08-0.02-0.12
		c0-0.09,0.02-0.17,0.07-0.25s0.11-0.14,0.18-0.18C6.28,194.12,6.2,193.97,6.12,193.81z M7.7,193.03l-0.68,0.34l0.23,0.45l0.68-0.34
		L7.7,193.03z M12.5,205.38c0.03,0.02,0.08,0.04,0.15,0.08c0.07,0.04,0.15,0.08,0.23,0.12s0.18,0.09,0.28,0.14
		c0.1,0.05,0.19,0.09,0.27,0.14c0.09,0.04,0.16,0.08,0.23,0.1c0.07,0.03,0.11,0.04,0.13,0.04c0.06,0,0.11-0.02,0.15-0.06
		c0.04-0.04,0.06-0.09,0.06-0.15v-1.17l-5.22-10.44l-1.5,0.75L12.5,205.38z"/>
</g>
<g>
	<path d="M14,167v9H2v-9h2v-2.92c0-0.56,0.1-1.09,0.3-1.59c0.2-0.49,0.48-0.93,0.84-1.3c0.36-0.37,0.78-0.66,1.27-0.88
		S7.43,160,8,160s1.09,0.11,1.58,0.32s0.91,0.5,1.27,0.88c0.36,0.37,0.64,0.8,0.84,1.3c0.2,0.5,0.3,1.02,0.3,1.59V167H14z M13,168H3
		v7h10V168z M5,167h6v-2.92c0-0.42-0.08-0.82-0.23-1.19c-0.15-0.37-0.36-0.7-0.63-0.98c-0.27-0.28-0.59-0.5-0.95-0.66
		C8.82,161.08,8.43,161,8,161c-0.43,0-0.82,0.08-1.19,0.24c-0.37,0.16-0.69,0.38-0.95,0.66c-0.27,0.28-0.48,0.61-0.63,0.98
		C5.08,163.26,5,163.66,5,164.08V167z"/>
</g>
<g>
	<path d="M16,246v1H9.14c-0.19-0.61-0.38-1.22-0.57-1.82s-0.38-1.21-0.57-1.82c-0.19,0.61-0.38,1.22-0.57,1.82s-0.38,1.21-0.57,1.82
		H2.94c0.53,0.41,1.06,0.81,1.58,1.22s1.05,0.81,1.59,1.21c-0.21,0.65-0.41,1.29-0.61,1.93s-0.4,1.28-0.59,1.93
		c0.52-0.4,1.04-0.8,1.55-1.2s1.03-0.79,1.55-1.2v1.27L3,256l1.94-6.2L0,246h6.12L8,240l1.88,6H16z M9,249h7v1H9V249z M9,252h7v1H9
		V252z"/>
</g>
</svg>
