<svg xmlns="http://www.w3.org/2000/svg" xmlns:xlink="http://www.w3.org/1999/xlink" width="24px" height="224px" viewBox="0 0 24 224" >
    <defs>
        <linearGradient id="g" x1="0%" y1="0%" x2="0%" y2="100%" gradientUnits="objectBoundingBox">
            <stop offset="0%" style="stop-color:black;" />
            <stop offset="100%" style="stop-color:#444444;" />
        </linearGradient>
        <filter id="b" filterRes="96 896" filterUnits="userSpaceOnUse">
            <feGaussianBlur in="SourceAlpha" stdDeviation="0.5" result="a" />
            <feOffset in="a" dx="0" dy="1" result="d" />
            <feFlood flood-color="white" flood-opacity="0.5" result="c" />
            <feComposite in="c" in2="d" operator="in" result="b" />
            <feComposite operator="xor" in="b" in2="SourceGraphic" />
        </filter>
    </defs>
    <g filter="url(#b)">
    	 <path fill="url(#g)" d="M15,2c-2.5,0-3,2-3,2s-0.3-2-2.9-2C6.6,2,6,4,6,4v6.1l0.7,0C7.2,9.6,7.8,9,9.2,9c2.5,0,2.9,2,2.9,2s0.5-2,3-2
	c1.4,0,1.8,0.6,2.3,1.1H18V4C18,4,17.6,2,15,2 M11.5,8.8c0,0-0.1-1-2.1-1c-2,0-2.3,0.8-2.3,0.8v-4c0,0,0.2-1.4,2.3-1.4
	c2,0,2.1,2,2.1,2V8.8z M16.9,8.6c0,0-0.1-0.8-2.1-0.8c-2,0-2.3,1-2.3,1V5.2c0,0,0.3-2,2.3-2c2.1,0,2.1,1.5,2.1,1.5V8.6z M4,0h16v1H4
	 M4,11h16v1H4" />
    <path fill="url(#g)" d="M15.8,17.6c-3.4,0-3.8,2.2-3.8,2.2s-0.4-2.2-3.8-2.2c-3.4,0-4.2,2.2-4.2,2.2v8.2h1.4c0.7-0.5,0.9-0.7,2.8-0.7
		c3.1,0,3.8,2.4,3.8,2.4s0.7-2.4,3.8-2.4c1.8,0,2.1,0.1,2.8,0.7H20v-8.2C20,19.9,19.2,17.6,15.8,17.6 M11,21v5.5
		c0,0-0.7-0.8-2.6-0.8c-2,0-2.7,0.8-2.7,0.8v-5.5c0,0,0-1.6,2.8-1.6C11.1,19.2,11,21,11,21 M18.4,20.9v5.5c0,0-0.8-0.8-2.7-0.8
		S13,26.5,13,26.5V21c0,0-0.1-1.7,2.6-1.7C18.4,19.2,18.4,20.9,18.4,20.9" />
    <path fill="url(#g)" d="M18.6,39.9l-0.1,0l0-0.1c-0.1-2.9-2.4-5.2-5.2-5.2c-1.8,0-3.5,1-4.4,2.7l-0.1,0.1l-0.1-0.1C8.4,37,8,36.9,7.6,36.9
	c-1.4,0-2.6,1.1-2.7,2.6v0.1l-0.1,0c-0.5,0.2-1,0.6-1.4,1.1c-0.6,0.7-0.9,1.7-0.9,2.7c0,2.2,1.7,4.1,3.8,4.1h11.6
	c2,0,3.6-1.7,3.6-3.8C21.5,41.8,20.3,40.2,18.6,39.9z M17.9,46.1H6.3c-1.3,0-2.4-1.2-2.4-2.7c0-0.7,0.2-1.3,0.6-1.8
	c0.2-0.3,0.5-0.5,0.9-0.7l0.8-0.3l0.1-0.9c0.1-0.8,0.6-1.4,1.3-1.4c0.2,0,0.3,0,0.5,0.1l1.3,0.7l0.7-1.3c0.7-1.2,1.9-2,3.2-2
	c2,0,3.7,1.7,3.8,3.9l0.1,1.2l1.1,0.2c1,0.2,1.8,1.2,1.8,2.4C20.1,45,19.1,46.1,17.9,46.1z" />
    <path fill="url(#g)" d="M12,52.1c-3.8,0-6.9,3.1-6.9,6.9c0,3.8,3.1,6.9,6.9,6.9c3.8,0,6.9-3.1,6.9-6.9C18.9,55.2,15.8,52.1,12,52.1z M12,63l-4-4h2
		v-4h4v4h2L12,63z" />
    <path fill="url(#g)" d="M4,71v12h16V71H4z M18,72l-6,4.9L6,72H18z M5,72.8l4.5,3.5L5,80.8V72.8z M19,82H5v-0.5l4.9-5l2.1,1.6l2.1-1.6l4.9,5V82z
		 M19,80.8l-4.5-4.5l4.5-3.5V80.8z" />
    <path fill="url(#g)" d="M12,87.1c-3.8,0-6.9,3.1-6.9,6.9c0,3.8,3.1,6.9,6.9,6.9c3.8,0,6.9-3.1,6.9-6.9C18.9,90.2,15.8,87.1,12,87.1 M12,98.9
	c-2.7,0-4.9-2.2-4.9-4.9c0-2.7,2.2-4.9,4.9-4.9c2.7,0,4.9,2.2,4.9,4.9C16.9,96.7,14.7,98.9,12,98.9 M14.6,95h-2.9
	c-0.2,0-0.5-0.2-0.6-0.5c0,0-0.1-0.1-0.1-0.1c0,0,0,0,0,0c0-0.1-0.1-0.1-0.1-0.2v-3.5c0-0.5,0.4-0.9,1-0.9c0.6,0,1,0.5,1,0.9V93h1.6
	c0.4,0,0.7,0.4,0.7,1C15.3,94.6,15,95,14.6,95" />
    <path fill="url(#g)" d="M19.3,113l-1.3,1.3l-5.9-5.9l-6,6L4.7,113l7.3-7.3l0.1,0.1l0,0L19.3,113z M15.2,117.3H8.8l0-4.8l-1.8,2v4.6h10v-4.7l-1.8-2
	L15.2,117.3z M15,108h1v-2h-2v1h1V108z M13,115v-2h-2v4h2v-1h-1v-1H13z" />
    <path fill="url(#g)" d="M4,125.2c3,0,2.7,3,2.7,3.9s0,3.6,0,4.1s0.5,1,1.1,1h8.5c0.5,0,1-0.5,1-1.1v-3.9c0-1.3-0.3-4,2.7-4h2c0,0,0,1.7,0,1.7
	s-0.5,0-1,0c-1,0-2,0-2,1v6c0,1-1,2-2,2H7c-1,0-2-1-2-2v-6c0-1-1-1-2-1l-1,0v-1.8H4z M9,131h2v2h2v-2h2v-2h-2v-2h-2v2H9V131z" />
    <path fill="url(#g)" d="M7.1,143.7c0,0.2-0.1,0.3-0.3,0.3H5.4c-0.2,0-0.3-0.1-0.3-0.3v-1.3c0-0.2,0.1-0.3,0.3-0.3h1.4c0.2,0,0.3,0.1,0.3,0.3V143.7z
	 M7.1,146.3c0-0.2-0.1-0.3-0.3-0.3H5.4c-0.2,0-0.3,0.1-0.3,0.3v1.3c0,0.2,0.1,0.3,0.3,0.3h1.4c0.2,0,0.3-0.1,0.3-0.3V146.3z
	 M7.1,150.3c0-0.2-0.1-0.3-0.3-0.3H5.4c-0.2,0-0.3,0.1-0.3,0.3v1.3c0,0.2,0.1,0.3,0.3,0.3h1.4c0.2,0,0.3-0.1,0.3-0.3V150.3z
	 M11,142.4c0-0.2-0.1-0.3-0.3-0.3H9.3c-0.2,0-0.3,0.1-0.3,0.3v1.3c0,0.2,0.1,0.3,0.3,0.3h1.4c0.2,0,0.3-0.1,0.3-0.3V142.4z
	 M11,146.3c0-0.2-0.1-0.3-0.3-0.3H9.3c-0.2,0-0.3,0.1-0.3,0.3v1.3c0,0.2,0.1,0.3,0.3,0.3h1.4c0.2,0,0.3-0.1,0.3-0.3V146.3z
	 M11,150.3c0-0.2-0.1-0.3-0.3-0.3H9.3c-0.2,0-0.3,0.1-0.3,0.3v1.3c0,0.2,0.1,0.3,0.3,0.3h1.4c0.2,0,0.3-0.1,0.3-0.3V150.3z
	 M15,142.4c0-0.2-0.1-0.3-0.3-0.3h-1.4c-0.2,0-0.3,0.1-0.3,0.3v1.3c0,0.2,0.1,0.3,0.3,0.3h1.4c0.2,0,0.3-0.1,0.3-0.3V142.4z
	 M15,146.3c0-0.2-0.1-0.3-0.3-0.3h-1.4c-0.2,0-0.3,0.1-0.3,0.3v1.3c0,0.2,0.1,0.3,0.3,0.3h1.4c0.2,0,0.3-0.1,0.3-0.3V146.3z
	 M15,150.3c0-0.2-0.1-0.3-0.3-0.3h-1.4c-0.2,0-0.3,0.1-0.3,0.3v1.3c0,0.2,0.1,0.3,0.3,0.3h1.4c0.2,0,0.3-0.1,0.3-0.3V150.3z
	 M19,142.4c0-0.2-0.1-0.3-0.3-0.3h-1.4c-0.2,0-0.3,0.1-0.3,0.3v1.3c0,0.2,0.1,0.3,0.3,0.3h1.4c0.2,0,0.3-0.1,0.3-0.3V142.4z
	 M19,146.3c0-0.2-0.1-0.3-0.3-0.3h-1.4c-0.2,0-0.3,0.1-0.3,0.3v1.3c0,0.2,0.1,0.3,0.3,0.3h1.4c0.2,0,0.3-0.1,0.3-0.3V146.3z
	 M19,150.3c0-0.2-0.1-0.3-0.3-0.3h-1.4c-0.2,0-0.3,0.1-0.3,0.3v1.3c0,0.2,0.1,0.3,0.3,0.3h1.4c0.2,0,0.3-0.1,0.3-0.3V150.3z" />
    <path fill="url(#g)" d="M12.1,156c-3.8,0-6.9,3.1-6.9,6.9c0,3.8,3.1,6.9,6.9,6.9c3.8,0,6.9-3.1,6.9-6.9C19,159.1,15.9,156,12.1,156 M12.1,167.8
	c-2.7,0-4.9-2.2-4.9-4.9c0-2.7,2.2-4.9,4.9-4.9c2.7,0,4.9,2.2,4.9,4.9C17,165.7,14.8,167.8,12.1,167.8 M11.2,159.2
	c0.2-0.2,0.5-0.2,0.8-0.2c0.3,0,0.6,0.1,0.8,0.2c0.2,0.2,0.3,0.4,0.3,0.6c0,0.2-0.1,0.4-0.3,0.6c-0.2,0.2-0.5,0.2-0.8,0.2
	c-0.3,0-0.6-0.1-0.8-0.2c-0.2-0.2-0.3-0.4-0.3-0.6C10.9,159.6,11,159.4,11.2,159.2 M14,166h-4l0-0.6c0.2,0,0.4-0.1,0.4-0.2
	c0.1-0.1,0.6-0.3,0.6-0.6v-2.4c0-0.2-0.4-0.4-0.5-0.5c-0.1-0.1-0.2-0.2-0.5-0.2V161h3v3.7c0,0.3,0.2,0.4,0.4,0.5
	c0.2,0.1,0.4,0.2,0.7,0.2L14,166z" />
    <polygon fill="url(#g)" points="10,176.5 10,185.5 18,181 " />
    <polygon fill="url(#g)" points="14,192.5 14,201.5 6,197 " />
    <path fill="url(#g)" opacity="0.6" d="M17.3,216.4v0.3c0,0.5-0.5,1.1-1,1.1H7.8c-0.5,0-1-0.5-1-1.1v-5.4c0-0.5,0.5-1.1,1-1.1h2.5
		c0.8-0.8,1.8-1.3,2.8-1.7H7c-1,0-2,1-2,2v7c0,1,1,2,2,2h10c1,0,2-1,2-2v-2.7L17.3,216.4z" />
    <path fill="url(#g)" d="M16,215.5v-3.2c-3.7,0-6.8,1.7-6.8,3.8c0-3.6,3-6.5,6.8-6.5v-3l5,4.5L16,215.5z" />

    </g>
   
</svg>