<?xml version="1.0" encoding="utf-8"?>
<!-- Generator: Adobe Illustrator 22.0.0, SVG Export Plug-In . SVG Version: 6.00 Build 0)  -->
<svg version="1.1" id="Calque_1" xmlns="http://www.w3.org/2000/svg" xmlns:xlink="http://www.w3.org/1999/xlink" x="0px" y="0px"
	 width="23px" height="372px" viewBox="0 0 23 372" style="enable-background:new 0 0 23 372;" xml:space="preserve">
<style type="text/css">
	.st0{opacity:0.8;enable-background:new    ;}
	.st1{opacity:0.6;enable-background:new    ;}
</style>
<path d="M15,3.6c0-2,1.6-3.6,3.5-3.6S22,1.6,22,3.6c0,1.9-1.6,3.5-3.5,3.5S15,5.5,15,3.6 M19,5.6V4.1h1.5c0.3,0,0.5-0.2,0.5-0.5
	s-0.2-0.5-0.5-0.5H19V1.6C19,1.2,18.8,1,18.5,1S18,1.2,18,1.6v1.5h-1.5c-0.3,0-0.5,0.2-0.5,0.5s0.2,0.5,0.5,0.5H18v1.5
	c0,0.3,0.2,0.5,0.5,0.5S19,5.9,19,5.6"/>
<path class="st0" d="M18.5,8.1c-0.2,0-0.3,0-0.5-0.1c0,0.2,0,0.3,0,0.5c0,3.6-2.9,6.5-6.5,6.5S5,12.1,5,8.5S7.9,2,11.5,2
	c0.9,0,1.8,0.2,2.6,0.5c0.1-0.3,0.2-0.6,0.3-0.9C13.5,1.3,12.5,1,11.5,1C7.4,1,4,4.4,4,8.5S7.4,16,11.5,16S19,12.7,19,8.5
	c0-0.2,0-0.3,0-0.5C18.8,8.1,18.7,8.1,18.5,8.1"/>
<path class="st0" d="M10.4,12c0,0.6,0.5,1.1,1.1,1.1s1.1-0.5,1.1-1.1c0-0.4-0.2-0.8-0.7-1V7.6c0-0.2-0.2-0.4-0.4-0.4
	s-0.4,0.2-0.4,0.4v3.5C10.7,11.3,10.4,11.6,10.4,12"/>
<path class="st0" d="M15.2,7.5c0.2,0,0.4-0.1,0.5-0.3c-0.3-0.2-0.6-0.5-0.8-0.8c-0.2,0.1-0.3,0.3-0.3,0.5
	C14.6,7.2,14.9,7.5,15.2,7.5"/>
<path class="st0" d="M13.1,5.4c0,0.3,0.3,0.6,0.6,0.6s0.6-0.3,0.6-0.6c-0.1-0.2-0.1-0.3-0.2-0.5c-0.1-0.1-0.3-0.2-0.4-0.2
	C13.4,4.7,13.1,5,13.1,5.4"/>
<path class="st0" d="M12.1,4.6c0-0.3-0.3-0.6-0.6-0.6s-0.6,0.3-0.6,0.6c0,0.3,0.3,0.6,0.6,0.6C11.9,5.2,12.1,4.9,12.1,4.6"/>
<path class="st0" d="M7.1,6.8c0,0.3,0.3,0.6,0.6,0.6c0.3,0,0.6-0.3,0.6-0.6S8.1,6.2,7.7,6.2C7.4,6.2,7.1,6.5,7.1,6.8"/>
<path class="st0" d="M8.6,5.4C8.6,5.7,8.9,6,9.2,6s0.6-0.3,0.6-0.6c0-0.3-0.3-0.6-0.6-0.6C8.9,4.7,8.6,5,8.6,5.4"/>
<path d="M11.4,21.5c-3.8,0-6.9,3.1-6.9,7s3.1,7,6.9,7s6.9-3.1,6.9-7S15.3,21.5,11.4,21.5 M11.4,34.5c-3.3,0-5.9-2.7-5.9-6
	s2.7-6,5.9-6s5.9,2.7,5.9,6S14.7,34.5,11.4,34.5"/>
<polygon points="11.5,28.5 8.5,28.5 8.5,29.5 12.5,29.5 12.5,28.5 12.5,24.5 11.5,24.5 "/>
<path d="M16.4,43c-2.7-2.7-7.1-2.7-9.8,0s-2.7,7.1,0,9.8s7.1,2.7,9.8,0S19.1,45.7,16.4,43z M15.7,52.1c-2.3,2.3-6,2.3-8.3,0
	s-2.3-6.1,0-8.4c2.3-2.3,6-2.3,8.3,0C17.9,46.1,17.9,49.8,15.7,52.1z"/>
<path d="M11.5,43.8c0.6,0,1.1,0.5,1.1,1.1S12.1,46,11.5,46s-1.1-0.5-1.1-1.1S10.9,43.8,11.5,43.8"/>
<polygon points="9.5,51.9 9.5,50.9 10.5,50.9 10.5,47.7 9.5,47.9 9.5,46.9 12.5,46.9 12.5,46.9 12.5,50.9 13.5,50.9 13.5,51.9 "/>
<path d="M18,60.5H5c-1.1,0-2,0.9-2,2v8c0,1.1,0.9,2,2,2h13c1.1,0,2-0.9,2-2v-8C20,61.4,19.1,60.5,18,60.5 M19,62.5v8
	c0,0.1,0,0.2-0.1,0.3l-4.1-4.3l4.1-4.3C19,62.3,19,62.4,19,62.5 M18,61.5c0.1,0,0.2,0,0.3,0.1l-4.8,5c0,0-0.9,0.9-2,0.9
	s-2-0.8-2-0.8l-4.8-5c0.1,0,0.2-0.1,0.3-0.1L18,61.5L18,61.5z M4.1,70.9C4,70.8,4,70.6,4,70.5v-8c0-0.1,0-0.2,0.1-0.3l4.2,4.3
	L4.1,70.9z M5,71.5c-0.1,0-0.3,0-0.4-0.1l4.1-4.3l0.1,0.1c0,0,1.1,1.1,2.6,1.1s2.6-1.1,2.6-1.1l0.1-0.1l4.1,4.3
	c-0.1,0-0.2,0.1-0.4,0.1H5z"/>
<path d="M20.5,87.8v-0.5c0-0.1-0.1-0.2-0.2-0.2l-1.5-0.3c-0.1,0-0.2-0.1-0.2-0.2c0-0.2-0.1-0.4-0.1-0.6c0-0.1,0-0.2,0.1-0.2l1.3-0.8
	c0.1-0.1,0.1-0.2,0.1-0.3l-0.2-0.5c0-0.1-0.1-0.2-0.2-0.1l-1.5,0.2c-0.1,0-0.2,0-0.2-0.1c-0.1-0.2-0.2-0.4-0.3-0.5
	c0-0.1,0-0.2,0-0.3l1-1.2c0.1-0.1,0.1-0.2,0-0.3l-0.3-0.4c-0.1-0.1-0.2-0.1-0.3-0.1l-1.4,0.8c-0.1,0-0.2,0-0.3,0
	c-0.1-0.1-0.3-0.3-0.5-0.4c-0.1-0.1-0.1-0.2-0.1-0.2l0.5-1.5c0-0.1,0-0.2-0.1-0.3l-0.4-0.3c-0.1-0.1-0.2,0-0.3,0l-1,1.2
	c-0.1,0.1-0.2,0.1-0.2,0.1c-0.2-0.1-0.4-0.1-0.6-0.2c-0.1,0-0.1-0.1-0.2-0.2v-1.6c0-0.1-0.1-0.2-0.2-0.2l-0.5-0.1
	c-0.1,0-0.2,0-0.2,0.1L12,80.1c0,0.1-0.1,0.1-0.2,0.1c-0.1,0-0.2,0-0.3,0s-0.2,0-0.3,0S11,80.1,11,80.1l-0.6-1.5
	c0-0.1-0.1-0.2-0.2-0.1l-0.5,0.1c-0.1,0-0.2,0.1-0.2,0.2v1.6c0,0.1-0.1,0.2-0.2,0.2c-0.2,0.1-0.4,0.1-0.6,0.2c-0.1,0-0.2,0-0.2-0.1
	l-1-1.2c-0.1-0.1-0.2-0.1-0.3,0l-0.4,0.3c-0.1,0.1-0.1,0.2-0.1,0.3l0.5,1.5c0,0.1,0,0.2-0.1,0.2C7,81.9,6.8,82,6.7,82.1
	c-0.1,0.1-0.2,0.1-0.3,0L5,81.4c-0.1-0.1-0.2,0-0.3,0.1l-0.3,0.4c-0.1,0.1-0.1,0.2,0,0.3l1,1.2c0.1,0.1,0.1,0.2,0,0.3
	c-0.1,0.2-0.2,0.3-0.3,0.5c0,0.1-0.1,0.1-0.2,0.1L3.4,84c-0.1,0-0.2,0-0.2,0.1L3,84.6c0,0.1,0,0.2,0.1,0.3l1.3,0.8
	c0.1,0,0.1,0.1,0.1,0.2c0,0.2-0.1,0.4-0.1,0.6c0,0.1-0.1,0.2-0.2,0.2L2.7,87c-0.1,0-0.2,0.1-0.2,0.2v0.5c0,0.1,0.1,0.2,0.2,0.2
	l1.5,0.3c0.1,0,0.2,0.1,0.2,0.2c0,0.2,0.1,0.4,0.1,0.6c0,0.1,0,0.2-0.1,0.2L3,90.1c0,0.1-0.1,0.2,0,0.3l0.2,0.5
	c0,0.1,0.1,0.2,0.2,0.1l1.5-0.2c0.1,0,0.2,0,0.2,0.1c0.1,0.2,0.2,0.4,0.3,0.5c0,0.1,0,0.2,0,0.3l-1,1.2c-0.1,0.1-0.1,0.2,0,0.3
	l0.3,0.4c0.1,0.1,0.2,0.1,0.3,0.1l1.4-0.8c0.1,0,0.2,0,0.3,0C6.8,93,7,93.1,7.1,93.3c0.1,0.1,0.1,0.2,0.1,0.2L6.7,95
	c0,0.1,0,0.2,0.1,0.3l0.4,0.2c0.1,0.1,0.2,0,0.3,0l1-1.2c0.1-0.1,0.2-0.1,0.2-0.1c0.2,0.1,0.4,0.1,0.6,0.2c0.1,0,0.2,0.1,0.2,0.2
	v1.6c0,0.1,0.1,0.2,0.2,0.2l0.5,0.1c0.1,0,0.2,0,0.2-0.1l0.6-1.5c0-0.1,0.1-0.1,0.2-0.1c0.1,0,0.2,0,0.3,0s0.2,0,0.3,0
	s0.2,0.1,0.2,0.1l0.6,1.5c0,0.1,0.1,0.2,0.2,0.1l0.5-0.1c0.1,0,0.2-0.1,0.2-0.2v-1.6c0-0.1,0.1-0.2,0.2-0.2c0.2-0.1,0.4-0.1,0.6-0.2
	c0.1,0,0.2,0,0.2,0.1l1,1.2c0.1,0.1,0.2,0.1,0.3,0l0.4-0.3c0.1-0.1,0.1-0.2,0.1-0.3l-0.5-1.5c0-0.1,0-0.2,0.1-0.2
	c0.2-0.1,0.3-0.3,0.5-0.4c0.1-0.1,0.2-0.1,0.3,0l1.4,0.8c0.1,0.1,0.2,0,0.3-0.1l0.3-0.4c0.1-0.1,0.1-0.2,0-0.3l-1-1.2
	c-0.1-0.1-0.1-0.2,0-0.3c0.1-0.2,0.2-0.3,0.3-0.5c0-0.1,0.1-0.1,0.2-0.1l1.5,0.2c0.1,0,0.2,0,0.2-0.1l0.2-0.5c0-0.1,0-0.2-0.1-0.3
	l-1.3-0.8c-0.1,0-0.1-0.1-0.1-0.2c0-0.2,0.1-0.4,0.1-0.6c0-0.1,0.1-0.2,0.2-0.2L20.5,87.8C20.4,87.9,20.5,87.9,20.5,87.8 M16.5,87
	c-0.5,0-2.7,0-3.8,0c-0.5,0-0.9-0.2-1.2-0.7c-0.6-1-1.7-3-1.9-3.4c-0.3-0.5,0-1,0.3-1.1c0.6-0.2,1.2-0.3,1.8-0.3
	c2.8,0,5.1,1.9,5.7,4.5C17.3,86.4,17.1,87,16.5,87 M11.5,87.5L11.5,87.5L11.5,87.5z M5.6,87.5c0-1.7,0.7-3.2,1.8-4.2
	c0.2-0.2,0.8-0.5,1.2,0.2c0.3,0.5,1.3,2.3,1.9,3.3c0.3,0.5,0.3,0.9,0,1.4c-0.6,1-1.7,3-1.9,3.4s-0.9,0.5-1.4,0
	C6.2,90.5,5.6,89.1,5.6,87.5 M9.5,92.1c0.3-0.5,1.4-2.4,1.9-3.4c0.3-0.5,0.6-0.7,1.2-0.7h3.8c0.7,0,0.8,0.6,0.7,0.9
	c-0.6,2.6-3,4.4-5.7,4.4c-0.6,0-1.2,0-1.8-0.2C9.5,93.1,9.1,92.7,9.5,92.1"/>
<path d="M15.5,106H13v1h2.5c0.3,0,0.5,0.2,0.5,0.5v7.3c0,0.3-0.2,0.5-0.5,0.5h-8c-0.3,0-0.5-0.2-0.5-0.5v-7.3c0-0.3,0.2-0.5,0.5-0.5
	H10v-1H7.5c-0.8,0-1.5,0.7-1.5,1.5v7.3c0,0.8,0.7,1.5,1.5,1.5h8c0.8,0,1.5-0.7,1.5-1.5v-7.3C17,106.7,16.3,106,15.5,106z"/>
<polygon points="14.1,104.8 11.5,102.1 8.9,104.8 8.2,104.1 11.5,100.7 14.8,104.1 "/>
<rect x="11" y="101.3" width="1" height="9.9"/>
<g>
	<polygon points="17.5,134.3 17.5,135.3 5.5,135.3 5.5,134.3 6.5,134.3 6.5,127.2 7.5,127.2 7.5,134.3 15.5,134.3 15.5,127.2 
		16.5,127.2 16.5,134.3 	"/>
</g>
<path class="st1" d="M9.5,129.3v5h4v-5H9.5z M13,132.3h-0.5v-0.5H13V132.3z"/>
<path d="M17,129.3l1.1-1.1l-6.5-6.5L5,128.2l1.1,1.1l5.5-5.5L17,129.3z"/>
<rect x="15" y="123.2" width="1.5" height="3.5"/>
<polygon points="11.5,149.8 8.9,151.7 9.9,148.6 7.4,146.8 10.5,146.8 11.5,143.8 12.5,146.8 15.6,146.8 13.1,148.6 14.1,151.7 "/>
<rect x="3" y="141.8" class="st1" width="17" height="1"/>
<rect x="3" y="152.8" class="st1" width="17" height="1"/>
<g>
	<path d="M17.5,160.8c0.3,0,0.5,0.2,0.5,0.5v9c0,0.3-0.2,0.5-0.5,0.5h-12c-0.3,0-0.5-0.2-0.5-0.5v-9c0-0.3,0.2-0.5,0.5-0.5H17.5
		 M17.5,159.8h-12c-0.8,0-1.5,0.7-1.5,1.5v9c0,0.8,0.7,1.5,1.5,1.5h12c0.8,0,1.5-0.7,1.5-1.5v-9C19,160.5,18.3,159.8,17.5,159.8
		L17.5,159.8z"/>
</g>
<rect x="9" y="159.8" width="1" height="12"/>
<rect x="6" y="161.8" width="2" height="1"/>
<rect x="6" y="163.8" width="2" height="1"/>
<rect x="6" y="165.8" width="2" height="1"/>
<path d="M14.6,178.4l-1.1-1.1l-6.2,6.2l6.2,6.2l1.1-1.1l-5.1-5.1L14.6,178.4z"/>
<path d="M8.4,206.6l1.1,1.1l6.2-6.2l-6.2-6.2l-1.1,1.1l5.1,5.1L8.4,206.6z"/>
<path d="M19,217.8h-0.3l-1,1H19c0.3,0,0.5,0.2,0.5,0.5v4c0,0.3-0.2,0.5-0.5,0.5H4c-0.3,0-0.5-0.2-0.5-0.5v-4c0-0.3,0.2-0.5,0.5-0.5
	h7.3l1-1H4c-0.8,0-1.5,0.7-1.5,1.5v4c0,0.8,0.7,1.5,1.5,1.5h15c0.8,0,1.5-0.7,1.5-1.5v-4C20.5,218.5,19.8,217.8,19,217.8z"/>
<g>
	<polygon points="5.5,220.8 4.5,220.8 4.5,221.8 5.5,221.8 	"/>
</g>
<g>
	<polygon points="7.5,220.8 6.5,220.8 6.5,221.8 7.5,221.8 	"/>
</g>
<g>
	<polygon points="9.5,220.8 8.5,220.8 8.5,221.8 9.5,221.8 	"/>
</g>
<g>
	<path d="M20.5,214c0,0.3-0.1,0.6-0.4,0.9l-0.2,0.2l0,0l-1.8-1.8l0,0l0.2-0.2c0.5-0.5,1.3-0.5,1.8,0C20.4,213.4,20.5,213.7,20.5,214
		z"/>
</g>
<g>
	<path d="M18.2,213.3L18.2,213.3l1.8,1.8l0,0L18.2,213.3z"/>
	<polygon points="19.3,215.8 13.6,221.4 10.6,222.7 11.8,219.7 17.5,214 	"/>
</g>
<path d="M18.5,233.9h-14c-1.1,0-2,0.9-2,2v4.5c0,0.8,0.7,1.5,1.5,1.5h1.5v3h12v-3H19c0.8,0,1.5-0.7,1.5-1.5v-4.5
	C20.5,234.8,19.6,233.9,18.5,233.9z M16.5,243.9h-10v-6h10V243.9z"/>
<polygon points="17.5,230.9 17.5,232.9 16.5,232.9 16.5,231.9 6.5,231.9 6.5,232.9 5.5,232.9 5.5,230.9 "/>
<g>
	<path d="M13,255.8c0.3,0,0.5,0.2,0.5,0.5v6c0,0.3-0.2,0.5-0.5,0.5H7c-0.3,0-0.5-0.2-0.5-0.5v-6c0-0.3,0.2-0.5,0.5-0.5L13,255.8
		 M13,254.8H7c-0.8,0-1.5,0.7-1.5,1.5v6c0,0.8,0.7,1.5,1.5,1.5h6c0.8,0,1.5-0.7,1.5-1.5v-6C14.5,255.4,13.8,254.8,13,254.8L13,254.8
		z"/>
</g>
<path d="M16,251.7h-6c-0.8,0-1.5,0.7-1.5,1.5v0.5h1v-0.5c0-0.3,0.2-0.5,0.5-0.5h6c0.3,0,0.5,0.2,0.5,0.5v6c0,0.3-0.2,0.5-0.5,0.5
	h-0.5v1H16c0.8,0,1.5-0.7,1.5-1.5v-6C17.5,252.4,16.8,251.7,16,251.7z"/>
<path d="M17.7,274.1h-0.1V274c-0.1-2.8-2.3-5-4.9-5c-1.7,0-3.3,1-4.2,2.5l-0.1,0.1l-0.1-0.1c-0.3-0.2-0.7-0.3-1.1-0.3
	c-1.4,0-2.5,1.1-2.6,2.5v0.1H4.5c-0.5,0.2-0.9,0.6-1.3,1c-0.6,0.7-0.9,1.6-0.9,2.5c0,2.1,1.6,3.9,3.6,3.9h11c1.9,0,3.4-1.6,3.4-3.6
	C20.5,276,19.3,274.5,17.7,274.1z M17.1,280.3h-11c-1.4,0-2.6-1.3-2.6-2.9c0-0.7,0.2-1.4,0.7-1.9c0.3-0.3,0.6-0.6,0.9-0.7l0.5-0.2
	l0.1-0.6c0.1-0.9,0.7-1.6,1.6-1.6c0.2,0,0.4,0.1,0.6,0.2l1,0.5l0.5-0.9c0.7-1.2,2-2,3.3-2c2.1,0,3.8,1.8,3.9,4v0.9l0.8,0.2
	c1.1,0.2,1.9,1.3,1.9,2.6C19.5,279.2,18.4,280.3,17.1,280.3z"/>
<rect x="8.5" y="292.5" width="2" height="2"/>
<rect x="12.5" y="296.5" width="2" height="2"/>
<rect x="4.5" y="292.5" width="2" height="2"/>
<rect x="16.5" y="296.5" width="2" height="2"/>
<rect x="4.5" y="296.5" width="2" height="2"/>
<rect x="8.5" y="296.5" width="2" height="2"/>
<rect x="12.5" y="288.5" width="2" height="2"/>
<rect x="8.5" y="288.5" width="2" height="2"/>
<rect x="12.5" y="292.5" width="2" height="2"/>
<rect x="4.5" y="288.5" width="2" height="2"/>
<rect x="16.5" y="292.5" width="2" height="2"/>
<rect x="16.5" y="288.5" width="2" height="2"/>
<path d="M16,312.5v0.5l0,0c0,2.5-2,4.5-4.5,4.5S7,315.5,7,313c0-2.3,1.8-4.2,4-4.5v2.5l4.5-2.8l-4.5-2.8v2c-2.8,0.2-5,2.6-5,5.5
	c0,3,2.5,5.5,5.5,5.5S17,316,17,313l0,0v-0.6L16,312.5L16,312.5z"/>
<polygon points="11.2,329.8 6.4,325.1 5.7,325.8 10.5,330.5 5.7,335.2 6.4,335.9 11.2,331.2 15.9,335.9 16.6,335.2 11.9,330.5 
	16.6,325.8 15.9,325.1 "/>
<path d="M11.1,343.9L11.1,343.9l2.1,5.8H9L11.1,343.9z M10.2,342.5L5.4,355h1.7l1.4-3.8h5.3l1.4,3.8H17l-4.9-12.5H10.2z"/>
<path d="M11.1,362.6L11.1,362.6l1.7,4.8H9.4L11.1,362.6z M10.4,361.4l-4,10.2h1.4l1.1-3.1h4.3l1.1,3.1h1.5l-4-10.2H10.4z"/>
</svg>
