<?xml version="1.0" encoding="utf-8"?>
<!-- Generator: Adobe Illustrator 22.0.0, SVG Export Plug-In . SVG Version: 6.00 Build 0)  -->
<svg version="1.1" id="Calque_1" xmlns="http://www.w3.org/2000/svg" xmlns:xlink="http://www.w3.org/1999/xlink" x="0px" y="0px"
	 width="34px" height="300px" viewBox="0 0 34 300" style="enable-background:new 0 0 34 300;" xml:space="preserve">
<style type="text/css">
	.st0{fill:#5F6368;}
	.st1{fill:#4480E1;}
	.st2{fill:#3C4043;}
	.st3{opacity:0.26;}
	.st4{opacity:0.03;}
	.st5{opacity:0.1;}
	.st6{opacity:0.17;}
	.st7{opacity:0.33;}
	.st8{fill:#FFFFFF;}
	.st9{opacity:0.11;}
	.st10{opacity:0.32;}
	.st11{opacity:0.09;}
</style>
<path shape-rendering="geometricPrecision" class="st0" d="M17,228.12l1.08,2.7l2.78,0.25l-2.1,1.93l0.63,2.86L17,234.34l-2.39,1.52
	l0.63-2.86l-2.11-1.92l2.78-0.25L17,228.12 M17,224.74l-2.04,4.89l-5.21,0.45l3.95,3.49l-1.18,5.18L17,236l4.49,2.75l-1.19-5.18
	l3.95-3.49l-5.21-0.45L17,224.74z"/>
<g>
	<path shape-rendering="geometricPrecision" class="st0" d="M17,155.19l-4.57,4.56c-0.33,0.33-0.86,0.33-1.18,0
		c-0.33-0.32-0.33-0.85,0-1.18l4.56-4.57l-4.56-4.57c-0.33-0.33-0.33-0.86,0-1.18c0.32-0.33,0.85-0.33,1.18,0l4.57,4.56l4.57-4.56
		c0.33-0.33,0.86-0.33,1.18,0c0.33,0.32,0.33,0.85,0,1.18L18.19,154l4.56,4.57c0.33,0.33,0.33,0.86,0,1.18
		c-0.32,0.33-0.85,0.33-1.18,0L17,155.19z"/>
</g>
<path shape-rendering="geometricPrecision" class="st0" d="M15.5,177c0-0.83,0.67-1.5,1.5-1.5s1.5,0.67,1.5,1.5s-0.67,1.5-1.5,1.5
	S15.5,177.83,15.5,177z M15.5,182c0-0.83,0.67-1.5,1.5-1.5s1.5,0.67,1.5,1.5s-0.67,1.5-1.5,1.5S15.5,182.83,15.5,182z M15.5,187
	c0-0.83,0.67-1.5,1.5-1.5s1.5,0.67,1.5,1.5s-0.67,1.5-1.5,1.5S15.5,187.83,15.5,187z"/>
<polygon class="st1" points="20.3,209.58 21.49,214.76 17,212.01 12.52,214.76 13.7,209.58 9.75,206.09 14.96,205.63 17,200.74 
	19.04,205.63 24.25,206.09 "/>
<g>
	<path class="st0" d="M18.25,125l2.27-2.27c-0.94-1.1-2.31-1.73-3.77-1.73c-2.76,0-5,2.24-5,5c0,2.76,2.24,5,5,5
		c2.01,0,3.82-1.2,4.61-3.05c0.16-0.38,0.6-0.56,0.98-0.4c0.38,0.17,0.56,0.61,0.4,0.98c-1.02,2.41-3.37,3.96-5.98,3.96
		c-3.58,0-6.5-2.92-6.5-6.5c0-3.59,2.92-6.5,6.5-6.5c1.87,0,3.61,0.79,4.84,2.16l2.15-2.15v5.5H18.25z"/>
</g>
<g>
	<g>
		<path class="st0" d="M23.28,42.28l-5.5,5.5C17.63,47.93,17.44,48,17.25,48c-0.19,0-0.38-0.07-0.53-0.22
			c-0.29-0.29-0.29-0.77,0-1.06l4.22-4.22h-9.69c-0.41,0-0.75-0.33-0.75-0.75c0-0.41,0.34-0.75,0.75-0.75h9.69l-4.22-4.22
			c-0.29-0.29-0.29-0.77,0-1.06c0.29-0.29,0.77-0.29,1.06,0l5.5,5.5C23.57,41.51,23.57,41.99,23.28,42.28z"/>
	</g>
</g>
<g>
	<path class="st0" d="M23.12,97.38l-5.5-5.5c-0.34-0.34-0.9-0.34-1.24,0l-5.5,5.5c-0.34,0.34-0.34,0.9,0,1.24
		c0.3,0.3,0.78,0.34,1.12,0.09v5.04c0,0.42,0.34,0.75,0.75,0.75h8.5c0.41,0,0.75-0.33,0.75-0.75v-5.04c0.15,0.11,0.33,0.17,0.5,0.17
		c0.22,0,0.45-0.09,0.62-0.26C23.46,98.28,23.46,97.72,23.12,97.38z M20.5,103h-7v-5.76l3.5-3.5l3.5,3.5V103z"/>
</g>
<g>
	<g>
		<path class="st0" d="M23.5,69.75c0,0.42-0.34,0.75-0.75,0.75h-9.69l4.22,4.22c0.29,0.29,0.29,0.77,0,1.06
			C17.13,75.93,16.94,76,16.75,76c-0.19,0-0.38-0.07-0.53-0.22l-5.5-5.5c-0.29-0.29-0.29-0.77,0-1.06l5.5-5.5
			c0.29-0.29,0.77-0.29,1.06,0s0.29,0.77,0,1.06L13.06,69h9.69C23.16,69,23.5,69.34,23.5,69.75z"/>
	</g>
</g>
<g>
	<path class="st2" d="M23,14c0,0.55-0.45,1-1,1h-4v4c0,0.55-0.45,1-1,1c-0.55,0-1-0.45-1-1v-4h-4c-0.55,0-1-0.45-1-1s0.45-1,1-1h4V9
		c0-0.55,0.45-1,1-1c0.55,0,1,0.45,1,1v4h4C22.55,13,23,13.45,23,14z"/>
</g>
<g class="st3">
	<path d="M25.42,250c0.27,0,0.53,0.17,0.64,0.42l5.46,12.61c0.1,0.22,0.08,0.46-0.06,0.66c-0.13,0.2-0.35,0.32-0.59,0.32H6.66
		c-0.28,0-0.53-0.17-0.64-0.42l-5.46-12.61c-0.1-0.22-0.07-0.46,0.06-0.67c0.13-0.2,0.34-0.31,0.58-0.31H25.42 M25.42,249.5H1.2
		c-0.86,0-1.44,0.88-1.1,1.67l5.46,12.6c0.19,0.44,0.62,0.73,1.1,0.73h24.21c0.87,0,1.45-0.89,1.1-1.68l-5.45-12.6
		C26.33,249.78,25.89,249.5,25.42,249.5L25.42,249.5z"/>
</g>
<g class="st4">
	<path d="M31.46,263.68c-0.13,0.2-0.35,0.32-0.59,0.32H6.66c-0.28,0-0.53-0.17-0.64-0.43l-5.46-12.6c-0.1-0.22-0.08-0.46,0.06-0.66
		c0.13-0.2,0.34-0.31,0.58-0.31h24.22c0.27,0,0.53,0.17,0.64,0.42l5.46,12.61C31.61,263.24,31.59,263.48,31.46,263.68z"/>
	<path d="M31.46,263.68c-0.13,0.2-0.35,0.32-0.59,0.32H6.66c-0.28,0-0.53-0.17-0.64-0.43l-5.46-12.6c-0.1-0.22-0.08-0.46,0.06-0.66
		c0.13-0.2,0.34-0.31,0.58-0.31h24.22c0.27,0,0.53,0.17,0.64,0.42l5.46,12.61C31.61,263.24,31.59,263.48,31.46,263.68z"/>
</g>
<g class="st5">
	<path d="M32.05,263.55c-0.11,0.5-0.52,0.9-1.08,0.95c-0.03,0-0.06,0-0.09,0H6.66c-0.04,0-0.07-0.01-0.1-0.01
		c-0.44-0.04-0.82-0.31-1-0.71L0.1,251.17c-0.03-0.07-0.06-0.14-0.07-0.22c-0.05,0.23-0.04,0.48,0.07,0.72l5.46,12.6
		c0.19,0.44,0.62,0.73,1.1,0.73h24.21C31.66,265,32.21,264.27,32.05,263.55z"/>
</g>
<g class="st6">
	<path d="M25.42,267c0.27,0,0.53,0.17,0.64,0.42l5.46,12.61c0.1,0.22,0.08,0.46-0.06,0.66c-0.13,0.2-0.35,0.32-0.59,0.32H6.66
		c-0.28,0-0.53-0.17-0.64-0.42l-5.46-12.6c-0.09-0.22-0.07-0.46,0.06-0.66C0.75,267.11,0.96,267,1.2,267H25.42 M25.42,266.5H1.2
		c-0.86,0-1.44,0.88-1.1,1.67l5.46,12.6c0.19,0.44,0.62,0.73,1.1,0.73h24.21c0.87,0,1.45-0.89,1.1-1.68l-5.46-12.61
		C26.33,266.78,25.89,266.5,25.42,266.5L25.42,266.5z"/>
</g>
<g class="st7">
	<path class="st8" d="M31.46,280.68c-0.13,0.2-0.35,0.32-0.59,0.32H6.66c-0.28,0-0.53-0.17-0.64-0.43l-5.46-12.6
		c-0.1-0.22-0.08-0.46,0.06-0.66c0.13-0.2,0.34-0.31,0.58-0.31h24.22c0.27,0,0.53,0.17,0.64,0.42l5.46,12.61
		C31.61,280.24,31.59,280.48,31.46,280.68z"/>
	<path class="st8" d="M31.46,280.68c-0.13,0.2-0.35,0.32-0.59,0.32H6.66c-0.28,0-0.53-0.17-0.64-0.43l-5.46-12.6
		c-0.1-0.22-0.08-0.46,0.06-0.66c0.13-0.2,0.34-0.31,0.58-0.31h24.22c0.27,0,0.53,0.17,0.64,0.42l5.46,12.61
		C31.61,280.24,31.59,280.48,31.46,280.68z"/>
</g>
<g class="st9">
	<path d="M31.46,297.68c-0.13,0.2-0.35,0.32-0.59,0.32H6.66c-0.28,0-0.53-0.17-0.64-0.43l-5.46-12.6c-0.1-0.22-0.08-0.46,0.06-0.66
		c0.13-0.2,0.34-0.31,0.58-0.31h24.22c0.27,0,0.53,0.17,0.64,0.42l5.46,12.61C31.61,297.24,31.59,297.48,31.46,297.68z"/>
	<path d="M31.46,297.68c-0.13,0.2-0.35,0.32-0.59,0.32H6.66c-0.28,0-0.53-0.17-0.64-0.43l-5.46-12.6c-0.1-0.22-0.08-0.46,0.06-0.66
		c0.13-0.2,0.34-0.31,0.58-0.31h24.22c0.27,0,0.53,0.17,0.64,0.42l5.46,12.61C31.61,297.24,31.59,297.48,31.46,297.68z"/>
</g>
<g class="st10">
	<path d="M25.42,284c0.27,0,0.53,0.17,0.64,0.42l5.46,12.61c0.1,0.22,0.08,0.46-0.06,0.66c-0.13,0.2-0.35,0.32-0.59,0.32H6.66
		c-0.28,0-0.53-0.17-0.64-0.42l-5.46-12.6c-0.09-0.22-0.07-0.46,0.06-0.66c0.13-0.2,0.34-0.31,0.58-0.31h24.22 M25.42,283.5H1.2
		c-0.86,0-1.44,0.88-1.1,1.67l5.46,12.6c0.19,0.44,0.62,0.73,1.1,0.73h24.21c0.87,0,1.45-0.89,1.1-1.68l-5.46-12.61
		C26.33,283.78,25.89,283.5,25.42,283.5L25.42,283.5z"/>
</g>
<g class="st11">
	<path d="M31.52,297.02l-5.46-12.61c-0.11-0.25-0.37-0.42-0.64-0.42H1.2c-0.24,0-0.45,0.11-0.58,0.31c-0.04,0.07-0.07,0.13-0.09,0.2
		h24.89c0.08,0,0.15,0.05,0.18,0.11l5.73,13.23c0.05-0.05,0.1-0.1,0.14-0.15C31.59,297.48,31.61,297.24,31.52,297.02z"/>
</g>
</svg>
