<?xml version="1.0" encoding="utf-8"?>
<!-- Generator: Adobe Illustrator 22.0.0, SVG Export Plug-In . SVG Version: 6.00 Build 0)  -->
<svg version="1.1" id="Calque_1" xmlns="http://www.w3.org/2000/svg" xmlns:xlink="http://www.w3.org/1999/xlink" x="0px" y="0px"
	 width="19px" height="133px" viewBox="0 0 19 133" style="enable-background:new 0 0 19 133;" xml:space="preserve">
<style type="text/css">
	.st0{fill-rule:evenodd;clip-rule:evenodd;}
	.st1{fill:#1D1D1B;}
</style>
<path class="st0" d="M10,15h1v-1l-1.65-3L16,11c0.55,0,1-0.45,1-1V9c0-0.55-0.45-1-1-1L9.35,8.02L11,5V4h-1L3,9.55L10,15z"/>
<path class="st0" d="M9,23H8v1l1.65,3L3,27c-0.55,0-1,0.45-1,1v1c0,0.55,0.45,1,1,1l6.65-0.02L8,33v1h1l7-5.55L9,23z"/>
<polygon class="st0" points="11,53 8,53 8,49 4.01,49 4.01,46 8,46 8,42.01 11,42.01 11,46 15,46 15,49 11,49 "/>
<path class="st0" d="M16,66v-6l-1.9,1.9c-1.18-1.18-2.8-1.9-4.6-1.9C5.91,60,3,62.91,3,66.5C3,70.09,5.91,73,9.5,73
	c2.06,0,3.9-0.97,5.09-2.47c0.07-0.08,0.26-0.39,0.26-0.39c0.15-0.31,0.19-0.67,0.1-1.03C14.73,68.31,13.8,67.79,13,68
	c-0.23,0.06-0.54,0.35-0.54,0.35C11.84,69.34,10.75,70,9.5,70C7.57,70,6,68.43,6,66.5S7.57,63,9.5,63c0.97,0,1.84,0.39,2.48,1.03
	L10,66H16z"/>
<path class="st0" d="M14.73,109.06l-0.65,0.65c-0.36,0.36-0.94,0.36-1.3,0l-3.26-3.26l-3.27,3.28c-0.36,0.36-0.95,0.36-1.31,0
	l-0.63-0.63c-0.36-0.36-0.36-0.94,0-1.31l3.28-3.28l-3.27-3.27c-0.36-0.36-0.36-0.94,0-1.3l0.65-0.65c0.36-0.36,0.94-0.36,1.3,0
	l3.27,3.27l3.25-3.25c0.36-0.36,0.95-0.36,1.3,0l0.63,0.63c0.36,0.36,0.36,0.94,0,1.3l-3.25,3.25l3.26,3.26
	C15.09,108.11,15.09,108.7,14.73,109.06"/>
<path class="st0" d="M3,87h4v-3H3V87z M8,87h4v-3H8V87z M13,87h4v-3h-4V87z M3,91h4v-3H3V91z M8,91h4v-3H8V91z M3,83h4v-3H3V83z
	 M8,83h4v-3H8V83z M13,83h4v-3h-4V83z"/>
<g>
	<path class="st1" d="M15.35,127.58l-2.67-2.67c-0.2-0.21-0.45-0.32-0.71-0.36l-0.23-0.23c0.48-0.74,0.76-1.62,0.76-2.58
		c0-2.62-2.13-4.75-4.75-4.75S3,119.12,3,121.74c0,2.63,2.13,4.75,4.75,4.75c0.95,0,1.83-0.28,2.57-0.76l0.23,0.23
		c0.04,0.26,0.15,0.51,0.36,0.71l2.67,2.67c0.25,0.25,0.57,0.37,0.89,0.37c0.32,0,0.64-0.12,0.88-0.37
		C15.84,128.86,15.84,128.06,15.35,127.58z M9.22,124.63c-0.44,0.23-0.94,0.36-1.47,0.36c-1.79,0-3.25-1.46-3.25-3.25
		s1.46-3.25,3.25-3.25s3.25,1.46,3.25,3.25c0,0.53-0.13,1.04-0.36,1.48C10.33,123.83,9.83,124.33,9.22,124.63z"/>
</g>
</svg>
